<?xml version="1.0" encoding="utf-8"?>
<!-- Generator: Adobe Illustrator 21.1.0, SVG Export Plug-In . SVG Version: 6.00 Build 0)  -->
<svg version="1.1" id="Calque_1" xmlns="http://www.w3.org/2000/svg" xmlns:xlink="http://www.w3.org/1999/xlink" x="0px" y="0px"
	 viewBox="0 0 432 432" style="enable-background:new 0 0 432 432;" xml:space="preserve">
<style type="text/css">
	.st0{fill:#1B1B1B;}
	.st1{fill:#921E23;}
	.st2{fill:#DAB0B3;}
	.st3{fill:#343434;}
	.st4{fill:#C69C6C;}
	.st5{fill:#AD9DAF;}
	.st6{fill:#C7696C;}
	.st7{fill:#A5A56E;}
	.st8{fill:#509B89;}
	.st9{fill:#5A5151;}
	.st10{fill:#7B484D;}
	.st11{fill:#D2A1A6;}
	.st12{fill:#966C71;}
	.st13{fill:#4E4D4D;}
	.st14{fill:#83A67F;}
	.st15{fill:#CFAC75;}
	.st16{fill:#877979;}
	.st17{fill:#BCBCD1;}
	.st18{fill:#B4B1A2;}
	.st19{fill:#D5A7AA;}
	.st20{fill:#D1BC8C;}
	.st21{fill:#88AF8F;}
	.st22{fill:#CCB27F;}
	.st23{fill:#B8CFBC;}
	.st24{fill:#CA8A8C;}
	.st25{fill:#5B6781;}
	.st26{fill:#676767;}
	.st27{fill:#2B3447;}
	.st28{fill:#D1C6E3;}
	.st29{fill:#DDCD72;}
	.st30{fill:#8BA1C9;}
	.st31{fill:#E299C2;}
	.st32{fill:#BC8B59;}
	.st33{fill:#913E41;}
	.st34{fill:#BFABB3;}
	.st35{fill:#AB5D7B;}
	.st36{fill:#5D2A3E;}
	.st37{fill:#A49D78;}
	.st38{fill:#A4787A;}
	.st39{fill:#DEC968;}
	.st40{fill:#D19962;}
	.st41{fill:#AB585E;}
	.st42{fill:#7FAEDD;}
	.st43{fill:#CDCCCC;}
	.st44{fill:#F9B03D;}
	.st45{fill:#778DAE;}
	.st46{fill:#A494A7;}
	.st47{fill:#DDB58F;}
	.st48{fill:#615757;}
	.st49{fill:#B0C0D9;}
	.st50{fill:#A08B99;}
	.st51{fill:#8198AD;}
	.st52{fill:#D5B9A2;}
	.st53{fill:#6D91A9;}
	.st54{fill:#020203;}
	.st55{fill:#9489C1;}
	.st56{fill:#A57C9C;}
	.st57{fill:#824B70;}
	.st58{fill:#917C95;}
	.st59{fill:#A67D52;}
	.st60{fill:#5F7C50;}
	.st61{fill:#413939;}
	.st62{fill:#96AF8F;}
	.st63{fill:#E38CBA;}
	.st64{fill:#5D675F;}
	.st65{fill:#886873;}
	.st66{fill:#B2191D;}
	.st67{fill:#D99B9D;}
	.st68{fill:#8D5859;}
	.st69{fill:#E1AFB1;}
	.st70{fill:#AF8358;}
	.st71{fill:#FBC063;}
	.st72{fill:#A98199;}
	.st73{fill:#55735C;}
	.st74{fill:#C7A866;}
	.st75{fill:#6D8372;}
	.st76{fill:#A57B7C;}
	.st77{fill:#998F8F;}
	.st78{fill:#929D95;}
	.st79{fill:#581111;}
	.st80{fill:#D09D69;}
	.st81{fill:#8D5459;}
	.st82{fill:#C6905C;}
	.st83{fill:#5C7460;}
	.st84{fill:#BA999A;}
	.st85{fill:#B7B6D1;}
	.st86{fill:#539FA3;}
	.st87{fill:#B4B4B4;}
	.st88{fill:#746458;}
	.st89{fill:#CDA780;}
	.st90{fill:#EB5B28;}
	.st91{fill:#E2CE6A;}
	.st92{fill:#B6A9D3;}
	.st93{fill:#4F998B;}
	.st94{fill:#BAACD5;}
	.st95{fill:#60A88D;}
	.st96{fill:#879FAE;}
	.st97{fill:#35444D;}
	.st98{fill:#C18F5C;}
	.st99{fill:#9CA578;}
	.st100{fill:#E8C2C4;}
	.st101{fill:#C1292E;}
	.st102{fill:#AF9BB2;}
	.st103{fill:#617F63;}
	.st104{fill:#B6555C;}
	.st105{fill:#CC9864;}
	.st106{fill:#D3989E;}
	.st107{fill:#78B1B7;}
	.st108{fill:#C091A7;}
</style>
<g>
	<g>
		<path class="st103" d="M252.3,189.5c-0.4,0.2-0.7,0.3-1,0.4c-0.6,0.5-1.3,0.9-1.9,1.4c-2.6,2.4-4.6,5.2-6.4,8.2
			c-3.4,5.6-6,11.5-8.5,17.5c-3,7.1-5.4,14.4-7.4,21.9c-0.3,1.3-0.7,2.5-1.1,3.8c-0.1,0.4-0.3,0.8-0.4,1.1c-0.9,1.8-3,2.3-4.5,1.1
			c-0.6-0.4-1-1-1.4-1.6c-0.9-1.5-1.3-3.1-1.3-4.8c0-3,0.4-5.9,0.7-8.8c1.1-8.9,2.8-17.6,4.2-26.4c0.7-4.1,1.3-8.2,1.9-12.3
			c0.3-2,0.5-4.1,0.3-6.1c0-0.3-0.1-0.5-0.1-0.7c0-0.1-0.1-0.2-0.2-0.3c-1,0.3-1.7,0.9-2.4,1.6c-1.7,1.7-3.3,3.6-4.7,5.5
			c-4.4,6.1-7.8,12.7-10.8,19.6c-3.3,7.8-5.8,15.8-8,23.9c-0.6,2.2-1.3,4.3-2,6.5c-0.2,0.5-0.4,1-0.6,1.5c-1,1.9-3.1,2.5-4.8,1.3
			c-0.7-0.5-1.2-1.1-1.7-1.8c-1.2-1.7-1.8-3.6-2.1-5.6c-0.2-1.3-0.4-2.7-0.8-4c-0.1,0.4-0.3,0.8-0.4,1.2c-1.7,6.1-3.4,12.2-5.1,18.3
			c-0.8,2.7-1.7,5.3-2.7,7.9c-0.6,1.5-1.5,3-2.3,4.5c-0.4,0.7-0.9,1.3-1.4,1.8c-1.8,1.9-4.3,2.3-6.7,1.2c-1.7-0.8-3.1-2.1-4.2-3.6
			c-1-1.4-1.7-3-2.3-4.6c-1.9-5-3.2-10.1-3.4-15.4c-0.1-2.6,0-5.3,0-7.9c0-0.3,0-0.6-0.1-1c-0.1,0.2-0.2,0.4-0.3,0.6
			c-1.3,2.8-2.5,5.7-3.8,8.5c-0.8,1.8-1.9,3.6-3.2,5.1c-0.7,0.8-1.4,1.5-2.2,2.2c-2.6,2.1-5.9,2.2-8.7,0.5c-1.5-0.9-2.8-2.1-3.9-3.6
			c-2-2.6-3.1-5.6-3.8-8.7c-0.6-2.4-1-4.9-1.2-7.5c0-0.3-0.1-0.5-0.1-1.1c-0.3,0.4-0.5,0.7-0.7,1c-2.5,3.9-5,7.8-7.5,11.7
			c-4.2,6.5-8.4,12.9-12.9,19.2c-1.1,1.6-2.2,3.2-3.2,4.8c-0.9,1.4-1.6,3-2.1,4.6c-0.1,0.6-0.1,1.1,0.2,1.5c0.4,0.6,0.7,1.2,1.1,1.8
			c0.4,0.6,0.8,1.2,1.2,1.8c0.2,0.4,0.5,0.9,0.6,1.4c0.3,1.3,0.3,2.6-1.1,3.5c0.2,1.1,0.4,2.1,0.6,3.2c0.2,1.2,0.3,2.4,0.4,3.7
			c0.3,3.3-0.7,6.3-2.4,9.1c-0.2,0.4-0.5,0.8-0.8,1.2c-0.9,1.1-1.9,1.2-3,0.4c-0.1-0.1-0.2-0.1-0.4-0.3c-0.3,0.4-0.6,0.7-0.9,1.1
			c-1,1.3-2,2.7-3.1,4c-2.5,3.1-5.6,5.5-9.1,7.5c-0.7,0.4-1.5,0.8-2.3,1.2c-0.6,0.3-1.2,0.5-1.8,0.6c-1.3,0.3-2.3-0.7-2.1-2
			c0.1-0.8,0.4-1.6,0.7-2.4c0.6-1.6,1.1-3.2,1.3-4.8c0.1-0.4,0.1-0.8,0.1-1.2c0-0.2-0.1-0.5-0.2-0.7c-0.5-0.6-0.6-1.4-0.5-2.1
			c0.4-3,0.8-5.9,2-8.7c0.5-1.2,1.2-2.3,1.8-3.5c-0.1-0.1-0.2-0.1-0.3-0.2c-1.1-0.7-1.5-1.7-1-2.9c1.3-3,2.6-5.9,4.9-8.4
			c0.6-0.6,1.2-1.3,1.9-2c-0.9-0.1-1.6-0.1-2.4-0.2c-2.6-0.5-4.8-1.7-6.7-3.5c-2.6-2.5-4.2-5.5-5.4-8.9c-1.5-4.4-2.7-8.9-3-13.6
			c0-0.2-0.1-0.5-0.1-0.7c-1.3-0.1-2.5-0.3-3.8-0.4c-0.5-0.1-1-0.3-1.5-0.5c-1.6-0.7-2.2-1.6-2.2-3.4c-0.4-0.1-0.9-0.3-1.3-0.4
			c-1.6-0.5-3-1.3-4.2-2.4c-0.5-0.4-0.9-0.9-1.2-1.4c-0.8-1.3-0.6-2.3,0.5-3.5c-0.2-0.2-0.3-0.3-0.5-0.5c-3.7-2.8-5.8-6.6-6.8-11
			c-0.9-4.3-0.8-8.6,0.1-12.9c0.8-3.7,1.9-7.5,2.8-11.2c0.4-1.5,0.8-3,1.2-4.6c0.2-0.5,0.4-1.1,0.6-1.6c0.7-1.1,1.8-1.4,2.9-0.7
			c0.6,0.4,1.1,0.9,1.5,1.4c1.1,1.3,2.3,2.6,3.4,4c3.8,4.9,7.3,10,9.6,15.8c0.9,2.2,1.6,4.4,2.1,6.9c0.2-0.4,0.3-0.6,0.3-0.8
			c1.9-6.2,4.2-12.2,7-18c0.8-1.6,1.7-3.2,2.7-4.8c0.9-1.4,2-2.6,3.4-3.5c0.7-0.5,1.4-0.8,2.3-0.9c1.6-0.2,2.9,0.9,3,2.4
			c0,0.7-0.1,1.5-0.3,2.1c-0.5,1.5-1.1,3-1.8,4.4c-3.2,6.3-5.9,12.8-8,19.6c-1.6,5.3-2.7,10.6-3.3,16.1c0,0.1,0,0.3,0,0.6
			c0.2-0.3,0.3-0.5,0.4-0.6c1.1-2.4,2.2-4.7,3.3-7.1c0.2-0.4,0.3-0.7,0.5-1.1c0.8-1.5,2.5-1.9,3.7-0.4c0.1-0.1,0.2-0.2,0.3-0.3
			c1.2-1.8,2.8-3.2,4.4-4.5c2.4-1.9,4.9-3.8,7-6.1c0.9-1,1.8-1.9,2.7-2.9c1.6-1.8,3-1.7,4.4,0.2c1.4,2.1,2.3,4.5,3,6.9
			c0.4,1.6,0.7,3.2,0.6,4.9c-0.1,3-1.3,5.6-2.8,8c-0.3,0.5-0.6,0.9-0.9,1.4c0.1,0.1,0.1,0.2,0.1,0.2c1.5,0.7,1.9,1.8,1,3.3
			c-0.7,1.2-1.6,2.1-2.7,2.9c-3.8,2.7-7.8,4.8-12.4,6c-0.6,0.2-1.3,0.4-1.9,0.6c0.1,0.3,0.1,0.4,0.2,0.6c0.5,1.2,0.2,2.3-1,2.9
			c-0.8,0.4-1.7,0.8-2.6,1c-2.4,0.6-4.7,0.6-7.1-0.1c-0.1,0-0.2,0-0.3,0c0,0.2-0.1,0.4,0,0.6c0.3,3.2,1.1,6.3,2.3,9.3
			c0.6,1.5,1.4,2.8,2.4,4c2.2,2.6,5.1,3.2,8.1,1.5c2-1.1,3.7-2.6,5.4-4.1c1.8-1.7,3.3-3.7,4.7-5.7c3.4-4.8,6.7-9.7,10.1-14.5
			c3.5-5,6.9-10.1,10.4-15.1c1.2-1.8,2.6-3.5,3.8-5.3c0.3-0.4,0.4-0.7,0.4-1.2c0.4-6.6,1.5-13.1,3.7-19.3c1.7-4.6,4.1-8.6,7.9-11.8
			c3.1-2.7,6.6-4.3,10.7-4.4c3.9-0.1,7.4,1.1,9.9,4.3c0.2,0.3,0.4,0.5,0.7,0.9c0.2-0.7,0.3-1.4,0.4-2c0.2-1,0.4-2.1,0.8-3.1
			c0.3-0.7,0.7-1.4,1.2-2c1.5-1.7,4-1.4,5.3,0.4c0.6,0.9,0.9,2,0.8,3.1c-0.1,2-0.3,4.1-0.7,6.1c-1,6.5-2.2,12.9-3.2,19.4
			c-0.7,4.7-1.1,9.4-1.6,14.1c-0.4,4-0.6,8.1-0.5,12.2c0.2,5,0.6,9.9,1.8,14.8c0.4,1.6,0.9,3.1,1.5,4.7c0.3,0.7,0.7,1.3,1.2,1.9
			c0.4,0.5,0.9,0.5,1.4,0.1c0.4-0.3,0.7-0.6,0.9-0.9c1.2-1.5,2.2-3.2,2.9-5c1.9-4.7,3.4-9.5,4.9-14.4c1.7-5.6,3.3-11.2,5-16.9
			c0.1-0.4,0.2-0.9,0.2-1.3c0-5.3,0.3-10.5,0.7-15.8c0.2-3.2,0.5-6.3,0.8-9.5c0.1-1.1,0.4-2.2,0.7-3.2c0.2-0.6,0.5-1.2,0.9-1.6
			c1.5-1.9,4.3-1.7,5.5,0.5c0.3,0.6,0.6,1.3,0.6,2.1c0.1,1,0.1,2,0.1,2.9c-0.2,4.1-0.5,8.1-0.6,12.2c-0.2,4.3-0.4,8.6-0.4,12.9
			c0,2.6,0.4,5.2,0.6,7.8c0,0.1,0.1,0.2,0.2,0.4c0.2-0.4,0.3-0.7,0.4-0.9c1.3-3.6,2.5-7.1,3.8-10.7c1.8-5.2,3.6-10.4,5.8-15.5
			c3.4-7.5,7.3-14.6,12.1-21.3c1-1.4,2.1-2.6,3.1-3.9c0.8-1,1.8-1.8,2.9-2.4c3.3-1.6,6.8-0.4,8.3,3c0.5,1.2,0.8,2.5,0.9,3.7
			c0.2,2.8,0,5.7-0.5,8.5c-1.4,9-2.9,18-4.4,27.1c-0.2,1.3-0.4,2.7-0.5,4c0.1-0.3,0.3-0.7,0.4-1c3.1-8.2,6.6-16.2,10.6-23.9
			c1.9-3.5,3.9-7,6.5-10.1c1.2-1.5,2.5-2.9,4-4c1-0.8,2.1-1.4,3.4-1.5c2.2-0.3,4,0.5,5.3,2.2c1.1,1.4,1.6,3.1,1.8,4.8
			c0.3,2.8,0,5.6-0.3,8.4c-0.8,6.9-2.4,13.7-3.8,20.5c-1.6,7.9-3.3,15.7-4.6,23.7c-0.8,4.9-1.5,9.8-1.7,14.7c-0.3,5,0,10,1.5,14.9
			c0.1,0.4,0.2,0.7,0.4,1.2c0.3-0.3,0.6-0.6,0.8-0.8c1.2-1.4,2.1-3,3-4.6c2-3.7,3.6-7.6,5.3-11.5c1.3-3,2.6-6,3.9-9
			c0.2-0.5,0.3-1,0.2-1.6c-0.4-4.5-0.1-8.9,0.5-13.3c0.6-4.3,1.6-8.6,2.8-12.8c0.2-0.6,0.1-1-0.3-1.5c-3.6-4.5-5.5-9.6-6.1-15.2
			c-0.5-5.3,0.6-10.4,3.1-15.1c2.4-4.5,6-7.8,10.9-9.4c5.4-1.8,10.3-0.7,14.7,2.7c4,3.1,6.8,7.2,8.9,11.7c1.6,3.4,2.6,7,3.1,10.8
			c0,0.2,0,0.3,0.1,0.5c0,0.1,0.1,0.2,0.1,0.6c0.3-0.4,0.4-0.7,0.6-0.9c2.7-4.8,4.6-10,5.7-15.3c0.5-2.1,0.7-4.2,1.1-6.3
			c0-0.3,0-0.6,0-0.9c-1.3,0.2-2.6,0.3-3.9,0.4c-2.4,0.2-4.7,0-7-0.7c-5.4-1.7-8.5-5.6-9.5-11.1c-0.3-1.6-0.3-3.3,0.1-4.9
			c1.2-4.4,4.1-7.1,8.4-8.2c4.1-1,7.5,0.5,10.1,3.7c2.3,2.8,3.7,6.1,4.4,9.6c0.3,1.4,0.4,2.9,0.6,4.4c0,0.3,0.1,0.6,0.1,0.9
			c1.5-0.1,2.9-0.2,4.3-0.3c1.9,0,3.8-0.2,5.7,0.1c4.1,0.5,6.7,3.3,7.1,7.5c0.2,2.2-0.2,4.3-0.7,6.5c-0.9,3.6-1.9,7.1-2.7,10.7
			c-1.2,5.3-2.2,10.5-3.2,15.8c-1.1,5.6-1.9,11.2-2.6,16.9c-0.7,5.6-0.9,11.3-0.8,17c0,1.8,0.3,3.5,0.5,5.3c0.1,0.5,0.2,0.9,0.4,1.5
			c0.4-0.3,0.8-0.5,1-0.8c0.7-0.9,1.5-1.7,2.2-2.6c2.1-2.9,3.7-6,5.1-9.3c1.1-2.6,2.2-5.2,3.3-7.8c0.2-0.4,0.3-0.9,0.2-1.3
			c-0.4-4.3-0.3-8.6,0.2-12.8c0.6-5.3,1.6-10.5,3.1-15.6c1-3.5,2.3-6.8,4-10c1.1-2.1,2.5-4.1,4.1-5.9c2.3-2.5,5-4.4,8.2-5.3
			c1.6-0.4,3.2-0.6,4.9-0.2c2.2,0.5,3.9,1.6,5.2,3.4c1.8,2.4,2.8,5.1,3.2,8.1c1.1,8.8-2.4,15.8-8.9,21.5c-2.8,2.5-6.1,4.1-9.8,4.7
			c-1.5,0.3-3.1,0.3-4.6,0.2c-0.3,0-0.7,0-1.1-0.1c-0.1,1.1-0.2,2.1-0.3,3.1c-0.4,5.9,0.1,11.8,2,17.5c0.8,2.5,2,4.8,3.6,6.8
			c0.8,1,1.6,2,2.9,2.5c1.7,0.7,3.3,0.5,5-0.1c1.2-0.4,2.4-1.1,3.3-2c1.3-1.1,2.5-2.3,3.7-3.6c4.1-4.7,7.7-9.8,11.3-14.9
			c0.6-0.8,1.1-1.7,2-2.2c0.2-0.1,0.3-0.2,0.5-0.3c1.2-0.6,2.3,0.2,2.3,1.5c-0.1,0.9-0.4,1.8-0.9,2.6c-1.1,1.6-2.2,3.3-3.4,4.9
			c-3.3,4.7-6.7,9.3-10.7,13.5c-1.6,1.6-3.2,3.1-5.1,4.3c-2.1,1.3-4.4,2.1-6.9,2.3c-3.2,0.3-6.1-0.6-8.6-2.5
			c-2.8-2.2-4.8-5.2-6.1-8.5c-0.6-1.6-1.1-3.3-1.7-5.1c-0.1,0.3-0.3,0.6-0.4,0.8c-1.3,2.8-2.5,5.6-3.8,8.4c-0.9,1.9-2,3.8-3.3,5.5
			c-0.5,0.7-1.1,1.3-1.7,1.9c-0.5,0.5-1.1,1-1.7,1.4c-2.2,1.4-4.4,1.2-6.4-0.6c-1.4-1.3-2.4-2.9-3-4.6c-0.9-2.4-1.4-5-1.7-7.5
			c-0.3-3-0.2-5.9,0-8.9c0.5-8,1.6-16,3.2-23.9c1.1-5.5,2.1-11,3.3-16.4c1-4.2,2.2-8.4,3.3-12.6c0.3-1.3,0.6-2.7,0.9-4
			c0.4-1.7-0.1-2.4-1.8-2.7c-0.9-0.1-1.9-0.1-2.8,0.1c-1.7,0.3-3.5,0.7-5.2,1c-0.2,1.5-0.4,2.9-0.7,4.3c-1.4,8.2-4,16.1-8.5,23.2
			c-0.9,1.5-1.3,2.9-1.3,4.6c-0.1,10.6-2,20.9-6.3,30.6c-1.9,4.4-4.3,8.5-7.4,12.1c-1.3,1.5-2.7,2.9-4.3,4
			c-3.7,2.5-7.6,2.7-11.5,0.8c-3-1.5-5.2-3.7-6.7-6.7c-0.1-0.3-0.3-0.6-0.5-1c-0.2,0.5-0.4,0.9-0.5,1.2c-1.9,5.2-3.8,10.4-6.1,15.5
			c-1.1,2.4-2.2,4.8-3.9,6.9c-0.6,0.8-1.3,1.6-2.1,2.3c-2.3,1.9-5.4,1.7-7.5-0.4c-1.6-1.5-2.5-3.5-3.1-5.5c-0.9-2.9-1.2-5.8-1.4-8.8
			c-0.3-4.9,0.1-9.8,0.7-14.6c1.3-10.3,3.4-20.4,5.5-30.5c1.2-5.7,2.3-11.4,3.4-17.1c0.6-3.4,1-6.8,1.1-10.2
			C252.4,191.5,252.4,190.6,252.3,189.5z M139.8,227.5c0.1,1.1,0.2,3.1,0.4,5.1c0.4,3.9,1.4,7.6,3,11.2c0.4,0.9,1,1.8,1.7,2.6
			c0.9,1.1,1.8,1.2,3.1,0.5c0.5-0.3,1-0.6,1.3-1c0.9-1,1.9-2,2.6-3.1c1-1.5,2-3.2,2.8-4.8c1.7-3.6,3.3-7.3,4.8-11
			c0.2-0.4,0.2-1,0.3-1.5c0.5-4.3,1-8.6,1.6-12.8c0.7-4.6,1.5-9.3,2.3-13.9c0.1-0.4,0-0.8-0.2-1.2c-0.9-1.7-2-3.1-3.7-4.1
			c-0.7-0.4-1.5-0.8-2.4-0.9c-1.6-0.3-3.2,0-4.7,0.6c-2,0.9-3.6,2.2-5,3.9c-1.6,2-2.8,4.2-3.7,6.6
			C141.3,211.1,139.9,218.7,139.8,227.5z M272,210.4c0.6-1,1-1.8,1.5-2.6c0.5-0.8,1.1-1.5,1.9-2c2.6-1.5,5.7,0.3,5.7,3.2
			c0,0.8-0.2,1.6-0.5,2.3c-0.4,1.2-1,2.3-1.4,3.4c-0.4,0.9-0.7,1.7-1,2.7c0.4,0.2,0.6,0.3,0.9,0.5c2.7,1.4,5.6,1.6,8.6,0.9
			c4.5-1.1,8.2-3.6,11.3-7.1c0.3-0.3,0.4-0.6,0.3-1c-0.3-2.3-0.4-4.6-0.8-6.8c-1-5.4-3.3-10.2-7-14.4c-1.2-1.4-2.6-2.7-4.2-3.6
			c-3-1.8-6-1.9-9-0.2c-1.7,1-3,2.3-4,3.9c-1.1,1.8-2,3.6-2.7,5.6c-0.7,2.1-1.2,4.2-1.2,6.4C270,204.6,270.6,207.5,272,210.4z
			 M275.7,225.1c-0.3,1.1-0.5,2.1-0.8,3.1c-1.3,5.3-2.1,10.6-1.9,16.1c0.1,2.5,0.4,5,1.3,7.4c0.6,1.8,1.6,3.4,3.1,4.6
			c1.7,1.3,3.5,1.6,5.4,0.5c0.6-0.3,1.2-0.7,1.7-1.1c1.4-1,2.6-2.2,3.6-3.6c3.4-4.1,5.8-8.8,7.5-13.9c1.4-4.2,2.3-8.5,2.8-12.9
			c0.3-2.5,0.5-5.1,0.7-7.6c0-0.5,0.1-1-0.1-1.6c-0.6,0.6-1.1,1.1-1.6,1.5c-2.6,2.4-5.4,4.4-8.6,6
			C284.8,225.7,280.4,226.2,275.7,225.1z M342.2,221.4c1.1,0,2,0.1,3,0c3.6-0.1,6.8-1.1,9.6-3.5c4.9-4.2,7.6-9.6,8-16
			c0.1-2.4-0.4-4.8-1.4-7c-0.5-1-1.1-1.9-1.9-2.6c-0.8-0.7-1.8-1-2.8-0.7c-0.5,0.2-1.1,0.4-1.6,0.7c-1.2,0.7-2.1,1.6-3,2.7
			c-1.9,2.3-3.5,4.9-4.7,7.6c-2.5,5.5-4,11.3-4.9,17.2C342.3,220.3,342.3,220.8,342.2,221.4z M310.3,177.1c-0.1-0.8-0.2-1.5-0.3-2.2
			c-0.5-3.4-1.5-6.6-3.5-9.4c-0.4-0.6-0.8-1.1-1.4-1.6c-2.4-2-5.9-1.2-7.1,1.8c-0.2,0.6-0.4,1.3-0.4,1.9c-0.1,3.4,1.1,6.1,4.2,7.8
			C304.4,177,307.2,177.3,310.3,177.1z"/>
		<path class="st103" d="M139.5,295.2c-3.6-3.7-5.1-8.1-5.5-13c-0.1-1.8-0.3-3.5-0.3-5.3c0-1.3,0.3-1.8,1.6-2.3
			c0.1-0.3,0.1-0.7,0.2-1.1c0.3-1.2,0.6-2.3,0.9-3.5c0.7-2.5,1.5-5,2.3-7.5c0.1-0.5,0.3-1,0.5-1.4c0.6-1.2,1.7-1.4,2.7-0.5
			c0.2,0.2,0.4,0.4,0.6,0.6c1.4,1.5,2.8,3,4.1,4.6c1.2,1.3,2.4,2.6,3.4,4c1.6,2.1,2.8,4.4,3.7,6.9c0.1,0.3,0.2,0.6,0.4,1.1
			c0.2-0.2,0.4-0.3,0.5-0.4c1-0.6,2.1-0.5,2.7,0.6c0.4,0.7,0.7,1.4,0.9,2.2c1.1,4.6,0.6,9.1-1,13.5c-0.8,2.1-1.9,4.2-2.8,6.3
			c-1,2.2-2,4.5-2.5,6.9c-0.3,1.6-0.3,3.1,0.2,4.7c0,0.1,0.1,0.2,0.1,0.4c0.2,0.8-0.1,1.4-0.7,1.8c-0.6,0.4-1.4,0.3-2-0.4
			c-0.3-0.3-0.6-0.7-0.8-1.1c-0.7-1.2-1.4-2.3-2-3.5c-1.3-2.5-3-4.8-5.1-6.8c-1.2-1.1-2.3-2.2-3.3-3.4c-1-1.2-0.8-2.2,0.5-3
			C139.2,295.3,139.3,295.3,139.5,295.2z"/>
		<path class="st103" d="M198.1,287c3.3-1.9,6.9-2.4,10.5-3c0.2,0,0.4-0.1,0.6-0.1c1.3-0.3,2.4,0.1,3.1,1.4c1.7,0.1,3.4,0.2,5.1,0.2
			c1.3,0,2.5,0,3.8-0.1c2.4-0.1,3.4,0.9,2.9,3.2c-0.3,1.3-0.6,2.6-1,3.8c-1.1,3.5-3.3,6-6.6,7.7c-0.7,0.4-1.4,0.7-2.1,1
			c0,0.1,0,0.2,0.1,0.3c0.7,1.1,0.6,2-0.2,2.9c-0.5,0.6-1.2,1-1.8,1.5c-2,1.3-4.4,1.8-6.7,2.3c-3.8,0.8-7.4,0-10.9-1.4
			c-1.3-0.5-2.5-1.1-3.8-1.6c-1-0.4-2-0.7-3-0.9c-1.2-0.3-2.4,0-3.6,0.4c-0.8,0.2-1.5,0.6-2.3,0.8c-0.4,0.1-0.9,0.2-1.4,0.3
			c-0.6,0-1.1-0.3-1.4-0.9c-0.3-0.6-0.2-1.2,0.2-1.7c0.2-0.2,0.4-0.4,0.6-0.6c1.1-0.9,2.3-1.7,3.4-2.6c0.5-0.4,1-1,1.5-1.4
			c3.2-3.2,5.9-6.9,8.7-10.6c0.4-0.5,0.7-1,1.1-1.4c1.1-1.1,2.2-1,3.2,0.3C198,286.9,198.1,286.9,198.1,287z"/>
	</g>
	<g>
		<path class="st104" d="M138.8,128.5c-4.2-4.5-8.4-2.1-13.1-3.7c-4.2-1.5-4.1-10.3-11.3-4.8c2.8,1.6,5.4,4,7.6,6.4
			c0.5,0.5,0.8,1.3,1.1,1.9c0.7,1.3,1.3,2.6,1.9,3.9c0.6,1.4,1.2,2.9,1.7,4.4c0.2,0.6,0.4,1.3,0.5,1.9c0.1,0.6,0,1.2,0.1,1.8
			c0,0.1,0.1,0.3,0.1,0.4c0.4,0.7,1.3,0.2,1.9,0c0.7-0.2,1.5-0.4,2.2-0.6c1.7-0.4,3.4-0.4,5.1,0.3c2.2,0.9,4.5,3.2,6.4,4.8
			C143.6,139.8,142.9,132.9,138.8,128.5z"/>
		<path class="st104" d="M75.5,152c2.8-14.9,14.2-22.1,27.7-16c4.1,1.9,13.8,8.9,17.7,7.7c8.8-2.9,2.1-13.4-2-17.5
			c-9.1-9-13.6-4.8-23.3-0.4c-2,0.9-3.3-0.1-5.2,0.6c-6.1,2.2-11.8,5.7-15.4,11.4c-3.8,5.9-4.9,13.7-0.1,19.6
			C74.9,155.6,75.1,153.8,75.5,152z"/>
		<path class="st104" d="M76.6,176.3c-1.8-4.1,0-9.1-1.9-13.5c-2-4.6-5.7-7.7-6-13.4c-16.2,9-9.2,24.2,3.7,31.5
			c5.5,3.1,10.2,7.8,16.9,8.9C84.4,186.8,78.9,181.8,76.6,176.3z"/>
		<path class="st104" d="M90.8,136.3c-10.6,2.7-13.9,17.2-12.6,26.6c1,7.6,5.3,13.3,13.3,14.4c3.5,0.5,12,0.5,14.2-1.1
			c-10.4,0.1-18.2-8.3-19-18.1c-0.6-6.9-0.1-18.3,6.6-22.2C92.5,135.8,91.6,135.9,90.8,136.3z"/>
		<path class="st104" d="M142.5,149c-8.5-9.7-13.1-6.9-22.6-2.1c6.2,9.2,26.7,13,17.7,28.6c-5.4,9.3-20.8,17-31.2,17.5
			c9.2,5.5,26.9,0.5,32.8-8.9c3.2-5.2,1.2-11.2,3.2-16.1C145.6,160.4,150.3,157.3,142.5,149z"/>
		<path class="st104" d="M106.7,189.9c6.2-0.1,12.6-1.6,17.7-5.3c3.5-2.5,9.9-6.4,12.1-9.8c6.3-9.9-6.9-17.8-14.4-21.1
			c1.8,20.9-28.8,35.3-43.2,19.6c-0.3,5.7,11,14.1,15.9,15.7C98.2,190.2,103.1,190,106.7,189.9z"/>
		<path class="st104" d="M113.4,144.4c-3.2-2.8-4.6-1.1-7.6-2.3c-2.2-0.9-5.1-3.8-7.3-4.2c-8.4-1.2-9.9,12.4-5.9,17.4
			c1.7-11,13.4-9.2,18.2-1.2C111.4,152.4,114.2,145.1,113.4,144.4z"/>
		<path class="st104" d="M104.4,150.6c-1.7-0.9-2.1-0.2-2.9,0.7c3.7,0.8,4.9,3.6,6.6,5C107.4,152.9,106.3,151.7,104.4,150.6z"/>
		<g>
			<path class="st104" d="M105,155.2c-3.7-4.7-11.4-0.7-7.5,4.6c1.9-2.4,7.3-1.8,9.5-0.9C107.5,158.3,105.5,155.7,105,155.2z"/>
		</g>
		<path class="st104" d="M100,160.5c-1.3,0,1,4.6,3.7,0.8C102.9,159.5,100.8,160.5,100,160.5z"/>
		<path class="st104" d="M119.3,157.7c0.8-4-0.3-9.5-3.7-12c-1.2,5.6-3.2,10.9-7.2,15c-8.1,8.4-12.6,3.6-18.6-3.5
			c-0.5,7.1,2.8,11.2,9,13.9C110,176.1,116.8,167.9,119.3,157.7z"/>
	</g>
</g>
</svg>
