<?xml version="1.0" encoding="utf-8"?>
<!-- Generator: Adobe Illustrator 21.1.0, SVG Export Plug-In . SVG Version: 6.00 Build 0)  -->
<svg version="1.1" id="Calque_1" xmlns="http://www.w3.org/2000/svg" xmlns:xlink="http://www.w3.org/1999/xlink" x="0px" y="0px"
	 viewBox="0 0 432 432" style="enable-background:new 0 0 432 432;" xml:space="preserve">
<style type="text/css">
	.st0{fill:#E94E1B;}
	.st1{fill:#F39200;}
	.st2{fill:#010202;}
	.st3{fill:#FFE564;}
	.st4{fill:#B2B2B2;}
	.st5{fill:#C6CAD2;}
	.st6{fill:#662483;}
	.st7{fill:#D2E0E9;}
	.st8{fill:#95C11F;}
	.st9{fill:#3AAA35;}
	.st10{fill:#432918;}
</style>
<g>
	<path class="st4" d="M367.7,154.7c-36.1,45.2-79.5,34.1-67.1,15.5c36-53.7,2.7-46.2-8.8-96.1c-2.5,37.4-39.4,36-41.5,56
		c-1.2,10.8,9.9,20.3,8.3,31.1c-5.8,38.9-35-8.5-40.5-14.4c-16.9-18.1-30.4-23.5-55.1-21.9c23.6,25.1,9.3,48.9,17.7,48.9
		c11.7,0.1,8.7-10.7,16.4,17.1c1.6,5.8,7.9,3,9.5,2.7c6.8,27.2,16.4,25.1,23.2,10.5c3.9,16.2,7.8,33.2,3.1,49.2
		c-6.7,23-51.5,61.5,7.9,104.6c-5.5-24.4,10.3-51.8,34.2-59.3c29.9-9.4,36.4-4.2,28.3-71.9l26.4,34.5c9.2,12.1,9.3-17,15.1-22.6
		c6.1-5.9,8.5-1.5,9.7-19C356.8,186.3,396.2,249.6,367.7,154.7z M283.9,159c-0.8,2.3-3.1,3.6-5,2.9c-1.9-0.7-2.8-3.1-2-5.4
		c0.8-2.3,3.1-3.6,5-2.9C283.8,154.2,284.7,156.7,283.9,159z M284.1,134.5c-2,7-8.4,11.3-14.3,9.6s-9-8.7-7-15.8
		c2-7,8.4-11.3,14.3-9.6C283,120.4,286.1,127.5,284.1,134.5z M293.9,151.1c-5.9-1.7-9-8.7-7-15.8c2-7,8.4-11.3,14.3-9.6
		s9,8.7,7,15.8C306.2,148.5,299.8,152.8,293.9,151.1z"/>
	
		<ellipse transform="matrix(0.2771 -0.9608 0.9608 0.2771 65.2137 361.0103)" class="st4" cx="272.5" cy="137.2" rx="4.1" ry="4.1"/>
	
		<ellipse transform="matrix(0.2771 -0.9608 0.9608 0.2771 75.9542 389.1898)" class="st4" cx="296.6" cy="144.1" rx="4.1" ry="4.1"/>
</g>
<g>
	<path class="st5" d="M69.4,248.3c0.2,0.2,0.3,0.5,0.5,0.7c0.1,0.2,0.6,1.2,0.8,1.2c0.3,0.1,1.1-1,1.5-1.6c-0.5-0.6-1-1.2-1.4-1.8
		C70.3,247.3,69.9,247.8,69.4,248.3z"/>
	<path class="st5" d="M195.8,208.6c-16.3-21-34.7-32.7-51.6-12c-0.1-0.8,1.4-29.8-16.7-36.8c-12.4-4.8-37.1,3.9-24.1,42.7
		c-0.7-2-9.7-4.2-11.7-4.7c-3.4-0.9-6.9-1.4-10.4-1.1c-5.7,0.5-10.7,3.2-14.3,7.5c-11.7,13.6-20.7,68.5-2.8,67.2
		c14.7-1.1,25.4-5.8,33.5-20.7c1.5,7,16,49.4,64.6,53.4c67.2,5.6,22.1-3.8-1.9-53.8C153.5,236,241.9,268.3,195.8,208.6z M76.7,251.8
		c-0.8,0.3-1.7-0.7-2.3-1c-0.6-0.3-0.5-0.5-1.2-0.3c-0.3,0.1-0.8,0.8-1.1,1.3c0.8,0.6,1.9,1.3,1.2,2.3c-0.3,0.5-0.6,0.5-1.1,0.4
		c-1.2-0.2-1.1-1.2-2.4-0.4c-0.7,0.5-2.2,2.3-2.8,0.7c-0.4-1.3,1.4-2.3,2.3-3c-0.3-0.5-0.6-1.2-1-1.4c-0.8-0.6-1.4,0.8-2,1.4
		c-0.4,0.5-0.9,1.3-1.7,0.9c-1.6-0.9,1.1-3.5,2.1-4.5c-0.5-0.6-1.2-1.5-0.4-2.2c0.5-0.4,0.7-0.2,1.2-0.1c0.7,0.2,0,0.6,1,0.4
		c0.3-0.1,0.7-0.6,1.1-1c-0.5-0.7-1.3-1.7-0.7-2.5c1.1-1.3,1.6,0.9,2.4,0.7c0.7-0.1,1.8-2.1,2.4-0.4c0.4,1-0.8,1.8-1.5,2.4
		c0.3,0.4,0.6,0.8,0.9,1.2c0.4,0.2,0.7,0.1,0.8-0.3c0.3-0.2,0.3-0.6,0.7-0.7c0.3-0.1,0.6,0,0.8,0.2c0.9,0.8,0,1.9-0.6,2.6
		c0.6,0.5,1.3,1,2,1.4c0,0,0,0,0,0c0,0,0,0,0,0C77.6,250.4,77.6,251.5,76.7,251.8z M126.8,179.4c3,0,3.5,5.5,3.5,7.5
		c0,2.3-0.5,7-3.4,7.5c0,0-0.1,0-0.1,0c-3-0.3-3.5-5.2-3.5-7.5C123.3,184.9,123.8,179.4,126.8,179.4z M122.3,199.6
		c2.2,0,4.7,1.4,4.7,3.8c0,2.5-2.6,3.7-4.8,3.8c-2.2-0.1-4.9-1.4-4.7-4C117.8,200.9,120.2,199.6,122.3,199.6z M111.1,188.8
		c0-2.3,0.5-7,3.4-7.5c0,0,0.1,0,0.1,0c3,0.3,3.5,5.2,3.5,7.5c0,2-0.5,7.5-3.5,7.5C111.6,196.3,111.1,190.8,111.1,188.8z
		 M156.8,297.4c-0.5,0.4-1.1,0.2-1.6,0c-0.8-0.3-1.7-0.7-2.6-0.9c-1.1-0.2-1.3,0.1-1.8,1c-0.4,0.6-1.5,3-2.4,1.5
		c-0.7-1,0.7-2.6,1.4-3.6c-1-0.4-2-0.9-3-1.4c-0.8-0.4-2.2-1.6-3.1-1.4c-1.2,0.2-1.3,2.7-2.6,2.7c-2.1,0-0.1-2.9,0.8-4.1
		c-0.8-0.5-1.6-1.1-2.4-1.6c-0.8-0.6-2-2-3.1-1.6c-0.9,0.3-1.5,2-2.6,1.6c-1.9-0.7,0.4-2.5,1.4-3.3c-0.8-0.7-1.6-1.3-2.4-2.1
		c-0.6-0.5-1.5-1.8-2.2-2c-1.5-0.5-1.9,2.2-3.3,1.8c-2-0.5,0.4-2.8,1.4-3.7c-0.7-0.8-1.4-1.5-2.1-2.3c-0.5-0.6-1.2-1.9-1.9-2.2
		c-1.3-0.6-1.8,1.4-3,1c-2-0.6,0.4-2.4,1.4-3.1c-0.6-0.8-1.3-1.6-1.9-2.5c-0.3-0.4-0.9-1.6-1.3-1.8c-1.4-0.7-2.4,1.9-3.7,1.2
		c-1.8-1.1,1-2.7,2.2-3.3c-0.7-1-2.1-2.7-1.3-3.7c0.3-0.4,0.7-0.4,1.2-0.3c0.6,0.3,0.8,1.3,1.1,1.7c0.7,0.8,0.7,0.9,1.8,0.5
		c0.7-0.3,3.5-2.7,3.7-0.5c0,0.5-0.2,0.7-0.5,1c-0.7,0.8-2.1,1.3-3.1,1.8c0.8,1.4,2.6,4.5,3.8,4.3c0.8-0.1,1-1.5,2-1
		c1.4,0.8-0.2,2.2-1.1,2.9c1.1,1.4,2.3,3.2,3.7,4.1c1.4,0.9,1.6-1.2,2.9-0.8c1.7,0.5,0.1,2.1-0.8,2.9c0.8,0.8,1.6,1.5,2.4,2.2
		c0.6,0.5,1.5,1.7,2.3,2c1.4,0.5,2-1.8,3.3-1.4c1.8,0.6-0.2,2.3-1.2,3.1c1.3,1.1,3.9,3.4,5,2.8c0.8-0.4,1-2.2,2.1-2.1
		c2,0.1,0.1,2.6-0.7,3.6c0.8,0.5,1.7,1,2.6,1.4c0.9,0.4,2.1,1.3,3.1,1.4c1.4,0.1,1.4-1.9,2.6-2.1c0.6-0.1,1,0.4,1,1
		c0.1,0.8-0.5,1.5-1.1,2.1c1.1,0.4,2.3,0.8,3.4,1.1c0,0,0.1,0,0.1,0.1C157.1,296,157.4,296.9,156.8,297.4z M188.9,228.2
		c-0.5,1.3-1.4,0.3-2.2-0.2c-1.1-0.6-0.7,0.2-1.5,0.4c-0.4,0.1-0.9,0-1.1-0.3c-0.5-0.6,0-1.3,0.4-1.9c-0.6-0.6-1.3-1.2-2-1.7
		c-0.9-0.6-0.8-0.6-1.7-0.2c-0.6,0.3-0.8,1-1.5,0.4c-1-0.8,0-1.8,0.7-2.5c-0.6-0.5-1.2-1.1-1.7-1.6c-0.8-0.8-1.1-1.4-2.1-0.6
		c-0.6,0.5-1,1.6-1.9,1c-1.2-0.9,0.3-2.4,1.1-3.2c-0.6-0.6-1.2-1.4-1.8-1.9c-0.3-0.6-0.7-0.8-1.3-0.6c-0.4,0.4-0.7,0.8-1.1,1.1
		c-0.5,0.5-1,1.2-1.7,0.6c-1.2-1.1,0.8-2.8,1.8-3.6c-0.7-0.7-1.9-1.7-1.4-2.7c0.7-1.5,1.6,0.1,2.2,0.5c1.1,0.8,1.1-0.2,2-0.2
		c0.4,0,0.8,0.2,1,0.6c0.3,0.8-0.3,1.4-0.9,1.8c0.6,0.7,1.1,1.4,1.8,1.9c0.9,0.7,0.9,0.8,1.9,0.2c0.5-0.3,0.9-0.6,1.4-0.1
		c0.9,0.8-0.2,1.8-0.9,2.4c0.6,0.5,1.1,1.1,1.7,1.6c0.9,0.9,1.1,1.3,2.3,0.5c0.5-0.4,0.9-1.1,1.6-0.5c1,0.9-0.2,2-1,2.7
		c0.6,0.5,1.1,1.1,1.8,1.5c1,0.6,0.9,0.6,1.6-0.2c0.3-0.4,0.6-0.8,1.2-0.6c1.3,0.5,0.3,1.9-0.3,2.8
		C188.1,226.3,189.4,227.1,188.9,228.2z"/>
</g>
</svg>
