<?xml version="1.0" encoding="utf-8"?>
<!-- Generator: Adobe Illustrator 21.1.0, SVG Export Plug-In . SVG Version: 6.00 Build 0)  -->
<svg version="1.1" id="Calque_1" xmlns="http://www.w3.org/2000/svg" xmlns:xlink="http://www.w3.org/1999/xlink" x="0px" y="0px"
	 viewBox="0 0 432 432" style="enable-background:new 0 0 432 432;" xml:space="preserve">
<style type="text/css">
	.st0{fill:#E94E1B;}
	.st1{fill:#F39200;}
	.st2{fill:#010202;}
	.st3{fill:#FFE564;}
	.st4{fill:#B2B2B2;}
	.st5{fill:#C6CAD2;}
	.st6{fill:#662483;}
	.st7{fill:#D2E0E9;}
	.st8{fill:#95C11F;}
	.st9{fill:#3AAA35;}
	.st10{fill:#432918;}
</style>
<g>
	<path d="M311.3,274.2c-8.8,17.8-24.1,31.7-41.1,42c-13.2,8-27.4,14-41.7,19.6c-0.1-0.1-0.2-0.3-0.3-0.4c1-4,2.6-10.8,1.9-11.3
		c-0.7-0.6-5.5,3.9-7.9,6.3c-1.9-0.9-4-1.4-6.2-1.4s-4.3,0.5-6.2,1.4c-2.4-2.4-7.2-6.9-7.9-6.3c-0.7,0.6,0.8,7.3,1.9,11.3
		c-0.1,0.1-0.2,0.3-0.3,0.4c-14.4-5.6-28.6-11.6-41.7-19.6c-17-10.3-32.2-24.2-41.1-42c-6,24.8-15.8,48.7-28.9,70.6
		c6.7-6.7,15.3-21.2,30.2-14.8c9.5,4,11.7,16.4,11.8,26.8c2.5-7.2,8.5-13.9,16.2-14.3c7.6-0.4,12.4,5,11.5,14.9
		c7.2-8.7,12.6-13.3,20.9-10.8s10.9,10.7,11.5,20.5c2.6-6,6.4-10.2,10.7-12.3c4.6,6.3,11.4,11.7,11.4,11.7s6.9-5.4,11.4-11.7
		c4.3,2.1,8.1,6.3,10.7,12.3c0.6-9.8,3.2-18,11.5-20.5s13.7,2,20.9,10.8c-0.9-9.9,3.9-15.4,11.5-14.9c7.6,0.4,13.6,7.1,16.2,14.3
		c0-10.4,2.2-22.8,11.8-26.8c15-6.3,23.6,8.2,30.2,14.8C327.1,323,317.3,299.1,311.3,274.2z M211.2,346.1c-2.2,0-3.9-2.3-3.9-5.2
		c0-1.2,0.3-2.4,0.9-3.2c0.7-1.2,1.8-1.9,3-1.9c2,0,3.6,2,3.9,4.5c0,0.2,0,0.4,0,0.6C215.1,343.8,213.4,346.1,211.2,346.1z
		 M220.8,346.1c-2.2,0-3.9-2.3-3.9-5.2c0-0.2,0-0.4,0-0.6c0.2-2.5,1.9-4.5,3.9-4.5c1.2,0,2.3,0.8,3,1.9c0.6,0.9,0.9,2,0.9,3.2
		C224.7,343.8,222.9,346.1,220.8,346.1z"/>
	<circle cx="211.2" cy="343.4" r="1.7"/>
	<circle cx="220.7" cy="343.4" r="1.7"/>
</g>
<g>
	<path d="M280.5,74.7c-20.2-26.1-3.6,5.3-37.1,24.1c-14.6,8.2-6.9,11.2-13.5-16.7c-2.5-10.6-1.4-6.6-6.2-1.6
		c-1.1,1.2-14.2,1.2-15.3,0c-4.8-5-3.7-9.1-6.2,1.6c-6.6,27.9,1,24.9-13.5,16.7c-33.4-18.7-16.9-50.1-37.1-24.1
		c-9.3,11.9-16.7,28.4-13.5,62.2c8.1-34.1,23.9-5.9,23.9-5.9s5.9-7.3,16.8-1.8c5.2,2.6,8.5,7.9,9.7,13.5c12.6-21,23,14.9,27.6,22.2
		c4.6-7.3,15-43.2,27.6-22.2c1.2-5.5,4.6-10.9,9.7-13.5c10.9-5.6,16.8,1.8,16.8,1.8s15.9-28.2,23.9,5.9
		C297.2,103.1,289.8,86.7,280.5,74.7z M208.8,102.5c-3.3,0-5.9-3.5-5.9-7.7c0-1.9,0.5-3.5,1.3-4.9c1.1-1.7,2.7-2.9,4.5-2.9
		c3,0,5.5,3,5.8,6.8c0,0.3,0.1,0.6,0.1,1C214.7,99,212.1,102.5,208.8,102.5z M223.2,102.5c-3.3,0-5.9-3.5-5.9-7.7c0-0.3,0-0.6,0.1-1
		c0.4-3.8,2.8-6.8,5.8-6.8c1.8,0,3.5,1.1,4.5,2.9c0.8,1.3,1.3,3,1.3,4.9C229.1,99,226.4,102.5,223.2,102.5z"/>
	<circle cx="208.8" cy="98.4" r="2.5"/>
	<circle cx="223.1" cy="98.4" r="2.5"/>
</g>
<path d="M282.7,239.6c-2.4,0-4.8,0-7.2,0c-6.3-2.9-10.7-9.3-13.5-15.5c-3.6-7.9-5.2-16.8-3.6-25.3c1.7-1.7,3.4-3.4,5.1-5.1
	c0.6-0.6-0.3-1.4-0.9-0.9c-1.7,1.7-3.4,3.4-5.1,5.1c-14.1,3.7-35.4-2.1-40.8-17c0-2.5,0-5.1,0-7.6c0-0.8-1.2-0.8-1.2,0
	c0,2.5,0,5,0,7.5c-8.2,11.9-26.2,23.9-41,17c-1.8-1.8-3.6-3.6-5.3-5.3c-0.6-0.6-1.4,0.3-0.9,0.9c1.8,1.8,3.5,3.5,5.3,5.3
	c4.1,15.5-2.9,32-15.9,41c-2.9,0-5.7,0-8.6,0c-0.8,0-0.8,1.2,0,1.2c2.9,0,5.7,0,8.6,0c0,0,0.1,0,0.1,0c7.7,1.6,12,9.2,14.3,16.1
	c2.6,7.6,3.5,15.9,2.4,23.9c-2.1,2.1-4.2,4.2-6.3,6.3c-0.6,0.6,0.3,1.4,0.9,0.9c2.1-2.1,4.3-4.3,6.4-6.4c8.3-3.8,17.5-3.8,25.6,0.6
	c6.1,3.3,11.1,8.4,14.3,14.5c0,3.3,0,6.7,0,10c0,0.8,1.2,0.8,1.2,0c0-3.3,0-6.6,0-9.9c4.1-3.8,8.6-7.3,13.2-10.4
	c6.3-4.3,15.7-10.4,23.7-7.8c3,3,6,6,9.1,9.1c0.6,0.6,1.4-0.3,0.9-0.9c-3-3-6-6-9-9c-0.9-14.2,3.1-36.4,21.1-36.8
	c0.1,0,0.3-0.1,0.4-0.2c2.2,0,4.4,0,6.6,0C283.5,240.8,283.5,239.6,282.7,239.6z M260.7,223.9c2.6,5.9,6.6,12.2,12.3,15.7
	c-2.6,0-5.3,0-7.9,0c-5.3-2.4-8.9-7.6-11.2-12.7c-2.9-6.4-4.2-13.5-3-20.5c2.1-2.1,4.1-4.1,6.2-6.2
	C255.9,208.3,257.4,216.5,260.7,223.9z M216.8,238.8c0-4.4,0-8.9,0-13.3c2.2,2.7,6,4,9.5,3.8C223.2,232.4,220,235.6,216.8,238.8z
	 M227.3,230c-0.1,3.4,1,7.3,3.5,9.6c-4.4,0-8.7,0-13.1,0C220.9,236.4,224.1,233.2,227.3,230z M215.6,238.8c-3.1-3.1-6.2-6.2-9.2-9.2
	c3.4,0.3,6.9-1.9,9.2-4.5C215.6,229.6,215.6,234.2,215.6,238.8z M214.8,239.6c-4.2,0-8.5,0-12.7,0c2.5-2.5,3.6-5.9,3.3-9.4
	C208.5,233.3,211.6,236.5,214.8,239.6z M214.8,240.8c-2.8,2.8-5.6,5.6-8.4,8.4c0-3.1-1-6.5-3.3-8.4
	C206.9,240.8,210.8,240.8,214.8,240.8z M215.6,241.7c0,3.7,0,7.4,0,11.1c-2-2.5-4.8-3.6-7.9-3.2C210.4,247,213,244.3,215.6,241.7z
	 M216.8,241.7c2.5,2.5,5.1,5.1,7.6,7.6c-2.8,0.2-5.5,2.2-7.6,4C216.8,249.5,216.8,245.6,216.8,241.7z M217.7,240.8
	c3.8,0,7.6,0,11.5,0c-2.4,1.6-3.5,4.7-3.7,7.8C222.9,246,220.3,243.4,217.7,240.8z M232.9,239.6c-3.6-1.9-4.9-7.2-4.3-10.9
	c2-2,4-4,6-6c-0.5,5.8,1.2,13.4,6,16.9C238.1,239.6,235.5,239.6,232.9,239.6z M227.7,227.9c-3.8,0.8-9.3-0.8-10.9-4.6
	c0-2.7,0-5.4,0-8.1c3.4,5.2,10.8,7.6,16.9,6.8C231.7,223.9,229.7,225.9,227.7,227.9z M215.6,223.1c-2.3,3.2-6.8,6.3-10.8,4.8
	c-2-2-4-4-5.9-5.9c6.1,1.2,12.8-2.7,16.8-7.3C215.6,217.5,215.6,220.3,215.6,223.1z M203.9,228.7c0.9,4.1-0.3,8.3-3.7,10.9
	c-2.9,0-5.8,0-8.7,0c4.8-4.2,7-10.8,6.1-17.1C199.7,224.6,201.8,226.7,203.9,228.7z M200.3,240.8c0,0,0.1,0,0.1,0
	c3.9,1.1,4.9,6.2,4.7,9.7c-2.1,2.1-4.2,4.2-6.3,6.3c0.2-5.4-1.3-12.9-6-16C195.3,240.8,197.8,240.8,200.3,240.8z M206,251.3
	c4-1.6,7.5-0.1,9.6,3.6c0,2.4,0,4.9,0,7.3c-3.6-4.9-9.6-6.6-15.4-5.1C202.2,255.1,204.1,253.2,206,251.3z M216.8,255
	c2.2-2,5.8-5.1,9-4.3c1.9,1.9,3.7,3.7,5.6,5.6c-5.1-0.3-10.7,3.6-14.6,6.7C216.8,260.3,216.8,257.6,216.8,255z M226.7,249.8
	c-0.1-4,1.4-8.7,6-9c1.8,0,3.6,0,5.4,0c-4.4,2.8-5.7,9.5-5.6,14.8C230.6,253.7,228.6,251.8,226.7,249.8z M243,239.6
	c0,0-0.1-0.1-0.1-0.1c-6.2-2.8-7.9-12.2-6.9-18.2c1.9-1.9,3.8-3.8,5.7-5.7c-0.8,8.5,2.6,19.3,10,24
	C248.8,239.6,245.9,239.6,243,239.6z M235.2,220.4c-6.3,1.6-15.8-1.1-18.3-7.7c0,0,0,0-0.1-0.1c0-2.6,0-5.3,0-7.9
	c4.5,7.7,15.3,11.5,24,10.1C238.9,216.7,237.1,218.5,235.2,220.4z M215.6,203.8c0,3,0,6,0,8.9c-3.8,5.3-12,10.4-18.6,7.5
	c-1.8-1.8-3.6-3.6-5.4-5.4C200.5,217,210.2,210.6,215.6,203.8z M196.2,221c1.7,6.8-0.7,14.4-6.5,18.6c-2.9,0-5.8,0-8.7,0
	c7.2-5.8,11-15.2,9.5-24.4C192.3,217.2,194.2,219.1,196.2,221z M189.7,240.8c0,0,0.1,0,0.1,0c6.7,1.6,8.3,11.5,7.7,17.3
	c-2.1,2.1-4.2,4.2-6.3,6.3c0.6-7.8-1.5-19.5-8.7-23.6C184.9,240.8,187.3,240.8,189.7,240.8z M198.3,259
	C198.4,259,198.4,259,198.3,259c6.5-2.8,13.7-0.9,17.3,5.4c0,3,0,5.9,0,8.9c-5.1-7.7-14.1-11.3-22.9-8.7
	C194.6,262.7,196.5,260.8,198.3,259z M216.8,264.5c4-3.2,10.7-8.3,16-6.8c1.7,1.7,3.4,3.4,5,5c-4.5-0.4-9.2,2.4-12.8,4.8
	c-2.9,1.9-5.7,4.1-8.3,6.5C216.8,270.9,216.8,267.7,216.8,264.5z M233.8,256.9c-0.3-5.8,0.8-14.8,7.5-16.1c2.5,0,5,0,7.5,0
	c-7.3,3.4-9.8,13.4-9.7,21.4C237.3,260.4,235.5,258.7,233.8,256.9z M254.2,239.6c-8.7-4-12.6-16.6-11.1-25.4
	c2.1-2.1,4.2-4.2,6.3-6.3c-0.8,6.4,0.4,12.9,3,18.9c2.1,4.9,5.4,10,10,12.9C259.7,239.6,256.9,239.6,254.2,239.6z M242.3,213.2
	c-9,2.3-22-2-25.5-11.3c0-2.4,0-4.7,0-7.1c5.7,10.3,20.6,14.3,31.7,12.2C246.5,209.1,244.4,211.2,242.3,213.2z M215.6,201.7
	c-5.2,7.5-16.5,15.4-25.9,11.1c-1.6-1.6-3.2-3.2-4.8-4.8c11.4,3.3,23.9-5.1,30.7-14.1C215.6,196.5,215.6,199.1,215.6,201.7z
	 M188.8,213.7c2.5,9.8-1.7,20.2-9.9,25.9c-2.7,0-5.5,0-8.2,0c9.5-7.3,15.1-19.2,12.8-31.2C185.3,210.2,187.1,211.9,188.8,213.7z
	 M179,240.8c0,0,0.1,0,0.1,0c9.6,2.1,11.7,16.8,10.7,24.9c-2.1,2.1-4.2,4.2-6.4,6.4c0.7-6.9-0.2-14-2.7-20.4
	c-1.7-4.3-4.3-8.7-8.4-10.9C174.6,240.8,176.8,240.8,179,240.8z M190.7,266.6c9.6-4.2,19.9,0,24.9,9c0,2.7,0,5.4,0,8.2
	c-6.6-10.4-18.8-15.3-30.5-11.6C187,270.3,188.9,268.4,190.7,266.6z M216.8,275.7c2.4-2.3,5.1-4.4,7.8-6.3c4-2.8,9.7-6.6,14.8-5.1
	c2.1,2.1,4.2,4.2,6.3,6.3c-6.1-0.8-12.7,2.9-17.5,5.9c-4,2.4-7.8,5.2-11.4,8.2C216.8,281.7,216.8,278.7,216.8,275.7z M240.3,263.5
	c-0.5-9.1,2.4-22.3,13.7-22.6c1.7,0,3.4,0,5.1,0c-10.1,4.3-12.5,18.9-12.1,29.3C244.8,267.9,242.6,265.7,240.3,263.5z M256,199.5
	c-2,2-3.9,3.9-5.9,5.9c0,0,0,0,0,0c-11.4,3-28.8-1.2-33.3-13.4c0-2.7,0-5.4,0-8.1C223.5,196.9,242.3,202.3,256,199.5z M215.6,182.9
	c0,3,0,6,0,9c-6.6,9.6-20.7,19.7-32.7,14.1c-2-2-4.1-4.1-6.1-6.1C191,204.5,207.2,194.1,215.6,182.9z M175.4,200.2
	c2.2,2.2,4.4,4.4,6.6,6.6c3.3,12.6-2.8,25.5-13.3,32.8c-2.9,0-5.9,0-8.8,0C171.9,230.5,178.5,215.1,175.4,200.2z M172.7,254.4
	c-2.2-5.4-5.6-11-10.9-13.6c2.3,0,4.6,0,7,0c0,0,0.1,0,0.1,0c6.3,1.3,9.7,7.7,11.5,13.3c2,6.2,2.6,12.9,1.8,19.3c-2,2-4,4-6,6
	C177,271,175.8,262.2,172.7,254.4z M200.4,280.4c-7.3-3.5-15.1-3.6-22.5-1c1.7-1.7,3.4-3.4,5.1-5.1c12.5-5.6,26.2,0.1,32.6,11.9
	c0,2.7,0,5.4,0,8.1C212,288.3,206.7,283.3,200.4,280.4z M230.5,284.6c-4.8,3.2-9.4,6.7-13.7,10.6c0-3,0-5.9,0-8.9
	c3.4-2.9,7.1-5.6,10.9-8c5.3-3.4,13.1-8.1,19.7-6c1.6,1.6,3.2,3.2,4.7,4.7C244.6,275.7,236.4,280.7,230.5,284.6z M253.4,276.5
	c-1.7-1.7-3.4-3.4-5.1-5.1c-0.7-11.4,1.9-30.2,16.6-30.6c1.6,0,3.1,0,4.7,0C256.4,245.3,252.8,263.4,253.4,276.5z"/>
</svg>
