<?xml version="1.0" encoding="utf-8"?>
<!-- Generator: Adobe Illustrator 21.1.0, SVG Export Plug-In . SVG Version: 6.00 Build 0)  -->
<svg version="1.1" id="Calque_1" xmlns="http://www.w3.org/2000/svg" xmlns:xlink="http://www.w3.org/1999/xlink" x="0px" y="0px"
	 viewBox="0 0 432 432" style="enable-background:new 0 0 432 432;" xml:space="preserve">
<style type="text/css">
	.st0{fill:#333333;}
	.st1{fill:#E0861B;}
	.st2{fill:#751F72;}
	.st3{fill:#4D4D4D;}
</style>
<path d="M107.7,229.4c2.4-3,4.6-6,5.9-9.4c0.5-1.2,0.2-2.6-0.1-3.9c-0.6-2.4-1.3-4.8-1.9-7.3c-0.5-2-0.6-3.9,0.3-5.9
	c0.6-1.3,0.6-2.7,0.3-4.1c-0.2-1-0.3-2-0.2-3c0.1-0.5,0.3-1,0.9-1c0.6,0,1,0.4,1.1,0.9c0.4,2.7,1.5,5.5,0.3,8.3
	c-0.6,1.4-0.6,2.7-0.1,4.1c0.8,2.4,1.4,4.8,2.1,7.2c0.9,3,0.6,5.9-0.8,8.7c-1.4,2.6-2.7,5.2-4.6,7.4c-0.8,1-0.8,1.7,0.3,2.4
	c1.5,1,3,2,4.6,2.9c6.3,3.5,12.4,7.3,18,11.7c0.9,0,0.9-0.7,1.1-1.3c1.9-4.4,4.5-8.5,7-12.6c3.4-5.5,3.2-7.2-1.1-11.9
	c-2.8-3-5.8-5.9-8.3-9.1c-2.4-3.1-4.4-6.4-6-10c-1.4-3.3-1.4-6.6,0.4-9.8c3.2-5.5,6.7-11,11-15.7c0.2-0.2,0.4-0.5,0.6-0.7
	c0.4-0.4,0.9-0.6,1.3-0.2c0.6,0.4,0.8,0.9,0.5,1.6c-0.4,0.8-0.9,1.6-1.4,2.3c-3,4.5-6,9-9,13.5c-2.2,3.1-2.3,6.3-0.6,9.6
	c2.5,5,5.9,9.3,9.7,13.3c1.7,1.8,3.4,3.7,5.2,5.4c3.4,3.5,3.9,7.4,2.1,11.9c-1.6,4-3.7,7.8-5.7,11.6c-1.2,2.1-1.1,2.1,0.5,4
	c3,3.4,5.2,7.4,7.4,11.3c1,1.7,2,3.5,3,5.3c0.9-0.5,1-1.3,1.3-2c2.3-5.3,4.7-10.6,7-16c1.1-2.4,1.2-2.7-1-3.9c-4-2.1-4.7-5-3.4-9.2
	c1.9-6.2,3.1-12.6,4.6-19c0.1-0.5,0.2-1,0.4-1.4c0.7-1.9,1.7-2.3,3.5-1.4c0.6,0.3,1.2,0.8,1.9,1.2c1-3,0.8-6.1,1.1-9
	c0.4-4.1,0.8-8.2,0.8-12.3c0-1.3,0.3-2.6,0.5-3.9c0.1-0.9,0.6-1.6,1.6-1.5c0.9,0.1,0.9,0.9,0.9,1.7c0,1.6,0,3.2-0.1,4.8
	c-0.6,6.3-1.3,12.6-1.9,18.8c0,0.3-0.1,0.6-0.1,0.9c-0.7,4.2-1.4,4.6-5.4,2.9c-0.9,1.1-0.9,2.6-1.2,3.9c-1.3,5-2.6,10.1-3.4,15.2
	c-0.3,2,0,3.5,1.8,4.5c1.4,0.8,2.5,2.2,4.3,2.7c1.2,0.3,1.4,1.6,2.2,2.5c1.2-0.4,2.2-1.3,3.3-2c3-2.2,6.1-4.3,9.3-6.1
	c2.7-1.5,4.5-1,5.9,1.7c1.2,2.4,1.8,5.1,2.7,7.6c1,2.7,1.9,5.5,2.9,8.2c0.4,1.2,1.2,2,2.6,2.1c2.2,0,2.6-0.4,2.2-2.6
	c-0.2-1.3-0.4-2.6-0.5-3.9c-0.4-3.1,1-5.3,3.6-6.7c2.7-1.4,5.1-3.1,7.2-5.4c0.4-0.5,0.9-0.9,1.5-0.5c0.7,0.5,0.6,1.3,0.2,1.9
	c-1.5,2.1-3.3,4-5.7,5.2c-4.8,2.4-5,2.9-3.7,8.3c0.4,1.6,0.8,2.8,2.9,2.6c0.8-0.1,1.8,0.3,2.6,0.7c2.5,1.3,4.9,2.7,7.4,4.1
	c0.8,0.4,1.8,0.9,1.2,2c-0.5,1.1-1.4,0.8-2.3,0.4c-2.3-0.9-4.7-1.7-7-2.7c-2-0.9-4-1.3-6.1-0.7c-1,0.2-2,0.2-3,0.3
	c-2.7,0.1-4.6-1.1-5.9-3.4c-2-3.7-3.4-7.7-4.7-11.7c-0.5-1.5-0.7-3.1-1.7-4.6c-1.3,0.2-2.3,1-3.4,1.7c-3.3,2.3-6.5,4.7-9.7,7.1
	c-0.6,0.4-1,0.9-1.1,1.7c-1.1,8.3-3.7,16.2-5,24.4c-0.9,5.7-0.9,5.9,3.4,9.8c3.9,3.6,8.7,5.8,13.1,8.4c1.2,0.7,1.9,0,2.6-0.6
	c5.2-4.1,10.4-8.1,15.6-12.2c3-2.4,5.9-4.8,9.1-6.9c4-2.6,6.4-2.3,9,1.8c2,3.1,3.6,6.5,5.4,9.7c0.3,0.6,0.6,1.3,1,1.8
	c1.1,1.5,2.1,1.6,3.3,0.1c1.2-1.6,2.3-3.3,3.3-5c1.2-1.9,2.3-4,4.3-5.4c1.2-0.8,1.2-2.2,1.2-3.5c0-4.2-0.5-8.4-1-12.6
	c-0.8-6.4-1.7-12.7-2.5-19.1c-0.1-1.2-0.1-2.4-0.1-3.6c0-0.7,0.3-1.2,1-1.3c0.7-0.1,1.1,0.4,1.3,1c0.3,1,0.5,1.9,0.6,2.9
	c0.7,4.9,1.3,9.7,2,14.7c3-0.4,5-1.9,5.8-4.9c0.3-1.3,0.8-2.5,1.2-3.7c0.6-2,1.7-3.6,3.2-5c0.8-0.7,1.8-1.3,2.2-2.4
	c0.2-0.6,0.7-0.7,1.2-0.5c0.7,0.3,0.8,0.8,0.7,1.5c-0.1,0.9-0.7,1.5-1.2,2c-2.8,2.5-4.5,5.5-5.2,9.2c-0.6,3.1-2.6,5.1-5.6,6
	c-1.5,0.4-2,1.2-1.8,2.8c0.4,3.2,0.6,6.4,0.9,9.6c0.2,2,0.3,4-0.3,6c-0.3,1.1-0.8,2.1-1.7,2.8c-2.3,1.5-3.6,3.7-5.1,5.9
	c-0.6,0.9-1.1,2-1.9,2.7c-2.7,2.4-2.7,5.2-1.6,8.3c0.7,2,1.1,4.1,1.7,6.1c0.6,1.8,0.9,1.9,2.6,1.1c3.5-1.8,6.7-4,9.4-6.9
	c1.8-1.9,3.7-3.7,5.3-5.7c2.2-2.7,4.9-3.1,8.1-2.3c4.1,1,4.2,1,4.7-3.3c0.5-4.6,0.7-9.2,0.4-13.8c-0.1-3.1,0.2-6.2,0.7-9.3
	c0.1-0.7,0.2-1.5,1.1-1.5c1,0,1.5,0.6,1.5,1.5c0.1,2.4,0.1,4.8,0,7.2c-0.1,1.7-0.3,3.4-0.4,5.1c-0.1,0.7,0.1,1.4,0.9,1.2
	c1.8-0.4,3.1,0.5,4.5,1.3c2.9,1.5,3.3,1.3,5.1-1.3c0.5-0.7,1-1.5,1.5-2.2c0.3-0.4,0.8-0.7,1.3-0.3c0.4,0.3,0.4,0.7,0.2,1.1
	c-1,1.6-1.9,3.3-2.9,4.9c-0.8,1.2-2.2,1.5-3.5,1.2c-1.4-0.3-2.7-0.8-4-1.2c-2.1-0.7-3.2,0.1-3.3,2.3c-0.1,2.7-0.4,5.4-1,8
	c-0.7,2.8-1.9,3.5-4.8,3c-0.1,0-0.2,0-0.3-0.1c-4.2-2-7.2-0.3-9.9,3c-1.5,1.9-3.3,3.5-5,5.2c-2.7,2.8-5.8,4.9-9.2,6.6
	c-2.7,1.3-4.6,0.7-6-1.9c-1.5-2.8-2.2-5.8-2.7-8.9c-0.3-2.3-1-4.4-2.5-6.3c-1.7-2.1-2.8-4.6-4.2-6.9c-0.9-1.5-1.9-3.1-2.9-4.5
	c-1.3-1.7-1.6-1.7-3.4-0.4c-1,0.8-2,1.6-3,2.5c-6.6,6-13.5,11.6-20.5,17.1c-1.3,1-1.8,2-2,3.7c-0.5,5-2,9.8-3.2,14.6
	c-3.8,15.3-7.9,30.6-12.1,45.9c-1.1,4-1.9,4.7-6.1,4.7c-4.4,0-8.8-0.2-13.1-1.3c-4.7-1.2-6.3-3.6-5.1-8.4c1.7-6.4,3.4-12.8,5.5-19
	c3.2-9.6,6.9-19,11.5-28c1-2,0.8-3.3-0.6-4.8c-1.2-1.3-2.5-2.6-3.9-3.7c-4.5-3.6-8.8-7.2-13-11.2c-1.3-1.3-1.4-1.3-2.8,0.2
	c-5.9,6.6-11.5,13.3-16.6,20.6c-1.9,2.7-3.8,5.4-5.8,8.1c-0.5,0.7-1.1,1.5-1.8,2c-2,1.7-4.1,1.2-5-1.2c-0.4-1.2-0.6-2.5-0.8-3.8
	c-0.9-5.6-1.9-11.2-3.6-16.7c-0.3-0.9-0.5-1.7-0.8-2.6c-1.3-3.3-2-3.8-5.6-3.6c-3.3,0.2-6.6,0.3-9.9-0.1c-3-0.4-4-1.2-4.3-4.1
	c-0.4-3.9-0.4-7.8-0.3-11.7c0-0.8,0.3-1.6,0.8-2.2c0.3-0.4,0.8-0.7,1.3-0.6c0.5,0.1,0.8,0.6,0.9,1.1c0.2,2.1,0.3,4.2,0.4,6.3
	c0.1,1.8,0.2,3.6,0.2,5.4c0,1.4,0.5,2.2,2.2,2.1c1.7-0.1,3.4-0.1,5.1,0c1.6,0.1,2.1-0.7,2.2-2.1c0.3-2.6,0.8-5.1,1.3-7.7
	c0.6-3,2-3.8,4.9-2.9c2.3,0.8,4.5,1.7,6.8,2.5c2.7,0.9,2.8,0.9,4.3-1.6c0.6-0.9,1.1-1.9,1.6-2.9c0.4-0.6,0.9-1.2,1.7-0.7
	c0.6,0.4,0.6,1,0.4,1.6c-1,2.2-2.1,4.3-3.7,6.2c-0.8,0.9-1.9,1-3,0.7c-2.8-0.7-5.6-1.6-8.3-2.7c-1.3-0.5-2.1-0.3-2.3,1.2
	c-0.3,2.3-0.7,4.5-1.1,6.8c-0.2,1,0.2,1.5,1.3,1.6c3.8,0.3,5.6,2.8,6.4,6.1c1.5,5.8,2.4,11.8,3.6,17.6c0.3,1.4,0.5,2.7,0.8,4.1
	c1.2,0.2,1.3-0.8,1.7-1.4c6.6-10.3,13.9-20.1,22.1-29.2c0.7-0.8,1.5-1.5,0.6-2.8c-3-4.6-3.9-9.8-3.9-15.2c0-3.5,0.2-7,0.3-10.5
	c0-1.1,0.1-2.1-0.2-3.4c-2.7,1.1-5.1,2.2-7.3,3.7c-3,1.9-6.1,3.9-9,6c-2.8,2-5.5,2.1-8.4,0.3c-2.1-1.3-4-2.6-6-4
	c-2.2-1.6-4.4-3.2-6.7-4.6c-3.1-2-6.5-3.5-10.2-4.2c-4-0.8-7.2-3-9.8-6c-1.3-1.5-2.5-3.1-3.7-4.7c-0.3-0.4-0.6-0.9-0.2-1.3
	c0.5-0.5,1.1-0.4,1.6-0.1c0.6,0.4,1.1,0.9,1.6,1.4c1.4,1.3,2.7,2.7,4,4.1c1.8,1.7,3.8,3,6.2,3.4c6.4,0.9,11.7,4,16.8,7.6
	c2.4,1.8,4.8,3.6,7.4,5.2c1.9,1.2,3.6,1.3,5.5-0.2c4.7-3.6,9.5-7.1,15-9.7c-0.7-1.1-1.8-1.4-2.8-1.8c-4.7-2.1-9.3-4.3-13.8-6.6
	c-7.8-4-11.9-10.3-13-18.9c-1-7.5-1.9-15.1-2.8-22.7c-0.2-1.6-0.2-3.2-0.2-4.8c0-0.8-0.1-1.8,1-1.8c1,0,1.2,0.9,1.4,1.7
	c0.8,2.9,0.9,5.9,1.2,8.9c0.6,6.2,1.5,12.3,3.1,18.3C105.8,226,106.3,227.7,107.7,229.4z"/>
<g>
	<path d="M358.6,155.2c-0.4-0.6-1.2-0.9-2-0.6c-0.5,0.2-0.9,0.5-1.4,0.7c-1.8,1.1-3.5,2.2-5.3,3.3c-6.7,4.1-13.7,7.5-21.4,9.4
		c-2.4,0.6-4.7,1.4-7,2c-0.3,0.1-0.7,0.5-1.2,0.1c0.4-0.5,0.7-1,1.1-1.6c1.8-2.8,3.9-5.5,5.1-8.7c0.3-0.8,0.6-1.6,0.7-2.5
		c0-1.2-0.3-2-1-2.2c-0.9-0.3-1.6,0.2-2.1,0.9c-0.9,1-1.7,2-2.5,3.1c-3.9,5-7.8,10-11.8,14.8c-0.5,0.6-1,1.2-1.8,1.6
		c-4.3,2.1-8.6,4.3-12.9,6.4c-0.4,0.2-0.9,0.5-1.4,0.5c0.2-0.5,0.6-0.7,0.9-1c5.3-4.8,9.1-10.5,11.6-17.1c2.5-6.8,3.7-13.8,2.3-21
		c-0.8-4.4-2.5-8.4-4.7-12.3c-1.8-3.1-3.7-6.2-5.5-9.3c-2.7-4.6-4.9-9.3-6.3-14.4c-1.8-6.3-2.5-12.6-1.5-19.1
		c0.1-0.5,0.1-0.9,0.1-1.4c0-0.6-0.3-1.1-1-1.3c-0.6-0.2-1.2,0.1-1.5,0.6c-0.3,0.4-0.5,0.9-0.6,1.4c-1,2.6-2,5.3-3,7.9
		c-1.2,3-2.5,6-4.4,8.7c-1.4,2.1-3.2,4-5.4,5.3c-2.6,1.6-5.1,1.4-7.5-0.4c-1.7-1.2-2.9-2.8-3.9-4.6c-1.1-2.1-2-4.3-2.5-6.6
		c-0.4-1.5-0.8-3-2-4.2c-1-1-1.8-0.9-2.5,0.3c-0.4,0.7-0.4,1.6-0.5,2.4c-0.5,8.8-2.2,17.3-4.6,25.8c-2.5,8.6-5,17.2-6.3,26.2
		c-0.9,6.4-1,12.8,0.5,19.2c2.1,8.6,6.7,15.3,14.8,19.4c0.2,0.1,0.4,0.2,0.6,0.7c-1.7-0.1-3.3-0.2-5-0.3c-5.7-0.5-11.4-0.8-17.2,0.2
		c-4.5,0.8-8.9,2-12.9,4.5c-2.5,1.6-4.7,3.6-6.3,6.2c-0.4,0.6-0.8,1.3-0.8,2.1c-0.1,1.2,0.6,1.7,1.7,1.5c0.6-0.1,1.1-0.4,1.6-0.7
		c1.1-0.8,2.3-1.3,3.6-1.8c3.8-1.3,7.8-1.6,11.8-1.7c4.5-0.1,8.9,0,13.4-0.1c3,0,5.9-0.2,8.8-0.5c3-0.3,6-0.7,8.9-1
		c0.3,0.3,0.3,0.7,0.3,1c0.2,6,0.6,11.9,1,17.9c0.3,4.5,1,8.9,2.2,13.2c0.2,0.6,0.4,1.2,0.7,1.8c0.9,1.5,2.5,1.6,3.5,0
		c0.3-0.5,0.5-1,0.7-1.6c0.8-1.9,1.6-3.9,2.4-5.8c0.2-0.6,0.4-1.2,1-1.5c0.7,0.3,1,0.9,1.4,1.3c0.9,1,1.9,1.9,3,2.6
		c2.1,1.2,3.7,0.8,4.8-1.3c0.5-0.9,0.8-1.8,1.3-2.7c0.7-1.4,1.3-2.7,2.2-3.9c0.8-1.1,1.3-1.2,2.5-0.6c1.1,0.6,2.2,1.3,3.3,1.9
		c1.3,0.8,2.6,1.7,4.1,2.2c1.7,0.6,3.2-0.6,3-2.4c-0.1-0.6-0.2-1.1-0.4-1.7c-0.7-1.8-1.4-3.7-2.1-5.5c-2.8-6.7-5.4-13.4-7.7-20.3
		c-0.6-1.8-0.6-1.6,0.9-2.3c4.8-2.3,9.9-3.9,15.1-5c5.5-1.2,11-2.2,16.3-4.3c0.7-0.3,1.2-0.1,1.8,0.1c2.4,0.8,4.8,1.7,7.3,2.2
		c3.5,0.7,6.7-0.1,9.5-2.3c2.2-1.7,4-3.9,5.8-6c0.3-0.3,0.5-0.7,0.6-1c0.4-1.1-0.3-1.9-1.4-1.6c-0.5,0.1-1,0.3-1.5,0.5
		c-2.4,1-4.5,2.4-6.6,3.8c-2.1,1.4-4.2,1.3-6.4,0.4c0.2-0.6,0.8-0.7,1.2-1c3.2-2,6.2-4.2,9.1-6.6c3.2-2.7,6.1-5.7,9.2-8.5
		c0.6-0.6,1.3-1.1,1.9-1.7C359,156.7,359,155.8,358.6,155.2z M264.7,143.6c-0.9,1.1-1.7,2.2-2.6,3.3c-0.6,0.7-1.1,1.5-2.1,1.2
		c-1.1-0.3-1.2-1.3-1.3-2.2c-0.2-2.2-0.4-4.4-0.6-6.6c-0.2-2.7-0.5-5.4-0.7-8.1c0-0.3-0.1-0.7-0.1-1c0-2.2,0.6-2.8,3.1-2.7
		c1.4,0.1,3.2,0.4,5,0.9c2,0.5,3.9,1.1,5.8,1.7c0.6,0.2,1.1,0.4,1.6,0.7c1.3,0.8,1.6,2,0.7,3.3c-0.5,0.7-1.1,1.4-1.7,2
		C269.5,138.4,266.9,140.9,264.7,143.6z M281.5,154.9c0,0.9-0.1,1.9-0.3,2.7c-0.4,1.5-1.8,1.9-2.8,0.7c-3-3.4-6.1-6.7-8.2-10.7
		c-0.8-1.5-0.4-2.4,1.2-2.6c2.4-0.3,4.8-1,7-1.8c0.4-0.2,0.9-0.3,1.3-0.4c1.6-0.2,2.4,0.6,2.3,2.1
		C281.6,148.3,281.7,151.6,281.5,154.9z M292.9,141.6c-0.4,1-1.1,1.3-2.1,0.8c-0.5-0.2-0.9-0.5-1.3-0.8c-3.4-2.4-6.7-4.9-9.9-7.7
		c-1-0.9-1.9-1.8-2.6-3c-0.6-1.1-0.7-2.2,0.2-3.2c2.4-2.5,4.7-5,7.2-7.2c0.3-0.3,0.7-0.6,1.1-0.8c1.3-0.7,2.7-0.3,3.3,1.1
		c0.5,1.1,0.8,2.3,1.1,3.5c1.1,4.4,2.4,8.7,2.9,13.2c0.1,0.7,0.1,1.4,0.2,1.9C293.1,140.2,293.2,140.9,292.9,141.6z"/>
	<path d="M282.3,126.9c-2.4,0.1-3.5,1-3.5,3.1c0,2.1,2,3.9,4.1,3.9c1.8,0,3.2-1.7,3.2-3.7C286.1,128,284.7,126.8,282.3,126.9z"/>
	<path d="M266.7,130.6c-2.1-0.1-3.7,1.2-3.7,2.9c0,1.9,1.8,3.6,3.8,3.5c1.6,0,2.6-1.2,2.6-3C269.4,132,268.3,130.6,266.7,130.6z"/>
</g>
<g>
	<path d="M330.5,270.4c-0.3-0.2-0.5-0.5-0.8-0.7c-2.9-2.5-5.8-5.1-8.4-8c-1-1.1-0.8-1.5-1.9,0.1c-3.2,4.6-5.5,9.6-6.7,15.1
		c-0.4,2-0.6,4.1-0.2,6.3c0.5-0.1,0.8-0.4,1.2-0.6c2-1.1,4-1.5,6.2-0.7c1.1,0.4,1.1,0.4,1.5-0.8c0.9-2.6,2.2-5,4.3-6.9
		c1.1-1,2.3-2,3.6-2.8C329.7,271.1,330.1,270.9,330.5,270.4z"/>
	<path class="st1" d="M356.3,317.2c-0.4-4.7-1.3-9.2-2.4-13.8c-0.6-2.6-1.5-5.1-2.7-7.5c-0.7-1.5-1.6-2.9-3-3.8
		c-1.6-1.1-3.3-1.6-5.1-0.4c-0.6,0.4-1.1,0.3-1.6-0.3c-0.3-0.3-0.5-0.7-0.7-1c-0.4-0.6-0.8-1.3-1.2-1.8c-1.7-2.3-3.9-3.1-6.7-2.7
		c-0.5,0.1-1,0.2-1.4,0.3c-2.1,0.5-3.8,1.6-5.4,2.9c-0.4,0.4-0.9,0.7-1.3,1c-0.4,0.3-0.8,0.2-0.9-0.3c-0.2-1.2-1.1-2-1.7-3
		c-0.4-0.8-1.1-1.4-1.8-2c-1.9-1.5-4-1.9-6.2-0.7c-2.5,1.4-4.2,3.3-5.4,5.9c-0.3,0.7-0.8,0.8-1.3,0.3c-0.2-0.2-0.3-0.4-0.5-0.7
		c-0.9-1.1-1.8-2.2-2.9-3.2c-2-1.7-4.2-2-6.7-1.1c-1.9,0.7-3.4,2-4.5,3.8c-0.3,0.6-0.6,1.2-0.9,1.8c-0.8,1.6-1.4,1.8-3,0.8
		c-1.4-0.8-2.8-0.9-4.3-0.1c-0.9,0.5-1.7,1.1-2.4,1.8c-1.5,1.6-2.7,3.3-3.6,5.3c-0.8,1.8-1.5,3.7-2.1,5.7c-1,3.6-1.5,7.4-1.7,11.1
		c-0.4,5.4-0.3,10.9,0.7,16.3c0.9,5.1,2.6,10,5.4,14.4c1.2,1.8,2.5,3.5,4.4,4.7c1.7,1.1,3.4,1.7,5.4,1.4c1.4-0.2,2.5-0.9,3.6-1.7
		c0.5-0.4,0.8-0.4,1.2,0.1c0.2,0.2,0.3,0.4,0.5,0.7c0.9,1.8,2.4,3.1,4.1,4.1c1.9,1.1,3.9,1.2,5.9,0.3c0.6-0.3,1.2-0.7,1.8-1
		c1.1-0.5,1.9-0.4,2.6,0.6c1.2,1.8,3,2.8,5.1,3.2c3.2,0.6,6.1-0.1,8.3-2.7c0.5-0.6,0.9-1.2,1.3-1.8c0.7-0.9,1.4-1,2.3-0.2
		c0.7,0.7,1.6,1.2,2.6,1.3c2.3,0.3,4.2-0.4,5.7-2.1c0.6-0.7,1.1-1.5,1.4-2.4c0.1-0.4,0.3-0.7,0.5-1c0.5-0.6,1.2-0.6,1.7-0.1
		c0.1,0.1,0.2,0.3,0.3,0.4c1.6,2,3.5,2.7,6,1.7c1.9-0.8,3.5-2,4.8-3.6c2.6-3.4,4.2-7.3,5-11.6c0.8-4,0.9-8.1,1-12.2
		C356.7,322,356.5,319.6,356.3,317.2z M324.3,315.4c0.3-2.6,0.4-5.2,0.8-7.8c0.4-2.4,0.6-4.8,1.2-7.2c0.2-0.7,0.4-1.4,0.7-2.1
		c0.2-0.4,0.4-0.7,0.7-1c1-1,2.2-0.8,2.6,0.5c0.5,1.5,1.1,2.8,1.8,4.2c2.2,4.8,4.3,9.5,6,14.5c0.1,0.4,0.3,0.7,0.3,1.1
		c0.2,0.9,0,1.2-0.9,1.4c-1,0.2-1.9,0.3-2.9,0.5c-1.8,0.3-3.7,0.3-5.5,0.5c-1.3,0-2.5,0-3.8,0c-1,0-1.4-0.4-1.4-1.4
		C324.1,317.5,324.2,316.5,324.3,315.4z M293,317.2c0.7-2.1,1.5-4.1,2.3-6.2c1.4-3.6,3.1-7,4.6-10.5c0.4-0.8,0.7-1.7,1-2.5
		c0.5-1.5,1.8-1.7,2.8-0.5c0.6,0.6,0.9,1.4,1.1,2.2c0.6,1.9,0.9,3.9,1.2,5.9c0.6,4.1,0.9,8.2,1.3,12.4c0,0.3,0.1,0.6,0,0.8
		c0,0.8-0.4,1.2-1.3,1.2c-1.3,0-2.6,0-3.9,0c-2.7-0.1-5.4-0.3-8.1-0.9C292.7,318.8,292.5,318.5,293,317.2z M346.8,333
		c-0.1,0.3-0.2,0.6-0.4,0.8c-2.9,3.5-6,6.8-9.8,9.3c-0.1,0.1-0.3,0.2-0.5,0.3c-1.1,0.6-1.7,0.4-2.3-0.7c-0.5-0.9-0.9-1.8-1.3-2.7
		c-0.1-0.3-0.2-0.5-0.3-0.8c-0.4-0.9-0.9-1.1-1.8-0.7c-0.4,0.1-0.3,0.4-0.3,0.7c-0.1,1.2-0.1,2.4-0.3,3.5c-0.1,1.2-0.7,1.8-1.8,2.1
		c-1,0.3-2.1,0.5-3.2,0.6c-1,0.1-2,0.1-3,0.1c-1.4,0.1-1.7-0.1-1.9-1.4c-0.1-0.8-0.3-1.6-0.5-2.4c-0.1-0.3-0.2-0.6-0.6-0.6
		c-1.2,0-2.4-0.1-3.6-0.2c-0.5,0-0.7,0.1-0.8,0.6c-0.2,1-0.5,2-0.6,3c-0.1,0.7-0.5,1.1-1.2,1c-1.7-0.2-3.4-0.1-5.1-0.3
		c-0.7-0.1-1.4-0.3-2-0.5c-0.8-0.3-1.3-0.8-1.4-1.6c-0.2-1.2-0.3-2.5-0.3-3.7c0-0.5-0.1-0.8-0.7-0.9c-1-0.1-1-0.2-1.3,0.5
		c-0.6,1.2-1.1,2.3-1.7,3.5c-0.2,0.3-0.3,0.6-0.6,0.9c-0.5,0.4-1,0.5-1.5,0.2c-0.6-0.4-1.3-0.7-1.9-1.2c-3.2-2.3-5.9-5.1-8.4-8.1
		c-0.2-0.3-0.4-0.6-0.6-0.9c-0.2-0.3-0.4-0.7-0.1-1.1c0.2-0.3,0.4-0.4,1.2-0.3c0.4,0,0.9,0.2,1.4,0.3c2.3,0.7,4.8,1.1,7.1,1.7
		c0.5,0.1,0.8,0,0.9-0.5c0.3-1.3,0.7-2.6,1-3.8c0.3-1.2,0.8-1.5,2.1-1.3c1.1,0.2,2.2,0.5,3.3,0.8c0.9,0.2,1.8,0.4,2.7,0.4
		c1.1,0.1,1.4,0.3,1.5,1.4c0.2,1.3,0.3,2.6,0.5,3.8c0.2,1.3,0.2,1.4,1.5,1.4c2,0,1.8,0.3,1.9-1.7c0-0.9,0.1-1.7,0.1-2.6
		c0-0.9,0.3-1.2,1.2-1.2c2.3,0,4.6-0.1,6.9-0.1c1.1,0,1.5,0.4,1.5,1.5c0,1.1,0,2.2,0.1,3.2c0.1,0.8,0.1,0.9,0.9,0.9
		c2.3,0,2.3,0,2.5-2.2c0.1-1.1,0.3-2.2,0.4-3.3c0.1-0.8,0.4-1.1,1.2-1.1c1.8-0.1,3.5-0.6,5.2-1c0.4-0.1,0.8-0.2,1.2-0.3
		c1-0.1,1.5,0.2,1.8,1.2c0.4,1.3,0.7,2.6,1.1,3.9c0.2,0.6,0.2,0.7,1,0.6c2.5-0.6,5.1-1,7.6-1.8c0.4-0.1,0.9-0.2,1.3-0.2
		C346.7,332.1,347,332.4,346.8,333z"/>
</g>
<g>
	<path class="st1" d="M188.7,151c-1,1.3-1.4,2.7-2.1,4c-1.5,3.2-3.3,6-5.8,8.5c-1.2,1.2-2.6,2.2-4.3,2.7c-3.5,1-7.8-0.7-10.2-4.1
		c-0.6-0.8-1-1.7-1.6-2.7c-0.6,0.5-0.6,1.1-0.8,1.7c-0.7,2.5-1.7,4.9-3,7.1c-2.5,4-7,6.2-11.1,5.1c-6.7-1.8-11.9-6.4-13.1-14
		c-0.1-0.3,0.1-0.8-0.3-1c-0.6,0.3-0.6,0.9-0.9,1.3c-0.6,1.3-1.2,2.7-1.9,3.9c-2,3.6-4.5,4.3-8.2,2.5c-2.7-1.3-4.9-3.3-6.5-5.8
		c-2.5-4-3.8-8.3-4.1-13c-0.7-0.2-1,0.5-1.3,0.8c-0.8,0.8-1.5,1.5-2.5,2c-1.9,0.9-3.7,0.8-5.4-0.6c-2.3-2-4-4.3-5.1-7.1
		c-1.3-3.4-2.1-6.9-2.5-10.4c-0.6-5.9-0.9-11.8-0.1-17.7c0.4-2.9,1.1-5.7,2.5-8.2c1-1.8,2.3-3.3,4.2-4.2c2.7-1.4,5.3-1.3,7.8,0.7
		c0.8,0.6,1.5,1.4,2.2,2.1c0.5,0.5,0.9,1.1,1.6,1.4c0.3-1.8,0.6-3.4,1-5c1-4.2,2.9-7.9,6.6-10.4c1.2-0.9,2.6-1.6,4.1-1.8
		c4.3-0.6,8.1,2.1,8.9,6.5c0.1,0.5-0.1,1.2,0.5,1.6c0.6-0.5,0.9-1.2,1.3-1.8c1.7-2.5,3.8-4.7,6.4-6.3c3.4-2.1,6.8-2.3,10.4-0.6
		c2.5,1.2,4.6,2.8,6.5,4.8c0.5,0.5,0.8,1.1,1.5,1.5c0.7-0.5,1-1.3,1.5-1.9c2.9-4,7.3-4.3,10.9-2.8c2.2,0.9,4.1,2.3,5.6,4
		c2.7,3.1,4.9,6.5,6,10.5c0.1,0.3,0.1,0.7,0.5,1c0.6-0.2,1-0.8,1.5-1.2c1.7-1.3,3.6-1.4,5.5-0.5c1.5,0.8,2.6,2,3.5,3.4
		c2.3,3.3,3.3,7,4.1,10.8c1.3,7.3,1.2,14.6,0.5,22c-0.2,2.1-0.4,4.1-0.9,6.1c-0.3,1.3-0.8,2.5-1.4,3.7c-1.7,3.5-6.7,5.5-10.8,2.5
		C189.5,151.6,189.1,151.3,188.7,151z M178.9,134.4c0.7-1,1.1-1.8,0.7-2.8c-0.7-1.6-3-2.6-4.6-1.8c-1.8,0.9-3.5,1.9-5.3,2.8
		c-0.6,0.3-0.6,0.7-0.4,1.2c0.1,0.3,0.3,0.6,0.4,0.9c0.5,1.3,0.4,1.9-0.7,2.8c-2.4,2-3.6,1.7-5.1-1.1c0-0.1-0.1-0.1-0.1-0.2
		c-0.3-0.8-0.8-1-1.6-0.8c-2.5,0.7-5.1,1.2-7.8,1.4c-0.9,0.1-1.2,0.4-1.2,1.3c0,1,0,2-0.1,3c-0.2,2-1.4,2.9-3.3,2.8
		c-1.4-0.1-2.2-1.1-2.3-2.9c0-0.9,0-1.9,0-2.8c0-1.3,0-1.3-1.3-1.5c-2.4-0.3-4.8-0.4-7.1-0.9c-0.8-0.2-1.7-0.6-2.4-0.4
		c-1,0.3-0.7,1.5-1,2.2c-0.4,0.8-0.7,1.6-1.7,1.8c-2.5,0.5-4.2-1.2-3.6-3.7c0.1-0.4,0.2-0.7,0.3-1.1c0.4-0.9,0-1.2-0.8-1.4
		c-1.2-0.3-2.4-0.7-3.6-1.1c-1.2-0.4-2.1,0-2.9,0.8c-1.5,1.4-1.6,3.4-0.3,5.1c2.7,3.5,6.4,5.8,10.3,7.8c0.5-1,1-1.8,1.5-2.7
		c1-1.6,2.3-1.9,4.4-0.8c1.4,0.7,1.7,1.7,1.1,3.5c-0.3,0.7-0.8,1.4-0.8,2.3c4.9,1.3,9.8,1.4,14.7,1.1c0.9,0,1.2-0.4,1.1-1.3
		c-0.2-1.5-0.3-3,0.1-4.5c0.2-1,0.8-1.6,1.8-1.7c0.4,0,0.7-0.1,1.1-0.1c1.9-0.2,2.7,0.3,3,2.2c0.2,1,0.2,2,0.2,3
		c0.1,0.8,0.3,1.1,1.2,0.8c3.8-1.4,7.3-3.3,10-6.4c0.6-0.8,1.7-1.4,1.8-2.3c0.1-0.9-0.9-1.6-1.4-2.4c-1.3-2-0.7-3.8,1.5-4.7
		c1-0.4,1.8-0.3,2.5,0.6C178,132.9,178.4,133.5,178.9,134.4z M137.8,125.1c2.4,0.1,3.3-1,2.9-3.3c-0.1-0.4-0.1-0.9-0.3-1.3
		c-1.3-4.6-2.9-9-4.5-13.5c-0.2-0.6-0.5-1.1-1-1.6c-0.5-0.5-1-0.7-1.6-0.1c-0.9,0.7-1.6,1.6-2,2.6c-1.8,3.9-3.3,7.8-4.6,11.9
		c-0.7,2.3,0,3.3,2.3,4C131.9,124.6,134.9,124.9,137.8,125.1z M164.5,125.2c0.8-0.1,2.3-0.1,3.7-0.3c1.7-0.2,2.4-1.2,2.2-2.9
		c-0.1-0.8-0.3-1.6-0.5-2.4c-1.3-4.6-3-9.2-4-13.9c-0.1-0.2-0.2-0.5-0.3-0.7c-0.5-1.1-1.2-1.3-2.2-0.6c-0.9,0.6-1.2,1.6-1.6,2.5
		c-1.5,3.9-2.9,7.8-4,11.7c-0.2,0.8-0.5,1.7-0.6,2.6c-0.3,2,0.4,2.9,2.3,3.5C160.9,125.3,162.4,125.2,164.5,125.2z"/>
	<path d="M158.5,64.8c-4.1,0.4-8.1,0.7-12.2,1.3c-1.4,0.2-2.9,0.5-4.2,1.1c-1.2,0.6-2,1.5-1.9,3.2c0,0.1,0,0.5,0.1,0.9
		c0.9,4.1,1.8,8.2,2.7,12.3c0.1,0.5,0.2,1,0.5,1.4c0.5,1,1.1,1.2,2.3,1c1.1-0.2,2-0.6,3-1c1.4-0.5,2.8-0.6,4.2-0.1
		c1.6,0.5,1.9,0.4,2.7-1.1c0.3-0.5,0.5-1,0.6-1.6c1-4.8,2.5-9.4,4.5-13.9C161.9,66.3,161.1,64.6,158.5,64.8z"/>
</g>
</svg>
