<?xml version="1.0" encoding="utf-8"?>
<!-- Generator: Adobe Illustrator 21.1.0, SVG Export Plug-In . SVG Version: 6.00 Build 0)  -->
<svg version="1.1" id="Calque_1" xmlns="http://www.w3.org/2000/svg" xmlns:xlink="http://www.w3.org/1999/xlink" x="0px" y="0px"
	 viewBox="0 0 432 432" style="enable-background:new 0 0 432 432;" xml:space="preserve">
<style type="text/css">
	.st0{fill:#333333;}
	.st1{fill:#E0861B;}
	.st2{fill:#751F72;}
	.st3{fill:#4D4D4D;}
</style>
<path d="M328.8,128c2.4,0.2,4.5-0.5,6.7-0.9c2.3-0.4,4.6-0.4,6.4,1.2c1.4,1.4,2.4,0.7,3.9,0.2c7.3-2.7,14.8-4.6,22.6-1.7
	c1.1,0.4,2.2,0.3,3.3,0.3c2.7-0.1,3.7,0.6,4.2,3.2c0.8,4.2,1.5,8.3,2,12.6c0.5,5-1.6,7-6.7,7.1c-5.2,0.1-10.4,0.5-15.5,2.3
	c-3.5,1.2-7.2,1.1-10.8,0.5c-3.4-0.5-6.7-0.2-10.1-0.3c-1.1,0-2,0.2-2.1,1.6c-0.3,3.6-2.2,6.6-3.9,9.7c-0.8,1.4-1.5,2.9-2.3,4.3
	c-2.2,3.8-2.9,7.9-2.2,12.3c0.1,0.5,0.2,1,0.2,1.5c0.1,8.1,0.3,16.2,1.9,24.2c0.1,0.5,0.1,1,0,1.5c-2,7.9,0,16-0.8,23.9
	c-0.4,4,0.6,7.7,2.7,11.1c0.7,1.1,1.2,2.2,1.9,3.3c1.7,2.9,2.5,5.9,2.4,9.3c-0.1,4.2-0.5,8.5,0.3,12.7c0.4,2.1-0.6,3.5-2.7,3.8
	c-5.7,0.7-11.1,3.1-16.9,3.5c-2.1,0.1-4.3,0.3-6.4,0.1c-2.5-0.2-3.6-1.3-4-3.7c-0.2-1.5-0.3-3-0.3-4.5c-0.1-9.1,1.3-18.2-0.2-27.3
	c-0.2-1.2-0.1-2.5,0-3.7c0.6-11-0.9-21.9-2.8-32.8c-0.7-4.3-1.2-8.4,0.5-12.5c0.1-0.3,0.4-0.7,0.3-1.1c-1.1-6.5,1.5-13.2-1.1-19.7
	c-1.2-2.9-0.3-5.9,0.4-8.8c0.5-2,0.8-3.9,0.5-5.9c-0.6-3.9-0.9-4.3-4.8-3.9c-3.5,0.3-7,0.5-10.5,0.4c-2.6-0.1-5.2-0.3-7.8-1.1
	c-2-0.6-3.9-0.5-5.8,0.5c-1.3,0.7-2.7,1.2-4.2,1.6c-5.6,1.7-10.8-1.7-11.4-7.5c-0.4-3.2-0.3-6.5-0.6-9.7c-0.3-4,4.6-7.9,8.7-7.2
	c2.7,0.4,5.4,0.9,8.1,1.5c2.8,0.5,5.4,0.5,8.1-0.5c3.8-1.4,7.5-2.4,11.7-1.5c2.5,0.6,5.2-0.7,7.8-0.1c0.7,0.2,1-0.6,1.1-1.2
	c1-6.2,3.1-12.1,4.9-18.1c0.5-1.7,0.4-3.2-0.5-4.7c-1.2-1.9-2.2-3.9-3.6-5.7c-4.1-5.4-1.7-11.5,1.2-16c0.6-1,1.7-1.5,2.8-1.9
	c5.2-2.1,10.5-3.1,16.1-2.8c4.4,0.3,7.6,2.1,8.7,6.7c0.7,2.7,1.5,5.4,1,8.1c-0.5,2.7-0.6,5.5-0.5,8.2c0.1,3.4-0.3,6.7-1.1,10
	c-0.5,2.1-0.8,4.3-0.3,6.3c0.8,3.6,0.4,6.9-0.6,10.3C328.7,127,328.8,127.4,328.8,128z"/>
<path d="M238.6,116.5c-0.2-0.7-0.6-1.3-1-1.9c-1.4-1.8-2.7-3.7-4.2-5.5c-8.4-10.6-19.5-16.1-32.8-16.9c-12.7-0.8-23.3,3.7-31.2,13.9
	c-2,2.5-3.9,5.2-5.5,8c-2.5,4.3-4.7,8.7-6.3,13.4c-0.2,0.5-0.3,1-1,1c-0.6,0-1.1-0.1-1.5-0.8c-0.5-1-1.2-1.9-1.8-2.8
	c-0.5-0.7-1.2-1.3-2.2-1c-1,0.3-1.2,1.2-1.2,2.1c0,1.1,0.1,2.1,0.2,3.2c0.1,1.1-0.9,1.2-1.5,1.6c-0.6,0.4-0.9-0.1-1.3-0.5
	c-0.8-1.1-1.9-2-3.1-2.7c-1.5-0.9-2.8,0-2.7,1.7c0,0.8,0.3,1.6,0.7,2.2c0.7,1,1.3,2.1,2.1,3.3c-0.7,0.3-1.1,0-1.5-0.2
	c-3-1.3-6.2-2.2-9.4-3c-14.8-3.8-30.4,3.8-37,17.3c-3.2,6.6-4.9,13.5-5.4,20.8c-0.5,7.2,0.6,14.2,2.4,21.2c0.5,2.1,1.3,4,2.1,6
	c0.4,1,1,2,2.3,1.9c0.9,0,1.6-0.8,1.9-2.5c0.4-2.3,0.8-4.6,1.2-6.8c0.7-4.3,1.9-8.4,3.9-12.2c1.8-3.5,4.1-6.7,7-9.2
	c3.7-3.2,8.4-3,12,0.4c1.2,1.1,2.1,2.5,2.9,4c0.3,0.7,0.6,1.3,1,1.9c0.9,1.3,2.3,1.4,3.2,0.1c0.6-0.9,1.1-1.9,1.6-2.9
	c1.3-2.5,2.7-4.8,4.6-6.9c3-3.4,6.7-5.5,11.2-6.2c4-0.6,7.9,0,11.8,0.9c3.9,1,6.9,3,8.6,6.6c0.4,0.9,1,1.4,2,1.3
	c0.8-0.1,1.4-0.9,1.5-2.1c0-1.3,0-2.5,0-3.8c0-6.8,2-13,6.2-18.4c4.3-5.4,10.2-7.2,16.8-5.1c2.4,0.8,3.6-0.3,3.2-2.8
	c-0.3-1.5-0.5-3-0.8-4.5c-0.7-4.3,0.8-7.6,4.3-10.2c2.7-1.9,5.6-3.2,8.9-3.8c8.5-1.6,16.8-1.1,24.9,1.9c0.3,0.1,0.6,0.3,0.9,0.3
	C238,119,238.9,118,238.6,116.5z"/>
<g>
	<path d="M304.7,358.5c-0.2-1.6-1.3-2.2-2.7-1.4c-1.3,0.7-2.6,1.6-3.9,2.4c-0.4,0.2-0.7,0.7-1.3,0.3c0.9-4.8,2-9.6,3.6-14.3
		c0.3-0.9,0.6-1.8,0.8-2.7c0.2-1,0-1.9-0.9-2.4c-1-0.6-1.8-0.2-2.5,0.5c-1.2,1-2.4,2.1-3.6,3.1c-4.5,3.7-8.7,7.7-12.2,12.4
		c-0.2,0.2-0.3,0.6-0.8,0.5c0-0.9,0-1.8,0-2.7c0.3-4.9,0.8-9.9,1.4-14.8c0.3-2.1,0.6-4.2,0.6-6.3c0-0.9-0.3-1.7-1.3-2
		c-1-0.3-1.6,0.2-2.2,0.9c-0.6,0.9-1.2,1.7-1.9,2.5c-4.5,5.4-7.8,11.4-9.8,18.2c-0.1,0.4-0.1,1-0.8,1.4c-1.4-3.4-2.2-6.7-4-10.4
		c0,0,0-0.1,0-0.1c1.4-7.9,2.9-18.2,4-26.1c3.1-22.3,7.3-44.4,11-66.6c0.7-4.2,1.6-8.3,1.9-12.5c0.1-1.8-0.2-2.2-2-2.6
		c-0.3-0.1-0.7-0.1-1-0.1c-5.1-0.5-10.2-1.1-15.4-1.6c-2.6-0.3-3.3-0.9-3.7-3.5c-0.4-3-1.2-5.9-2.7-8.7c-4.2-7.8-9.6-14.7-16.7-20.1
		c-9.2-7-19.5-10.7-31.2-9.4c-5.3,0.6-10.3,2.1-15.1,4.6c-9.1,4.7-15.9,11.8-21.6,20.3c-2.7,4.1-4.8,8.5-5.4,13.5
		c-0.3,2.4-1,3.1-3.4,3.3c-5.1,0.6-10.1,1.1-15.2,1.6c-0.7,0.1-1.4,0.2-2.1,0.3c-0.9,0.2-1.3,0.7-1.2,1.5c0.1,1.1,0.1,2.2,0.3,3.4
		c1.6,11,3.6,21.9,5.6,32.8c1.7,9.7,3.4,19.4,4.9,29.1c1.7,11.2,3.3,22.3,5.3,33.4c0.3,1.7,1,4.6,1.4,6.8c-1.1,2.3-1.8,3.9-2.7,6.3
		c-0.9,2.5-1.8,4.9-2.4,7.5c-0.1,0.4-0.3,0.8-0.5,1.4c-0.3-0.8-0.5-1.3-0.7-1.8c-1.3-3.7-2.5-7.5-3.8-11.2c-0.3-1-0.7-2-1.4-2.8
		c-0.5-0.6-1.2-1-2.1-0.8c-0.9,0.2-1.2,0.9-1.3,1.8c-0.2,1.5-0.6,2.8-1,4.2c-1.4,4.5-2.9,9-4.3,13.6c-0.1,0.3,0,0.7-0.6,0.7
		c-2.5-4-5.5-7.5-8.8-10.9c-3.4-3.4-7.2-6.2-11.7-7.9c-1-0.4-2-0.7-3.1-0.7c-2.3,0.1-3.4,1.5-2.7,3.7c0.3,1.1,0.9,2.1,1.4,3.1
		c4.6,9.4,9.9,18.5,12.4,28.9c0.1,0.4,0.4,0.8,0.7,1.2c0.4,0.5,0.9,0.6,1.4,0.4c0.5-0.2,0.7-0.6,0.6-1.1c0-0.5-0.1-1-0.3-1.6
		c-1.2-4.6-2.9-8.9-5-13.1c-2.5-4.9-5-9.7-7.2-14.8c-0.2-0.6-0.7-1.1-0.5-1.9c1.5,0.5,2.6,1.4,3.8,2.2c4.5,2.9,8.3,6.7,12,10.6
		c1.5,1.6,3,3.2,4.8,4.5c2.5,1.8,3.6,1.5,4.2-1.5c1-4.9,2.8-9.6,4.5-14.3c0.1-0.3,0.2-0.5,0.7-0.7c1.3,5.2,3.8,9.9,6.5,14.5
		c0.3,0.5,0.6,1,1.1,1.4c0.7,0.6,1.6,0.3,1.9-0.6c0.1-0.4,0.1-0.8,0.1-1.2c0-1.9,0.4-3.7,0.8-5.5c1.9-6.9,5-13.2,8.6-19.3
		c0.1-0.1,0.2-0.1,0.4-0.3c0.1,0.8,0.3,1.6,0.4,2.3c1.2,9,4,17.5,8,25.6c0.4,0.9,0.9,1.8,1.7,2.4c1,1,2.1,0.8,2.7-0.5
		c0.4-0.8,0.6-1.6,0.7-2.5c1.3-6.3,1.3-12.7,0.6-19.1c-0.1-0.6-0.2-1.3,0-2.2c1,1.2,1.6,2.3,2.2,3.3c3.2,5.2,5,11.2,8.6,16.2
		c0.3,0.4,0.5,1,1.1,1c0.7,0,0.8-0.7,0.9-1.1c0.3-1.3,0.5-2.6,0.8-3.8c1.4-6.5,3.5-12.8,7-18.6c0.3-0.5,0.4-1.1,1.1-1.4
		c0.3,3.1,0.6,6,1,9c0.5,4.7,1.2,9.4,2.4,14c0.2,1,0.5,1.9,0.9,2.8c0.9,2.1,2.2,2.4,3.8,0.9c0.6-0.5,1.1-1.2,1.6-1.8
		c4.7-5.6,8.2-12,10-19.1c0.5-2,1-3.9,1.7-5.8c0.6,0.4,0.6,0.9,0.8,1.4c1.6,4.3,2.7,8.7,3.4,13.2c0.6,3.7,0.7,7.5,1.2,11.2
		c0.1,1,0.1,2.3,1.4,2.6c1.4,0.3,1.7-0.9,2.2-1.8c3-5.3,6.8-10.1,11.1-14.4c0.4-0.4,0.7-1,1.5-0.8c0.2,1.1,0.3,2.2,0.5,3.3
		c0.5,3.9,1.1,7.7,2.4,11.4c0.4,1.1,0.8,2.3,1.6,3.2c1,1.1,2.1,1,2.9-0.3c0.3-0.6,0.6-1.3,0.8-2c2.1-7.5,2.5-15.2,1.3-22.9
		c-0.2-1.3-0.5-2.7-0.5-4.1c0.2,0.1,0.4,0.1,0.5,0.2c2.9,4.2,5.5,8.5,7,13.5c1,3.5,1.6,7.1,2.3,10.6c0.2,0.8,0.3,1.7,0.7,2.4
		c0.4,0.6,0.9,1,1.6,0.9c0.8-0.1,1.3-0.6,1.5-1.4c0.1-0.4,0.1-0.8,0.1-1.2c0-1.6,0.1-3.2,0.4-4.7c1.3-7.6,4-14.6,9-20.6
		c0.3-0.3,0.4-0.9,1.1-0.7c-0.1,1-0.3,2-0.4,2.9c-0.9,6.9-1.6,13.9-1.4,20.9c0,1,0.1,2,0.4,2.9c0.2,0.7,0.7,1.1,1.4,1.2
		c0.8,0,1.2-0.4,1.6-1c0.1-0.2,0.2-0.5,0.3-0.7c0.9-3.1,2.6-5.7,4.7-8.2c3.1-3.7,6.7-6.9,10.6-9.8c0.2-0.1,0.4-0.4,0.7-0.1
		c-0.1,0.3-0.2,0.6-0.3,0.9c-1.7,4.1-2.7,8.4-3.4,12.8c-0.2,1.2-0.3,2.5-0.1,3.7c0.3,1.6,1.6,2.1,2.9,1.1c0.6-0.5,1.2-1.1,1.8-1.5
		c0.9-0.7,1.9-1.4,3.3-1.7c-0.3,0.9-0.6,1.6-0.8,2.3c-1.5,3.8-2.8,7.7-3.8,11.7c-0.3,1-0.4,2.1-0.4,3.1c0,0.6,0.3,1.2,1,1.4
		c0.6,0.2,1.2,0,1.6-0.6c0.6-0.8,1-1.7,1.3-2.6c1-2.9,2-5.7,3-8.6c0.7-2,1.3-4,1.9-6.1C304.7,360.2,304.8,359.4,304.7,358.5z
		 M191.5,281.4c-0.4,3.9-1,7.7-1.5,11.6c-0.1,0.9-0.1,1.8-0.1,2.8c0,0.7-0.1,1.4-0.5,2.1c-0.8,1.2-2.1,1.2-3,0.2
		c-0.5-0.6-0.8-1.4-0.9-2.2c-1.3-6.1-1.6-12.1-1-18.3c0.4-4.3,0.8-8.5,0.6-12.8c0-0.6,0-1.2-0.1-1.8c-0.2-3.1-1.1-3.8-4.4-3.4
		c-0.1,1.1,0.3,2.1,0.5,3.1c0.8,5.6,0.1,11-1.4,16.4c-1.6,6-3.6,11.9-7,17.2c-0.4,0.6-0.8,1.2-1.2,1.8c-0.4,0.5-0.9,0.9-1.5,0.5
		c-0.5-0.3-0.5-0.9-0.3-1.4c0.4-0.8,0.7-1.7,1.2-2.5c2.7-5,4.9-10.2,6.4-15.7c1.3-4.6,2.1-9.3,1.7-14.1c-0.1-1.3-0.4-2.6-0.6-3.9
		c-0.2-1-0.6-1.5-1.7-1.3c-1.2,0.2-2.4,0.2-3.5,0.3c-2.9,0.3-5.7,0.1-8.4-0.7c-2.5-0.8-4.6-2.1-5.1-4.9c-0.5-2.7,0.4-4.9,2.4-6.8
		c2-1.9,4.4-2.2,7-1.4c1.7,0.5,3.2,1.6,4.5,2.8c2.1,1.8,3.8,4,5.2,6.4c0.8,1.4,0.8,1.4,2.5,1.1c0.7-0.1,1.4-0.3,2.1-0.4
		c3.8-0.5,6.6,1.1,8,4.7c1,2.4,1.2,5,1.2,7.6C192.3,272.6,191.9,277,191.5,281.4z M201.6,293.3c-1.6,0.1-3-1.3-3-3
		c0-1.8,1.4-3.3,3.2-3.4c1.6,0,2.9,1.2,2.9,2.8C204.7,291.5,203.2,293.2,201.6,293.3z M205.4,244.2c-0.5-5.5-0.9-10.9-1-16.4
		c0-1.5,0-1.5-1.5-1.6c-1.7,0-3.4,0-5.1-0.1c-2.3-0.1-3-0.8-3.3-3.1c-0.1-1.1-0.2-2.2-0.3-3.4c-0.1-2.1,0.4-2.7,2.4-3.2
		c2-0.5,4.1-0.8,6.3-0.9c1.6-0.1,1.6-0.1,1.7-1.7c0.1-1.4,0.1-2.9,0.2-4.4c0.1-2.1,0.8-2.7,2.8-2.7c0.9,0,1.7,0,2.6,0c0,0,0,0,0,0
		c1-0.1,2-0.2,3-0.2c2.1,0.1,2.8,0.9,2.8,2.9c0,1.1,0,2.2,0,3.4c0.1,1.5,0.1,1.6,1.6,1.5c1.6,0,3.3-0.1,4.9-0.2
		c1.6-0.1,2.5,0.4,2.7,1.9c0.3,2.1,0.4,4.2,0.2,6.3c-0.1,1.4-1.1,2.2-2.4,2.6c-1.2,0.4-2.5,0.4-3.7,0.6c-1.7,0.2-1.7,0.2-1.6,1.9
		c0.1,4.4,0.9,8.7,1.4,13c0.1,1.2,0.2,2.4,0,3.5c-0.2,1.4-0.9,2.2-2.4,2.5c-2.1,0.4-4.3,0.9-6.4,1.3
		C207.4,248.6,205.7,247.3,205.4,244.2z M225,291.7c-0.6,0.4-1.3,0.6-2,0.8c-2.9,0.5-5.8,1.1-8.8,1.6c-0.6,0.1-1.3,0.2-2,0
		c-1.2-0.4-1.6-1.7-0.7-2.7c0.5-0.6,1.3-0.9,2-1.2c0.8-0.2,1-0.6,1-1.4c-0.6-7.9-1.1-15.8-1.7-23.7c-0.1-1.4-0.2-2.9-0.2-4.3
		c-0.9,0-1.7,0-2.5,0c-1.2-0.1-2-0.8-2.2-1.7c-0.1-0.8,0.4-1.7,1.5-2.1c1.3-0.5,2.8-0.9,4.2-1.1c2.7-0.3,5.4-0.8,8.1-0.3
		c0.4,0.1,0.9,0.2,1.3,0.4c0.8,0.3,1.2,1,1.1,1.9c-0.1,0.8-0.6,1.3-1.4,1.4c-1.6,0.3-3.1,0.6-4.8,0.9c1.1,4.9,1.3,9.8,1.6,14.7
		c0.2,3.8,0.4,7.6,0.6,11.5c0.1,2.5-0.1,2.4,2.2,2.1c0.7-0.1,1.4,0,2.1,0.2c0.7,0.2,1.4,0.6,1.5,1.4
		C226.2,290.8,225.6,291.3,225,291.7z M234.3,292.1c-1.5,0-2.6-1.2-2.6-2.7c0-1.5,1.1-2.6,2.6-2.6c1.5,0,2.6,1.2,2.6,2.6
		C236.9,291,235.7,292.1,234.3,292.1z M253.5,282.2c-1.1,0.1-2.2-0.3-3.3-0.4c-0.3,1-0.1,1.9,0,2.8c0.1,1.9,0.3,3.8-0.1,5.7
		c-0.3,1.4-1,2.1-2.1,2.3c-1.2,0.2-2.2-0.4-2.8-1.7c-0.9-2.1-1.2-4.3-1.5-6.5c-0.8-6.4-1.5-12.8-1.9-19.3c-0.1-1.8-0.2-3.6,0.2-5.3
		c0.2-1,0.6-1.9,1.8-2.1c1-0.3,1.9,0.2,2.6,1.3c0.8,1.2,1.1,2.7,1.8,4.3c0.9-2.6,1.8-4.7,3.1-6.6c0.9-1.4,1.9-2.7,3.2-3.7
		c2.9-2.3,6.3-2.1,8.9,0.5c1.6,1.6,2.6,3.5,3.2,5.6c1.5,5.4,1,10.7-1.3,15.8C262.9,279.6,258.8,281.9,253.5,282.2z"/>
	<path d="M259.7,257.2c-1.1-1.6-2.3-1.8-3.9-0.7c-1.1,0.8-2,1.9-2.8,3c-1.5,2.2-2.5,4.6-3.3,7.1c-0.6,1.6-0.9,3.3-0.6,5
		c0.2,1.4,0.3,2.7,0.4,4.1c0.1,1.8,0.3,2.1,2.1,2.6c1,0.3,1.9,0.3,2.9,0.1c2.6-0.5,4.5-2,5.8-4.3c1.3-2.5,1.7-5.1,1.8-7.8
		c-0.1-1.1-0.1-2.2-0.3-3.3C261.4,261,260.9,259,259.7,257.2z"/>
	<path d="M172.9,251.5c-1.4-1.3-2.9-2.5-4.8-3c-2.4-0.7-4.6,0.5-5.5,3c-0.8,2.1,0,3.8,2.4,4.9c2,0.9,4.2,1.2,6.6,1.2
		c1.2-0.1,2.7-0.2,4.1-0.4c1.1-0.1,1.2-0.4,0.6-1.4C175.4,254.2,174.2,252.8,172.9,251.5z"/>
</g>
</svg>
