<?xml version="1.0" encoding="utf-8"?>
<!-- Generator: Adobe Illustrator 21.1.0, SVG Export Plug-In . SVG Version: 6.00 Build 0)  -->
<svg version="1.1" id="Calque_1" xmlns="http://www.w3.org/2000/svg" xmlns:xlink="http://www.w3.org/1999/xlink" x="0px" y="0px"
	 viewBox="0 0 432 432" style="enable-background:new 0 0 432 432;" xml:space="preserve">
<style type="text/css">
	.st0{fill:#E94E1B;}
	.st1{fill:#F39200;}
	.st2{fill:#010202;}
	.st3{fill:#FFE564;}
	.st4{fill:#B2B2B2;}
	.st5{fill:#C6CAD2;}
	.st6{fill:#662483;}
	.st7{fill:#D2E0E9;}
	.st8{fill:#95C11F;}
	.st9{fill:#3AAA35;}
	.st10{fill:#432918;}
</style>
<g>
	<circle class="st3" cx="226.9" cy="196.8" r="132"/>
	<g>
		<path d="M291.2,145.5c0-1.8,0.1-3.7,0.1-5.5l0,0l0.3-0.1c3.9-1.9,8-1.9,12.3-1.9c2.9,0,5.8-0.1,8.7-0.7h0c1.2-0.2,2.4-0.6,3.5-1.6
			c3-2.6,3.6-9,2.5-13.4c-1.4-5.7-4.9-8.5-6.9-9.7l-1.5-0.9l0.5,1.7c0.9,3.4,1.1,8-0.6,9.9c-0.6,0.7-1.4,0.9-2.1,1
			c-4.5,0.7-9.6-1.9-15.2-7.7l0,0c-0.2-0.2-0.3-0.3-0.5-0.5c0-0.4,0-0.7,0.1-1.1c0.1-0.9-1.1-1.1-1.6-0.6l-0.2-0.2l0,0.8
			c0,0,0,0,0,0c-0.7,10.2-1.2,20.4-1.4,30.6c-10.9,28.9-39.6,80.8-48.5,54.1c-8.3,13.8,5.6,16.7,23.2,17.1l0.5,15.7h-2.3v-6.1h-5.5
			l0.4,6.1h-4.6v-4.7l-7.7,0.7v4H241l-0.2-5.4h-6.3v5.4h-2l2-70.8c20.3-0.2,37.2-3,27.7-18.9c-10.1,30.3-43.4-31.2-54.6-62.5
			c-11.2,31.2-44.5,92.7-54.6,62.5c-9.5,15.8,7.3,18.6,27.7,18.9l2.1,134.4h-1.6v-6.1h-5.5l0.4,6.1h-4.6v-4.7l-7.7,0.7v4h-3.8
			l-0.2-5.4h-6.3v5.4h-2.8l0.4-13.2c17.5-0.4,31.5-3.2,23.2-17.1c-8.9,26.6-37.6-25.2-48.5-54.1c-0.2-10.2-0.6-20.4-1.4-30.6
			c0,0,0,0,0,0l0-0.8l-0.2,0.2c-0.5-0.5-1.6-0.4-1.6,0.6c0,0.4,0,0.7,0.1,1.1c-0.2,0.2-0.3,0.3-0.5,0.5l0,0
			c-5.5,5.9-10.6,8.5-15.2,7.7c-0.7-0.1-1.5-0.3-2.1-1c-1.7-2-1.5-6.5-0.6-9.9l0.5-1.7l-1.5,0.9c-2,1.2-5.5,4.1-6.9,9.7
			c-1.1,4.4-0.4,10.7,2.5,13.4c1.1,1,2.3,1.3,3.5,1.6c2.9,0.6,5.8,0.6,8.7,0.7c4.3,0,8.4,0.1,12.3,1.9l0.3,0.1l0,0
			c0.1,1.8,0.1,3.7,0.1,5.5c-10.9,28.9-39.7,80.9-48.6,54.2c-8.4,14,5.9,16.7,23.7,17.1l4.7,84.2h6.3h38.4h35.3H214h14.6h84.3v-95
			l3.1-55.4c17.8-0.3,32.1-3.1,23.7-17.1C330.8,226.4,302,174.5,291.2,145.5z M125.9,262.5c4.6,0,9.2,0,13.8,0
			c-0.7,7.1-6.5,12.8-13.8,13.2C125.9,271.3,125.9,266.9,125.9,262.5z M124.1,275.7c-7.2-0.4-13-6.1-13.8-13.2c4.6,0,9.2,0,13.8,0
			C124.1,266.9,124.1,271.3,124.1,275.7z M124.1,294.6c0,7.3,0,14.6,0,21.8c-4.7,0-9.4,0-14.1,0
			C111.5,305.9,115.1,295.3,124.1,294.6z M125.9,294.6c9,0.7,12.7,11.3,14.1,21.8c-4.7,0-9.4,0-14.1,0
			C125.9,309.2,125.9,301.9,125.9,294.6z M139.7,260.7c-4.6,0-9.2,0-13.8,0c0-4.8,0-9.6,0-14.4C133.5,246.7,139.5,253,139.7,260.7z
			 M124.1,246.3c0,4.8,0,9.6,0,14.4c-4.6,0-9.2,0-13.8,0C110.4,253,116.4,246.7,124.1,246.3z M109.6,338.1c0,0-0.8-9.6,0.3-19.7
			c0,0,0-0.1,0-0.1c0.7,0,1.4,0,2.1,0c4.1,0,8.1,0,12.2,0c0,6.6,0,13.2,0,19.9H109.6z M140.5,338.1h-14.6c0-6.6,0-13.2,0-19.9
			c4.8,0,9.5,0,14.3,0C141.4,328.5,140.5,338.1,140.5,338.1z M153.6,308.4l-3.2-0.2l0.1-2.8h3.1V308.4z M153.6,302.5h-3l0.1-3.9h2.9
			V302.5z M163.9,307.9h-3.3l-0.1-2.5h3.4V307.9z M163.9,302.5h-3.5l-0.2-3.9h3.7V302.5z M181.3,298.6h1.6l0.1,3.9h-1.7V298.6z
			 M171.6,298.6h4.7l0.2,3.9h-5V298.6z M171.6,307.4v-2h5.2l0.1,1.5L171.6,307.4z M181.3,307.9v-2.5h1.7l0,1.7L181.3,307.9z
			 M223.1,280.6h-13.9h-0.7c0-4.3,0-8.6,0-12.9c0-2.3,0-4.6,0-7c4.8,0,9.5,0,14.3,0C223.9,270.9,223.1,280.6,223.1,280.6z
			 M223.1,217.6h-14.6c0-6.6,0-13.2,0-19.9c4.8,0,9.5,0,14.3,0C223.9,207.9,223.1,217.6,223.1,217.6z M222.6,195.9
			c-4.7,0-9.4,0-14.1,0c0-7.3,0-14.6,0-21.8C217.5,174.8,221.2,185.4,222.6,195.9z M192.4,197.7c4.8,0,9.5,0,14.3,0
			c0,6.6,0,13.2,0,19.9h-14.6C192.1,217.6,191.3,207.9,192.4,197.7z M206.7,195.9c-4.7,0-9.4,0-14.1,0c1.4-10.6,5.1-21.2,14.1-21.8
			C206.7,181.4,206.7,188.7,206.7,195.9z M206.7,237.1c0,7.3,0,14.6,0,21.8c-4.7,0-9.4,0-14.1,0C194,248.4,197.7,237.8,206.7,237.1z
			 M208.5,251.6c0-4.8,0-9.7,0-14.5c7.1,0.5,10.9,7.2,12.9,15.2c0.5,2.1,0.9,4.4,1.2,6.6c-4.7,0-9.4,0-14.1,0
			C208.5,256.5,208.5,254,208.5,251.6z M208.5,147.9c0-4.4,0-8.8,0-13.2c4.6,0,9.2,0,13.8,0C221.6,141.9,215.7,147.5,208.5,147.9z
			 M206.7,147.9c-7.2-0.4-13-6.1-13.8-13.2c4.6,0,9.2,0,13.8,0C206.7,139.1,206.7,143.5,206.7,147.9z M192.4,260.7
			c4.8,0,9.5,0,14.3,0c0,6.6,0,13.2,0,19.9h-14.6C192.1,280.6,191.3,270.9,192.4,260.7z M222.3,132.9c-4.6,0-9.2,0-13.8,0
			c0-4.8,0-9.6,0-14.4C216.1,119,222.2,125.2,222.3,132.9z M206.7,118.5c0,4.8,0,9.6,0,14.4c-4.6,0-9.2,0-13.8,0
			C193,125.2,199.1,119,206.7,118.5z M225.6,364.3h-11.7h-0.2h-7.2h-19c0,0-3.5-40.3,11.1-50.9c2.2-1.6,4.8-2.6,8-2.6
			c1.6,0,3.1,0.2,4.4,0.7C229.6,317.8,225.6,364.3,225.6,364.3z M234.5,244.7l-2.4-0.2l0.1-2.9h2.3V244.7z M234.5,238.8h-2.2
			l0.1-3.9h2.1V238.8z M274.7,272c0,0-0.7-7.7,0-16.7c0.1-1,0.2-2.1,0.3-3.2c4.8,0,9.5,0,14.3,0c0,1.3,0,2.7,0,4
			c0,5.3,0,10.6,0,15.9H274.7z M291.2,196.3c4.6,0,9.2,0,13.8,0c-0.7,7.1-6.5,12.8-13.8,13.2C291.2,205.1,291.2,200.7,291.2,196.3z
			 M289.4,209.5c-7.2-0.4-13-6.1-13.8-13.2c4.6,0,9.2,0,13.8,0C289.4,200.7,289.4,205.1,289.4,209.5z M289.3,228.5
			c0,7.3,0,14.6,0,21.8c-4.7,0-9.4,0-14.1,0C276.6,239.8,280.3,229.2,289.3,228.5z M291.1,228.5c9,0.7,12.7,11.3,14.1,21.8
			c-4.7,0-9.4,0-14.1,0C291.1,243.1,291.1,235.8,291.1,228.5z M305,194.5c-4.6,0-9.2,0-13.8,0c0-4.8,0-9.6,0-14.4
			C298.8,180.6,304.9,186.8,305,194.5z M289.4,180.1c0,4.8,0,9.6,0,14.4c-4.6,0-9.2,0-13.8,0C275.7,186.8,281.8,180.6,289.4,180.1z
			 M275.7,301.1c3.9,5.2,5.9,13.1,6.9,21c-5.9,0-11.7,0-17.6,0c0-9,0-18.1,0-27.1c0.5,0,1,0.1,1.4,0.2
			C270.3,295.7,273.3,297.9,275.7,301.1z M262.2,235h2.4l0.1,3.9h-2.5V235z M262.2,241.7h2.6l0.1,3.6l-2.7-1.1V241.7z M252.5,235
			h4.7l0.2,3.9h-5V235z M252.5,241.7h5.2l0.1,1.5l-5.3,0.5V241.7z M263.2,294.9c0,9,0,18.1,0,27.1c-5.9,0-11.7,0-17.6,0
			C247.3,308.8,251.9,295.6,263.2,294.9z M241.4,241.7h3.4v2.5h-3.3L241.4,241.7z M244.8,235v3.9h-3.5l-0.2-3.9H244.8z M245.4,323.8
			c5.9,0,11.9,0,17.8,0c0,8.2,0,16.5,0,24.7H245C245,348.5,244,336.5,245.4,323.8z M283.2,348.5H265c0-8.2,0-16.5,0-24.7
			c5.9,0,11.9,0,17.8,0C284.2,336.5,283.2,348.5,283.2,348.5z M305.7,272h-14.6c0-5.3,0-10.5,0-15.8c0-1.4,0-2.7,0-4.1
			c4.8,0,9.5,0,14.3,0c0.2,1.7,0.3,3.3,0.4,4.9C306.3,265.2,305.7,272,305.7,272z"/>
		<path d="M171.5,217.3c0,0,1.7-7.7,6-0.3c-1.7-8.1-4.6-11.3-7.6-13.5c-6.5-4.6-0.5,1.5-6.9,8.2c-2.8,2.9-0.8,3.1-4.3-2.9
			c-1.3-2.3-0.8-1.4-1.6,0.1c-0.2,0.4-3.2,1.3-3.5,1.1c-1.5-0.8-1.5-1.8-1.3,0.8c0.5,6.9,2,5.7-2,4.8c-9.1-2-7.5-10.4-10.3-2.9
			c-1.3,3.4-1.8,7.8,1.3,15.4c-0.5-8.5,5.1-3.1,5.1-3.1s0.8-2.1,3.8-1.6c1.4,0.2,2.5,1.2,3.2,2.4c1.4-5.8,6.4,1.8,8,3.2
			c0.5-2,0.4-11.1,4.8-7.1c-0.1-1.4,0.3-2.8,1.3-3.8C169.6,216,171.5,217.3,171.5,217.3z"/>
		<path d="M142.4,183.8c0,0,1.7-0.9,3.3,1.1c0.7,0.9,0.9,2.2,0.6,3.3c4.2-2.8,3,4.8,3.2,6.5c1.5-1,6.5-6.7,7-1.7
			c0.7-0.9,1.8-1.6,3-1.7c2.5-0.1,3,1.8,3,1.8s5.4-3.9,3.9,3.2c3.5-6,3.5-9.7,2.8-12.7c-1.5-6.6-1.1,0.7-8.9,1.3
			c-3.4,0.3-2.3,1.5-1.1-4.3c0.4-2.2,0.3-1.3-1-0.8c-0.3,0.1-2.7-1-2.8-1.3c-0.5-1.4,0.1-2-1.3-0.2c-3.6,4.6-1.9,4.7-4,1.9
			c-4.6-6.4,1.2-10.7-4.8-7.7c-2.7,1.4-5.5,3.8-7.9,10.4C141.9,177.2,142.4,183.8,142.4,183.8z"/>
		<path d="M312.9,170.4c4.4-5.6,4.9,1,4.9,1s1.7-0.9,3.3,1.1c0.7,0.9,0.9,2.2,0.6,3.3c4.2-2.8,3,4.8,3.2,6.5c1.5-1,6.5-6.7,7-1.7
			c0.7-0.9,1.8-1.6,3-1.7c2.5-0.1,3,1.8,3,1.8s5.4-3.9,3.9,3.2c3.5-6,3.5-9.7,2.8-12.7c-1.5-6.6-1.1,0.7-8.9,1.3
			c-3.4,0.3-2.3,1.5-1.1-4.3c0.4-2.2,0.3-1.3-1-0.8c-0.3,0.1-2.7-1-2.8-1.3c-0.5-1.4,0.1-2-1.3-0.2c-3.6,4.6-1.9,4.7-4,1.9
			c-4.6-6.4,1.2-10.7-4.8-7.7C318,161.5,315.2,163.9,312.9,170.4z"/>
	</g>
</g>
</svg>
