<?xml version="1.0" encoding="utf-8"?>
<!-- Generator: Adobe Illustrator 22.0.1, SVG Export Plug-In . SVG Version: 6.00 Build 0)  -->
<svg version="1.1" id="Calque_1" xmlns="http://www.w3.org/2000/svg" xmlns:xlink="http://www.w3.org/1999/xlink" x="0px" y="0px"
	 viewBox="0 0 432 432" style="enable-background:new 0 0 432 432;" xml:space="preserve">
<style type="text/css">
	.st0{fill:#B3A6AD;}
	.st1{fill:#B6B155;}
	.st2{fill:#990033;}
	.st3{fill:#660A1E;}
	.st4{fill:#A7A6AA;}
	.st5{fill:#EF798A;}
	.st6{fill:#FFB2B2;}
	.st7{fill:#A70808;}
	.st8{fill:#DF4646;}
	.st9{fill:#FF7878;}
	.st10{fill:#F2A297;}
	.st11{fill:#BA1717;}
	.st12{fill:#543A3C;}
	.st13{fill:#CA1542;}
	.st14{fill:#E74C6E;}
	.st15{fill:#006837;}
	.st16{fill:#004924;}
	.st17{fill:#D33757;}
	.st18{fill:#E06581;}
	.st19{fill:#014724;}
	.st20{fill:#E14666;}
	.st21{fill:#ABDFD3;}
	.st22{fill:#C5EFE4;}
	.st23{fill:#DC4160;}
	.st24{fill:#A888AD;}
	.st25{fill:#B99BBF;}
	.st26{fill:#F8A362;}
	.st27{fill:#F9B587;}
	.st28{fill:#F2F2F2;}
	.st29{fill:#FDFFFE;}
	.st30{fill:#F2D668;}
	.st31{fill:#F9E4A5;}
	.st32{fill:#F5A6DF;}
	.st33{fill:#F4CEEB;}
	.st34{fill:#CCCCCC;}
	.st35{fill:#FBB03B;}
	.st36{fill:#FFFFFF;}
	.st37{fill:#ECCDD2;}
	.st38{fill:#8AD7AB;}
	.st39{fill:#8FC8E2;}
	.st40{fill:#D3CE94;}
	.st41{fill:#F9CFCF;}
	.st42{fill:#EDE9C3;}
	.st43{fill:#9BD6EA;}
	.st44{fill:#F8D9C4;}
	.st45{fill:#EB678B;}
	.st46{fill:#A5394C;}
	.st47{fill:#DD726C;}
	.st48{fill:#E5847A;}
	.st49{fill:#EF8A7F;}
	.st50{fill:#3CBC91;}
	.st51{fill:#8CC63F;}
	.st52{fill:#B78D5C;}
	.st53{fill:#2A2A2B;}
	.st54{fill:#EBCEC6;}
	.st55{fill:#F49090;}
	.st56{fill:#B3D8E8;}
	.st57{fill:#EFE6E4;}
	.st58{fill:#FBD8E3;}
	.st59{fill:#E48397;}
	.st60{fill:#B2E6F9;}
	.st61{fill:#42210B;}
	.st62{fill:#E0E0E0;}
	.st63{fill:#9D6D47;}
	.st64{fill:#EFD1B4;}
	.st65{fill:#0071BC;}
	.st66{fill:#679CBA;}
	.st67{fill:#DBDCDD;}
	.st68{fill:#DDB28E;}
	.st69{fill:#C69C6D;}
	.st70{fill:#603813;}
	.st71{fill:#8C6239;}
	.st72{fill:#E9EAE4;}
	.st73{fill:#F7931E;}
	.st74{fill:#754C24;}
	.st75{fill:#A67C52;}
	.st76{fill:#9E1E28;}
	.st77{fill:#F15A24;}
	.st78{fill:#E04819;}
	.st79{fill:#009245;}
	.st80{fill:#00552B;}
	.st81{fill:#84821B;}
	.st82{fill:#CD271F;}
	.st83{fill:#BB8130;}
	.st84{fill:#BBBABF;}
	.st85{fill:#E0E0E2;}
	.st86{fill:#C79359;}
	.st87{fill:#BA844F;}
	.st88{fill:#29ABE2;}
	.st89{fill:#EEB752;}
	.st90{fill:#A8B0B2;}
	.st91{fill:#035684;}
	.st92{fill:#EFBF73;}
	.st93{fill:#D3A272;}
	.st94{fill:#C3C8C9;}
	.st95{fill:#EBDCC9;}
	.st96{fill:#EAD696;}
	.st97{fill:#E57ACC;}
	.st98{fill:#8D5F96;}
	.st99{fill:#FFD9E4;}
	.st100{fill:#60BA84;}
	.st101{fill:#CCEDE5;}
	.st102{fill:#E8E8E8;}
	.st103{fill:#F9D2D2;}
	.st104{fill:#B9B9BA;}
	.st105{fill:#939393;}
	.st106{fill:#62612A;}
	.st107{fill:#79484E;}
	.st108{fill:#C2BE5C;}
	.st109{fill:#F1C3A2;}
	.st110{fill:#B2625C;}
	.st111{fill:#E1AE9D;}
	.st112{fill:#7597A0;}
	.st113{fill:#F2DBD5;}
	.st114{fill:#B27C62;}
	.st115{fill:#E6E6E6;}
	.st116{fill:#AF8864;}
	.st117{fill:#F1E9DF;}
	.st118{fill:#9E6A56;}
	.st119{fill:#2E3192;}
	.st120{fill:#EAEAEA;}
	.st121{fill:#1B1464;}
	.st122{fill:#EAE5E6;}
	.st123{fill:#7F9BEA;}
	.st124{fill:#EEBCC5;}
	.st125{fill:#DB8E98;}
	.st126{fill:#B58187;}
	.st127{fill:#80424C;}
	.st128{fill:#F3EED0;}
	.st129{fill:#CCD8B0;}
	.st130{fill:#46653B;}
	.st131{fill:#345129;}
	.st132{fill:#C9A6AC;}
	.st133{fill:#D6B6BA;}
	.st134{fill:#DE7139;}
	.st135{fill:#F2CB56;}
	.st136{fill:#DE3A55;}
	.st137{fill:#CD9586;}
	.st138{fill:#B47468;}
	.st139{fill:#F5DCD8;}
	.st140{fill:#C4BCBF;}
	.st141{fill:#E0B182;}
	.st142{fill:#9B6B61;}
	.st143{fill:#DBB89B;}
	.st144{fill:#DED2D3;}
	.st145{fill:#7D6364;}
	.st146{fill:#F1A3A1;}
	.st147{fill:#B3B3B3;}
	.st148{fill:#F9CEBE;}
	.st149{fill:#142738;}
	.st150{fill:#911928;}
	.st151{fill:#A32F4E;}
	.st152{fill:#7A0118;}
	.st153{fill:#DAE576;}
	.st154{fill:#E87F38;}
	.st155{fill:#F47621;}
	.st156{fill:#BC5B1B;}
	.st157{fill:#E6EF6A;}
	.st158{fill:#7C0101;}
	.st159{fill:#6DA84A;}
	.st160{fill:#83AF6E;}
	.st161{fill:#39B54A;}
	.st162{fill:#812791;}
	.st163{fill:#FC540D;}
	.st164{fill:#DD4410;}
	.st165{fill:#D3CE6A;}
	.st166{fill:#F2C8AD;}
	.st167{fill:#EFB58E;}
	.st168{fill:#F27622;}
	.st169{fill:#8DA34F;}
	.st170{fill:#ACBF77;}
	.st171{fill:#D6C188;}
	.st172{fill:#E5CED4;}
	.st173{fill:#15104F;}
	.st174{fill:#E5E3E3;}
</style>
<g>
	<g>
		<g>
			<path class="st35" d="M218.7,90.6c0,0-15.4,6.1-15.4,8.7c0,2.6,16.5,7.3,16.5,7.3L218.7,90.6z"/>
			<path class="st6" d="M218.1,110.2c-7.5-22.2,2.5-45.4,23.8-45.4s33.5,5.1,38.5,19.9s4.2,32.9,18.2,38.5c14,5.5,17.8,0.5,21.4-1.2
				c3.6-1.7,11.1,8.4-2.8,11.7c7.2,7.7,1,11.4-5.3,10.8c5.4,10.5-7.6,19.2-17.5,4.9c-24.4,9.1-47.1,6.9-64.3-7.4
				S218.1,110.2,218.1,110.2z"/>
			<path class="st7" d="M244.6,122.7c-3.4-17.5,8.1-20.4,14-20.9c5.9-0.6,35.6-5.2,38.1-2.2c2.5,3.1-18.4,30.2-31.8,32.3
				S245.7,128.6,244.6,122.7z"/>
			<g>
				<circle class="st36" cx="236.8" cy="85.3" r="10.7"/>
				<path class="st53" d="M244.4,85.3c0,4.2-3.4,7.5-7.5,7.5c-4.2,0-7.5-3.4-7.5-7.5c0-3.3,2.1-6.1,5.1-7.1c-0.7,0.9-1.2,2-1.2,3.2
					c0,2.8,2.2,5,5,5s5-2.2,5-5v-0.1C244,82.5,244.4,83.8,244.4,85.3z"/>
			</g>
		</g>
		<g>
			<path class="st35" d="M170,191.2c0,0,15.4,6.1,15.4,8.7s-16.5,7.3-16.5,7.3L170,191.2z"/>
			<path class="st37" d="M170.6,210.8c7.5-22.2-2.5-45.4-23.8-45.4s-33.5,5.1-38.5,19.9c-5,14.8-4.2,32.9-18.2,38.5
				s-17.8,0.5-21.4-1.2c-3.6-1.7-11.1,8.4,2.8,11.7c-7.2,7.7-1,11.4,5.3,10.8c-5.4,10.5,7.6,19.2,17.5,4.9
				c24.4,9.1,47.1,6.9,64.3-7.4C175.9,228.2,170.6,210.8,170.6,210.8z"/>
			<path class="st18" d="M144.2,223.3c3.4-17.5-8.1-20.4-14-20.9c-5.9-0.6-35.6-5.2-38.1-2.2c-2.5,3.1,18.4,30.2,31.8,32.3
				S143,229.2,144.2,223.3z"/>
			<g>
				<circle class="st36" cx="151.9" cy="185.9" r="10.7"/>
				<path class="st53" d="M144.4,185.9c0,4.2,3.4,7.5,7.5,7.5c4.2,0,7.5-3.4,7.5-7.5c0-3.3-2.1-6.1-5.1-7.1c0.7,0.9,1.2,2,1.2,3.2
					c0,2.8-2.2,5-5,5s-5-2.2-5-5v-0.1C144.8,183.1,144.4,184.5,144.4,185.9z"/>
			</g>
		</g>
		<g>
			<path class="st35" d="M340.1,245.5c0,0,28.4,11.3,28.4,16s-30.3,13.4-30.3,13.4L340.1,245.5z"/>
			<path class="st46" d="M341.2,281.5c13.7-40.8-4.6-83.5-43.7-83.5s-61.6,9.4-70.8,36.6c-9.2,27.3-7.7,60.6-33.5,70.8
				c-25.8,10.2-32.7,0.8-39.3-2.3s-20.4,15.4,5.2,21.4c-13.3,14.2-1.9,21,9.8,19.8c-10,19.4,13.9,35.4,32.3,9
				c45,16.7,86.6,12.7,118.2-13.5C351,313.6,341.2,281.5,341.2,281.5z"/>
			<path class="st9" d="M292.5,304.5c6.2-32.1-15-37.5-25.8-38.5c-10.8-1-65.6-9.6-70.1-4c-4.6,5.6,33.9,55.6,58.5,59.3
				S290.5,315.4,292.5,304.5z"/>
			<g>
				<circle class="st36" cx="306.8" cy="235.7" r="19.6"/>
				<path class="st53" d="M292.9,235.7c0,7.7,6.2,13.9,13.9,13.9s13.9-6.2,13.9-13.9c0-6.1-3.9-11.2-9.3-13.1
					c1.3,1.6,2.1,3.6,2.1,5.9c0,5.1-4.1,9.2-9.2,9.2c-5.1,0-9.2-4.1-9.2-9.2v-0.1C293.7,230.5,292.9,233,292.9,235.7z"/>
			</g>
		</g>
	</g>
	<g>
		<path class="st6" d="M101.5,293.1c0.4-0.4,0.8-0.7,1.2-1c2.1-1.6,4.3-2.9,6.8-3.7c2-0.6,4-1,6.1-0.8c4.6,0.4,7.9,3.1,9.2,7.2
			c0.5,1.7,0.7,3.4,0.6,5.2c-0.2,2.6-1.1,5.1-2.2,7.5c-1.3,2.8-3,5.4-4.8,7.9c-4.6,6.4-9.9,12.1-15.8,17.3c-0.7,0.6-1.5,1.2-2.3,1.7
			c-0.8,0.5-1.7,0.8-2.7,0.7c-0.6,0-1.2-0.2-1.8-0.5c-1.1-0.5-2-1.2-2.9-1.9c-2.7-2.3-5.1-4.8-7.2-7.7c-3.4-4.7-6-9.8-7.8-15.4
			c-1.4-4.5-2-9.2-1.7-13.9c0.1-2,0.6-4,1.3-5.9c1.1-2.6,3-4.5,5.6-5.8c2.9-1.5,6-1.8,9.1-0.8c2,0.7,3.8,1.8,5.2,3.4
			c1.7,1.7,2.9,3.8,3.8,6C101.3,292.7,101.4,292.9,101.5,293.1z"/>
		<path class="st46" d="M147.7,100.7c0.1-0.6,0.2-1,0.3-1.5c0.5-2.6,1.4-5,2.7-7.2c1.1-1.8,2.4-3.4,4.1-4.6c3.8-2.7,8-2.8,11.7-0.5
			c1.5,0.9,2.8,2.1,3.8,3.5c1.6,2.1,2.5,4.6,3.2,7.1c0.8,3,1.3,6,1.5,9.1c0.7,7.8,0.4,15.6-0.7,23.4c-0.1,1-0.3,1.9-0.6,2.8
			c-0.3,0.9-0.8,1.7-1.5,2.3c-0.5,0.4-1.1,0.6-1.7,0.8c-1.1,0.3-2.3,0.4-3.4,0.4c-3.5,0.1-7-0.3-10.4-1.1c-5.7-1.3-11-3.5-15.9-6.6
			c-4-2.5-7.5-5.6-10.4-9.4c-1.2-1.6-2.2-3.4-2.8-5.3c-0.9-2.7-0.7-5.4,0.4-8c1.3-3,3.4-5.3,6.4-6.5c2-0.8,4-1.1,6.1-0.9
			c2.4,0.2,4.6,1,6.8,2.1C147.3,100.6,147.5,100.6,147.7,100.7z"/>
	</g>
</g>
</svg>
