<?xml version="1.0" encoding="utf-8"?>
<!-- Generator: Adobe Illustrator 22.0.1, SVG Export Plug-In . SVG Version: 6.00 Build 0)  -->
<svg version="1.1" id="Calque_1" xmlns="http://www.w3.org/2000/svg" xmlns:xlink="http://www.w3.org/1999/xlink" x="0px" y="0px"
	 viewBox="0 0 432 432" style="enable-background:new 0 0 432 432;" xml:space="preserve">
<style type="text/css">
	.st0{fill:#940808;}
	.st1{fill:#E56B6B;}
	.st2{fill:#1A1A1A;}
	.st3{fill:#DD5151;}
	.st4{fill:#6B313C;}
	.st5{fill:#B65165;}
	.st6{fill:#EB899F;}
	.st7{fill:#9C0000;}
	.st8{fill:#4D4D4D;}
	.st9{fill:#C4924B;}
	.st10{fill:#333333;}
	.st11{fill-rule:evenodd;clip-rule:evenodd;fill:#9C0000;}
	.st12{fill:#F68484;}
	.st13{fill:#AB1F1F;}
	.st14{fill:#A45F6F;}
	.st15{fill:#DEB0B0;}
	.st16{fill:#BA3434;}
	.st17{fill:#A57B7C;}
	.st18{fill:#F2F2F2;}
	.st19{fill:#EC1C24;}
	.st20{fill:#A54550;}
	.st21{fill:#FFFFFF;}
	.st22{fill:#AE5B65;}
	.st23{fill:#F5D3D1;}
	.st24{fill:#687A6E;}
	.st25{fill:#231F20;}
	.st26{fill-rule:evenodd;clip-rule:evenodd;fill:#333333;}
	.st27{fill:#F4E6E5;}
	.st28{fill:#EFBB75;}
	.st29{fill:#D8A160;}
	.st30{fill:#EFDDCA;}
	.st31{fill:#A55B6A;}
	.st32{fill:#92A182;}
	.st33{fill:#CCCCCC;}
	.st34{fill:#944E3C;}
	.st35{fill:#C1272D;}
	.st36{fill:#C67B32;}
	.st37{fill:#72696D;}
	.st38{fill:#E3A8A4;}
	.st39{fill:#9FC8C2;}
	.st40{fill:#8B8285;}
	.st41{fill:#71796C;}
	.st42{fill-rule:evenodd;clip-rule:evenodd;fill:#E9C8C3;}
	.st43{fill:#C06666;}
	.st44{fill:#96A4A5;}
	.st45{fill:#C53C3C;}
	.st46{fill:#EA6B74;}
	.st47{fill:#406D8F;}
	.st48{fill:#77A3C0;}
	.st49{fill:#F25850;}
	.st50{fill:#253245;}
	.st51{fill:#FFAA96;}
	.st52{fill:#E0C8A4;}
	.st53{fill:#39ABA9;}
	.st54{fill:#F6DE96;}
	.st55{fill:#F1D2CD;}
	.st56{fill:#E8C3C3;}
	.st57{fill:#AB2130;}
	.st58{fill:#982A3A;}
	.st59{fill:#E19F78;}
	.st60{fill:#FEDED2;}
	.st61{fill:#FFB0A1;}
	.st62{fill:#DB3434;}
	.st63{fill:#C76B6A;}
	.st64{fill:#E05E90;}
	.st65{fill:#CE9F5C;}
	.st66{fill:#FF8D71;}
	.st67{fill:#B75041;}
	.st68{fill:#FCE4B6;}
	.st69{fill:#B24A58;}
	.st70{fill:#3C0303;}
	.st71{fill:#8B1111;}
	.st72{fill:#B02121;}
	.st73{fill:#29285B;}
	.st74{fill:#E6E6E6;}
	.st75{fill:#D59D79;}
	.st76{fill:#F0C880;}
	.st77{fill:#B3B3B3;}
	.st78{fill:#C6C6C6;}
	.st79{fill:#A6A6A6;}
	.st80{fill:#603813;}
	.st81{fill:#BC2A34;}
	.st82{fill:#999966;}
	.st83{fill:#666633;}
	.st84{fill:#CC6666;}
	.st85{fill:#663333;}
	.st86{fill-rule:evenodd;clip-rule:evenodd;fill:#FEDED2;}
	.st87{fill:#534741;}
</style>
<g>
	<g>
		<path class="st80" d="M347.2,134.7c0.4-1.2-0.4-2.4-1.7-2.6c-0.4-0.1-0.7,0-1.1,0.1c-0.8,0.1-1.5,0.2-2.5-0.1
			c0.3-0.6,0.6-1,0.8-1.4c0.4-0.8,0.9-1.5,1.3-2.3c0.4-0.9,0.3-1.8-0.4-2.6c-0.7-0.7-1.6-0.8-2.5-0.4c-0.5,0.2-1.1,0.4-1.8,0.6
			c0.4-1.4,0.8-2.5,1.1-3.6c0.2-0.9,0.4-1.8,0.3-2.7c0-1-0.5-1.7-1.5-2.1c-1-0.4-1.8-0.1-2.5,0.6c-0.2,0.2-0.4,0.4-0.6,0.6
			c-1,0.9-2.1,1.8-3.1,2.7c-0.5,0.5-1.1,0.6-1.8,0.2c-0.1-0.7-0.1-1.4-0.3-2.2c-0.2-1-0.8-1.8-1.8-2c-1-0.2-1.8,0.3-2.3,1.1
			c-0.6,0.8-1.2,1.6-1.7,2.5c-0.4,0.6-0.9,1-1.7,1.2c-2.4,0.6-4.8,1.6-6.9,2.9c-2.4,1.5-4.9,3.1-7.2,4.8c-4.9,3.5-9.7,7-14.8,10.1
			c-7,4.1-14.3,7-22.5,7.5c-4,0.3-7.8-0.1-11.4-2.2c-1-0.6-1.6-1.3-2-2.4c-1.3-4.4-3.4-8.3-6.4-11.7c-0.6-0.7-0.8-1.3-0.6-2.2
			c1-4.3,1.7-8.7,1.8-13.1c0.2-6.2-0.8-12.3-2.5-18.3c-1.2-4.3-2.7-8.4-5.5-12c-0.1-0.2-0.2-0.3-0.3-0.6c0.3-0.3,0.5-0.5,0.7-0.7
			c1.3-1.2,2.4-2.5,3.3-3.9c1-1.8,1.7-3.7,1.5-5.7c-0.5-4.8-4.2-9.6-10.6-9.7c-3.4,0-6.6,0.9-9.4,2.9c-1.2,0.9-2.4,1.4-3.9,0.7
			c-0.1-0.1-0.2,0-0.4-0.1c-2.1-0.4-4.2-0.3-6.2-0.1c-3.2,0.2-6.4,0.4-9.6,0c-2.8-0.4-5.6-0.4-8.4,0.2c-2.3,0.5-4.5,1.2-6.8,1.8
			c-0.3,0.1-0.6,0.2-0.9,0.2c-0.3-0.4-0.5-0.7-0.7-1c-1.5-2.1-3.4-3.5-5.9-4.3c-6.9-2.2-13.7,3-12.5,10.6c0.5,3.3,1.7,6.4,3.6,9.1
			c0.5,0.7,0.5,1.2,0.1,1.9c-1,2-2,4-2.8,6.1c-2.8,7-4.5,14.3-5.8,21.8c-1,6.1-0.9,12.2,0.3,18.3c0.1,0.7,0.3,1.4,0.4,1.9
			c-1.1,1.1-2,2.1-2.9,3.1c-0.3,0.4-0.6,0.8-1,1.1c-3.6,3-7.1,6-11,8.5c-2.2,1.4-4.6,2.6-7.1,3.4c-4.4,1.4-8.6,1.1-12.7-0.9
			c-1.8-0.9-3.5-1.8-5.1-3c-5.8-4.4-11.2-9.3-15.2-15.5c-1.4-2.1-2.8-4.2-4.3-6.2c-0.8-1-1.5-2.1-1.9-3.3c-0.3-0.8-0.6-1.6-0.9-2.3
			c-0.3-0.6-0.5-1.2-0.9-1.8c-0.4-0.8-1.1-1.3-2.1-1.2c-1,0.1-1.6,0.7-1.8,1.6c-0.2,0.6-0.4,1.1-0.6,1.9c-0.6-0.9-1-1.7-1.5-2.4
			c-0.3-0.4-0.6-0.9-1-1.3c-1.1-1-2.6-0.5-2.9,1c-0.1,0.4,0,0.7,0,1.1c0,1.6-0.1,3.2-0.2,5.1c-0.6-0.4-0.9-0.7-1.3-0.9
			c-0.6-0.3-1.2-0.7-1.8-0.9c-1.4-0.4-2.6,0.3-2.9,1.6c-0.1,0.5-0.1,1-0.1,1.5c0.1,1.2,0.3,2.5,0.4,3.7c0,0.4,0.2,0.9-0.4,1.1
			c-0.4-0.3-0.9-0.5-1.4-0.8c-0.6-0.3-1.1-0.6-1.7-0.7c-1.8-0.5-3.4,1-3.1,2.8c0.1,0.4,0.2,0.7,0.3,1.1c0.4,1.4,0.9,2.8,1.3,4.2
			c0.2,1,0.3,2.1,0.4,3.2c-0.5,0-0.8,0-1,0c-1.6-0.2-2.6,1.4-1.8,3c1.2,2.5,2.3,5.1,2.6,7.9c0.1,1,0.4,2.1,0.6,3.1
			c1,3.8,3.1,6.9,5.6,9.8c5.4,6.3,11.7,11.6,19,15.6c8.7,4.8,17.9,7.6,27.8,8.1c3.2,0.2,6.4,0.3,9.5,0.5c1.5,0.1,3.1,0.4,4.6,0.7
			c2.9,0.6,6.2,4.8,5.9,8.4c-0.5,5.5-1,11-1.8,16.4c-1.2,8.1-2.6,16.3-3.3,24.5c-0.4,5.3-0.5,10.7,0,16c0.5,5.1,1.4,10.1,2.3,15.1
			c1,5.7,1.4,11.5,1,17.4c-0.3,5.4-0.8,10.8-1.2,16.3c-0.3,4.8,0,9.6,0.7,14.4c0.9,5.6,2.4,11,4.2,16.4c1.1,3.2,2.2,6.4,3.2,9.6
			c0.3,0.8,0.4,1.7,0.5,2.6c0.1,1.1-0.3,1.9-1.4,2.5c-1,0.5-2.1,1-3.1,1.6c-1.6,1-3.2,1.9-4.8,3c-1.3,0.9-2.3,2.2-2.9,3.7
			c-1.5,3.6-0.2,7.3,3.4,8.9c1.2,0.5,2.5,0.8,3.7,1c4.2,0.5,8.4,0.2,12.5-0.1c2.4-0.2,4.9-0.6,7.3-1.1c4-0.9,7-3.2,8.9-6.9
			c0.8-1.6,1.6-3.3,2.3-5c1.6-4,3.2-8,4.8-12c1.1-2.8,2.4-5.5,4.3-7.9c1.3-1.7,2.8-3.2,4.7-4.3c3-1.8,6.2-1.9,9.3-0.3
			c2.3,1.2,4.2,2.8,5.8,4.9c3,3.8,4.5,8.3,5.2,13c0.4,2.3,0.5,4.6,0.7,6.9c0.7,5.9,3.8,9.8,9.5,11.6c0.4,0.1,0.9,0.3,1.3,0.4
			c7,1.6,14.1,2,21.3,1.7c2-0.1,4-0.6,5.8-1.4c2.1-1,3.4-2.6,3.7-5c0.1-1.3-0.3-2.5-0.8-3.6c-0.6-1.4-1.6-2.7-2.7-3.8
			c-1.7-1.8-3.4-3.5-5.1-5.3c-1.4-1.5-1.8-3.3-1.2-5.2c0.3-1.2,0.7-2.3,1.2-3.4c2.3-5,3.8-10.3,4.5-15.7c0.7-5,1-9.9,0.2-14.9
			c-0.6-3.9-1.4-7.8-2.2-11.7c-1.2-5.5-1.3-11-0.2-16.6c0.8-4.1,1.8-8.2,2.7-12.4c1.7-7.9,2.7-15.9,2.5-24
			c-0.1-3.6-0.3-7.2-0.6-10.8c-0.5-5.8-1.3-11.5-2.4-17.3c-1-5.1-2.2-10.2-3.2-15.3c-0.3-1.3-0.4-2.5-0.5-3.8c0.9-0.4,1.7-0.7,2.5-1
			c5.3-2.1,10.7-3.6,16.1-5c8-2.1,16-4.5,23.7-7.7c6.6-2.8,12.9-6,18.6-10.3c7.3-5.5,13.1-12.1,16.5-20.6c0.4-1.1,1-2.1,1.3-3.2
			c0.5-1.6,1.4-2.6,3-3.2c1.1-0.4,2.1-1.1,2.8-2.1c1.1-1.4,0.4-3.1-1.3-3.5c-0.4-0.1-0.8-0.1-1.2-0.2c1-1.1,2.1-2,2.9-3.1
			C346.4,136.2,346.9,135.5,347.2,134.7z M234.7,179.6c0.1-3.6,0.6-7.2,1-10.9c0.1-0.7,0.3-1.5,0.5-2.2c0.5-1.4,1.4-2.2,2.9-2.5
			c1.7-0.4,3.2-0.1,4.7,0.6c2.4,1.1,4.2,2.9,5.4,5.3c3,5.7,2.5,11.4-0.4,16.9c-1.4,2.6-3.3,4.7-5.9,6.1c-0.3,0.2-0.6,0.4-1.1,0.7
			c2.1,3.2,4.1,6.3,6.1,9.4c0.7,1.1,1.8,1.8,3.1,2.2c0.2,0,0.3,0.1,0.5,0.2c0.7,0.3,1.1,0.9,1,1.6c-0.1,0.7-0.6,1.2-1.4,1.2
			c-1.4,0.2-2.8-0.1-3.9-0.9c-1.1-0.8-2.1-1.7-2.9-2.7c-1.4-1.7-2.6-3.5-4-5.5c-0.2,1.7-0.3,3.2-0.5,4.7c-0.1,0.7-0.3,1.5-0.5,2.2
			c-0.3,0.9-0.9,1.5-1.9,1.5c-0.9,0-1.7-0.6-2-1.6c-0.3-1.1-0.5-2.3-0.5-3.5C234.6,194.9,234.5,187.3,234.7,179.6z M172.7,167.5
			c0.1-1.6,1.1-2.5,2.6-3c5.7-1.8,11.7,0.8,14.1,6.3c1.3,2.9,1.7,6,1.2,9.2c-0.6,3.6-2.7,6.3-5.6,8.5c-0.3,0.2-0.7,0.5-1.1,0.8
			c0.9,0.7,1.7,1.2,2.5,1.9c1.8,1.6,3,3.6,3.4,6c0.5,3.3-1.2,6.5-4.2,7.8c-3.3,1.5-6.7,1.8-10.1,0.7c-2-0.6-2.8-1.7-2.8-3.8
			c0-5.1,0.1-10.1,0.1-15.2c0-4.6-0.2-9.3-0.2-13.9C172.5,171,172.6,169.2,172.7,167.5z M198.2,281.1c0,2.3-0.3,4.6-0.4,6.9
			c0,0.5-0.2,1-0.3,1.5c-0.5,1.6-1.5,2.7-3.3,2.8c-2.5,0.1-5,0.2-7.5,0.2c-1.5,0-2.3-1-2.4-2.5c0-0.6,0-1.3,0.1-1.9
			c0.4-5.6,0.5-11.3,0.3-16.9c0-0.3-0.1-0.6-0.1-1c-2.8-0.1-5.6-0.2-8.5-0.3c0.2,1.8,0.3,3.6,0.5,5.4c0.3,2.4,0.7,4.8,1.1,7.2
			c0.1,0.6,0.1,1.2,0.1,1.7c-0.1,1.2-0.9,2-2,2c-2.2,0-4.4-0.1-6.4-0.8c-1.4-0.5-2.5-1.4-2.9-2.9c-0.5-2.4-1.1-4.9-1.5-7.4
			c-1.6-10-1.5-20.2-1.2-30.3c0.2-6.1,0.5-12.1,1.4-18.1c0.2-1.5,0.5-3,0.9-4.6c0.1-0.6,0.4-1.2,0.7-1.8c0.7-1.3,1.7-2,3.2-1.7
			c1.5,0.3,2.9,0.7,4.3,1.2c1.9,0.8,2.6,2.4,2.4,4.5c-0.3,3.5-0.7,7.1-0.9,10.6c-0.5,7-0.6,14-0.4,21.1c0.1,3,0.3,6.1,0.5,9.1
			c0,0.2,0.1,0.3,0.1,0.6c2.8,0.2,5.6,0.3,8.6,0.5c0-0.5,0.1-0.9,0.1-1.3c-0.2-6.9-0.5-13.8-0.6-20.7c-0.1-4.7-0.1-9.4-0.2-14
			c-0.1-2.8-0.2-5.7-0.2-8.5c0-0.9,0.1-1.8,0.3-2.6c0.2-1.2,1-2.1,2.1-2.6c1.8-0.8,3.6-1.4,5.5-1.5c2.8-0.2,4.3,1,4.6,3.9
			c0.2,1.9,0.3,3.8,0.5,5.7c0.6,8.9,1.1,17.8,1.4,26.7C198.1,261.2,198.3,271.1,198.2,281.1z M198.5,205.5c-2-0.7-3.3-2.2-3.7-4.3
			c-0.4-1.7-0.7-3.5-0.7-5.3c0-5.1,0.1-10.2,0.3-15.3c0.1-2.5,0.4-5,0.6-7.5c0.2-1.6,0.5-3.2,1.2-4.7c1.1-2.5,3-3.7,5.7-3.8
			c1.4,0,2.8,0,4.1,0c0.4,0,0.9,0.1,1.2,0.3c0.3,0.2,0.6,0.6,0.6,1c0,0.3-0.3,0.7-0.6,0.8c-0.4,0.2-1,0.2-1.4,0.4c-1,0.3-2,0.6-3,1
			c-0.8,0.3-1.2,0.8-1.3,1.7c-0.2,2.1-0.5,4.1-0.7,6.2c-0.3,4.7-0.4,9.4-0.6,14c0,0.4,0,0.8,0,1.3c1.5,0.2,2.8,0.1,4.2,0.1
			c0.5,0,1.1-0.1,1.6-0.1c0.9-0.1,1.6,0.3,1.8,1.1c0.2,0.8-0.2,1.6-1.1,1.8c-1,0.3-2,0.4-3.1,0.5c-1.1,0.1-2.2,0-3.3,0
			c-0.1,2.1,0,4.2,0.8,6.1c0.2,0.4,0.5,0.8,0.9,0.9c1.8,0.7,3.6,1.5,5.5,1.4c0.1,0,0.2,0,0.3,0c1,0.1,1.6,0.5,1.6,1.3
			c0,0.7-0.5,1.2-1.5,1.3c-0.8,0.1-1.6,0.3-2.5,0.4C202.9,206.5,200.7,206.3,198.5,205.5z M227.8,262.2c-0.1,4.4-1,8.6-2.1,12.8
			c-0.7,2.8-1.5,5.5-2.9,8c-1.3,2.4-3.1,4.3-5.9,5.2c-1.5,0.5-3,0.5-4.5,0c-2.8-1-4.9-2.8-6.4-5.4c-2.2-3.7-3-7.8-3.6-11.9
			c-0.5-3.5-0.5-7.1-0.5-10.6c0-6.7,0-13.5,0-20.2c0-3.4,0.2-6.9,0.8-10.2c0.2-1.1,0.5-2.1,0.8-3.2c0.2-0.8,0.9-1.3,1.6-1.6
			c1.1-0.5,2.3-0.7,3.6-0.6c1.9,0.1,3.7,0.4,5.6,0.7c1.5,0.2,2.5,1.2,2.8,2.7c0.1,0.7,0.2,1.4,0.2,2.1c-0.1,3.5-0.2,7-0.4,10.5
			c-0.1,3.9-0.3,7.9-0.4,11.8c0,0-0.1,0-0.1,0c0,5.9-0.1,11.9-0.1,17.8c0,2.9,0.4,5.7,0.7,8.6c0.1,1.1,0.5,1.4,1.2,1.5
			c0.8,0.1,1.6-0.3,1.9-1.1c1-2.2,1.7-4.6,2.1-7.1c1.1-6.5,1.3-13,1-19.5c-0.1-2.7-0.5-5.3-0.6-8c-0.1-1.5,0.1-3,0.2-4.5
			c0.1-1,0.6-1.4,1.3-1.5c0.7-0.1,1.3,0.3,1.6,1.2c0.4,1.3,0.9,2.6,1,3.9c0.4,3.3,0.6,6.6,0.8,9.9
			C227.7,256.3,227.8,259.3,227.8,262.2z M230.2,207c-1.3,0.1-2.6-0.6-3.1-1.9c-0.2-0.6-0.3-1.2-0.3-1.8c-0.2-2.5-0.5-5.1-0.7-7.7
			c-3.7,0-7.2,0-10.9,0c-0.1,0.8-0.2,1.5-0.2,2.3c-0.1,2-0.2,4.1-0.3,6.1c0,0.5-0.1,1.1-0.3,1.6c-0.2,0.5-0.6,0.9-1.1,0.8
			c-0.4-0.1-0.9-0.3-1.1-0.7c-0.3-0.5-0.5-1.1-0.5-1.7c-0.1-2.3-0.2-4.7-0.1-7c0-2.6,0.2-5.2,0.4-7.8c0.4-6.2,1-12.3,2.5-18.4
			c0.4-1.5,0.9-2.9,1.5-4.4c0.2-0.6,0.6-1.1,0.9-1.6c1.4-1.8,3.4-2.2,5.4-1.2c1.4,0.7,2.6,1.8,3.3,3.2c0.8,1.6,1.6,3.3,2.2,5
			c1.6,4.7,2.5,9.6,3.2,14.5c0.9,5.5,1.6,11.1,1.9,16.7c0,0.5,0,1-0.1,1.5C232.6,206,231.5,206.9,230.2,207z M260.2,261.5
			c-1,5.6-2.4,11.2-4,16.7c-0.9,2.9-1.9,5.8-3.8,8.3c-0.8,1-1.7,1.9-2.6,2.7c-2,1.6-4.3,1.8-6.8,1c-2.1-0.7-3.9-2-5.3-3.6
			c-1.4-1.7-2.5-3.6-3.4-5.6c-1.8-4-2.8-8.2-3.2-12.6c-0.7-7-0.5-14,0.1-21c0.4-4.4,1-8.8,2.1-13.1c1-4,2.6-7.8,5-11.1
			c1.2-1.7,2.6-3.3,4.5-4.3c2.8-1.6,5.7-1.9,8.6-0.1c2.5,1.5,3.6,3.9,3.8,6.7c0,0.6-0.2,1.3-0.5,1.9c-0.5,1-1.7,0.9-2.2-0.1
			c-0.2-0.5-0.3-1-0.5-1.5c-0.3-0.6-0.5-1.3-0.9-1.8c-0.5-0.7-1.1-0.6-1.6,0c-0.5,0.6-0.9,1.3-1.1,2.1c-0.5,1.8-0.9,3.6-1.3,5.5
			c-1.2,6.4-1.9,12.8-2.4,19.3c-0.3,5.4-0.7,10.8-0.4,16.2c0.2,3.7,0.6,7.3,1.4,10.9c0.4,1.8,1.1,3.4,2.1,4.9c0.2,0.4,0.6,0.7,1,1.2
			c0.4-0.5,0.7-0.9,1-1.2c1.6-2.3,2.5-5,3.4-7.6c1.5-4.4,2.4-8.9,3.2-13.4c0.2-0.9,0.1-1.8,0.2-2.8c-1.6-0.8-3.3-1.1-5-1.2
			c-0.7,0-1.3,0-2,0c-1,0-1.7-0.5-1.9-1.3c-0.2-0.9,0.3-1.7,1.3-2c0.4-0.2,0.9-0.2,1.3-0.2c2.3,0,4.5,0.3,6.7,1
			c0.6,0.2,1.2,0.5,1.8,0.9c1,0.6,1.5,1.6,1.4,2.8C260.4,259.7,260.3,260.6,260.2,261.5z"/>
		<path class="st80" d="M179.9,187.5c2.1-1.2,3.9-2.7,5.3-4.7c1.1-1.6,1.7-3.4,1.6-5.3c-0.1-1.9-0.4-3.6-1.2-5.4
			c-1.1-2.7-4.5-4.5-7.4-3.9c0.3,6.5,0.5,13,0.8,19.7C179.4,187.8,179.7,187.7,179.9,187.5z"/>
		<path class="st80" d="M178.5,202.6c1.5,0,2.9-0.1,4.2-0.5c0.8-0.3,1.7-0.7,2.4-1.3c0.9-0.7,1.2-1.8,1-2.9c-0.5-3.2-3.9-6-7.1-6
			C178.7,195.4,179.2,198.9,178.5,202.6z"/>
		<path class="st80" d="M222.8,176.6c-0.7-2.5-1.3-4.9-2.6-7.2c-0.2-0.4-0.5-0.7-0.7-1.1c-0.1,0-0.2,0-0.3,0.1
			c-0.3,0.7-0.6,1.3-0.8,2c-0.5,2.4-1.2,4.7-1.5,7.1c-0.5,4-0.9,8-1.2,12c-0.1,0.9-0.2,1.8,0,2.8c3.4-0.2,6.7,0.3,9.9-0.2
			c0-0.3,0-0.5,0-0.7C224.8,186.3,224.1,181.4,222.8,176.6z"/>
		<path class="st80" d="M246.6,183.8c1.2-3.4,1.6-6.8,0.4-10.3c-0.6-1.7-1.6-3.2-3.1-4.3c-0.8-0.6-1.7-1-2.8-1
			c-0.7,7.5-0.8,15-0.8,22.8c0.4-0.2,0.6-0.3,0.7-0.4C243.7,189.1,245.5,186.7,246.6,183.8z"/>
	</g>
	<g>
		<path class="st81" d="M316.3,216.7c1.4-0.6,2.5-1.1,3.6-1.6c6.5-2.7,13-2.6,19.4,0.4c6.4,2.9,8.9,7.9,7.7,14.9
			c-1.1,6.3-4.2,11.6-8.2,16.5c-6.6,8.2-14.7,14.6-23.3,20.5c-3.5,2.4-7.1,4.8-10.8,6.9c-2.5,1.4-5.3,2.5-8.1,3.3
			c-4.6,1.4-9.4-1.4-10.4-6c-3-13.3-6.1-26.6-8.7-40c-1-4.9-1.1-10.1-0.8-15.1c0.6-11,7.8-15.9,15.4-17c9.9-1.4,19.2,3.8,22.5,12.4
			C315.2,213.4,315.7,215,316.3,216.7z"/>
		<path class="st81" d="M293.7,86.3c0.8-0.3,1.4-0.6,2-0.9c3.7-1.5,7.4-1.4,11,0.2c3.6,1.7,5.1,4.5,4.4,8.4
			c-0.6,3.6-2.4,6.6-4.6,9.3c-3.7,4.6-8.3,8.3-13.2,11.6c-2,1.4-4,2.7-6.1,3.9c-1.4,0.8-3,1.4-4.6,1.9c-2.6,0.8-5.3-0.8-5.9-3.4
			c-1.7-7.5-3.5-15.1-4.9-22.7c-0.5-2.8-0.6-5.7-0.5-8.6c0.4-6.2,4.4-9,8.7-9.6c5.6-0.8,10.9,2.2,12.8,7
			C293.1,84.4,293.4,85.3,293.7,86.3z"/>
		<path class="st81" d="M136.8,107.4c0.2-0.6,0.4-1.1,0.5-1.6c1-2.9,2.9-5,5.7-6.2c2.8-1.2,5.2-0.6,7.1,1.8c1.7,2.2,2.5,4.7,3,7.4
			c0.7,4.5,0.5,9-0.1,13.5c-0.2,1.8-0.5,3.7-0.9,5.5c-0.3,1.2-0.7,2.4-1.3,3.6c-0.9,1.9-3.2,2.6-5,1.6c-5.2-2.9-10.4-5.7-15.5-8.8
			c-1.9-1.1-3.6-2.6-5.1-4.1c-3.4-3.4-2.9-7.1-1-9.9c2.4-3.6,6.8-5.1,10.6-3.7C135.5,106.8,136.1,107.1,136.8,107.4z"/>
	</g>
</g>
</svg>
