<?xml version="1.0" encoding="utf-8"?>
<!-- Generator: Adobe Illustrator 21.0.1, SVG Export Plug-In . SVG Version: 6.00 Build 0)  -->
<svg version="1.1" id="Calque_1" xmlns="http://www.w3.org/2000/svg" xmlns:xlink="http://www.w3.org/1999/xlink" x="0px" y="0px"
	 viewBox="0 0 432 432" style="enable-background:new 0 0 432 432;" xml:space="preserve">
<style type="text/css">
	.st0{fill:#FFFFFF;}
	.st1{fill:#ED1C24;}
	.st2{fill:#C29347;}
	.st3{fill:#F47B47;}
	.st4{fill:#C73253;}
	.st5{fill:#F7941D;}
	.st6{fill:#ECECEB;}
	.st7{fill:#594A42;}
	.st8{fill:#EB2026;}
	.st9{fill:#0074A0;}
	.st10{fill:#C42127;}
	.st11{fill:#6C7F8F;}
	.st12{fill-rule:evenodd;clip-rule:evenodd;fill:#6C7F8F;}
	.st13{fill:#431D1B;}
	.st14{fill:#957B7A;}
	.st15{fill-rule:evenodd;clip-rule:evenodd;}
	.st16{fill:#76174D;}
	.st17{fill:#BC1F5D;}
	.st18{fill:#A33B63;}
	.st19{fill:#012F49;}
	.st20{fill:#D2A267;}
	.st21{fill-rule:evenodd;clip-rule:evenodd;fill:#D2A267;}
	.st22{fill:#9B8579;}
	.st23{fill:#E660A3;}
	.st24{fill:#678F96;}
	.st25{fill-rule:evenodd;clip-rule:evenodd;fill:#431D1B;}
	.st26{fill:#F04A53;}
	.st27{fill:#72645F;}
	.st28{fill:#F15A29;}
	.st29{fill:#C2B59B;}
	.st30{fill:#F26D75;}
	.st31{fill:#720E1B;}
	.st32{fill:#EF6770;}
	.st33{fill-rule:evenodd;clip-rule:evenodd;fill:#ED1C24;}
	.st34{fill-rule:evenodd;clip-rule:evenodd;fill:#76174D;}
	.st35{fill:#C2233E;}
	.st36{fill:#EE3E5D;}
	.st37{fill:#A3D6B3;}
	.st38{fill:#CFBDB4;}
	.st39{fill:#E4E5E3;}
	.st40{fill:#F1DDC4;}
	.st41{fill:#EF687E;}
	.st42{fill:#E36576;}
	.st43{fill:#D4C9C7;}
	.st44{fill:#F1B5BD;}
	.st45{fill:#9C7654;}
	.st46{fill-rule:evenodd;clip-rule:evenodd;fill:#9C7654;}
	.st47{fill:#6C4826;}
</style>
<g>
	<g>
		<path class="st10" d="M132.1,142.8c2.1-1.2,13.4-2.5,13.4-11.1V131c-0.8-13.3-14.2-13.9-24.6-13.9c-2.1,0-11.9,0.3-12.2,1
			l-0.5,7.5c1.8,0.4,5.7,0.5,7.4,0.4l1.8,28l6.1,2l-0.5-6.4c35.5-2.7,1.3,44.9-15,9c4.2,1.4,7-1.7,7-6.1c0-10.8-15.3-9.8-13.4,4.4
			C108.7,203.7,182.2,162.8,132.1,142.8z M123.3,141.7c-1.2-14.4-1.1-15.5-1-15.7c2.9-0.8,12.1-0.8,12.5,4.7v0.8
			C134.8,138.2,129.6,140.7,123.3,141.7z"/>
		<path class="st10" d="M183.8,135.2c-4.3,0-8.1,0.2-12.2,1c3.3,6.9,11.1,31.6-3.4,31.6c-15.3,0-5.5-23.6-5.7-30.9l-12.5,1.4
			c2.4,2.4,2.2,15.2,2.3,17.9c0.5,14.8,13.4,24.1,25.2,13.3l1.4,4.5l6.3-0.8C181.7,153.6,183,143.5,183.8,135.2z"/>
		<path class="st10" d="M197.6,144.7c0-7.5,15.1-14.3,17.2-2.8c-3.7,0-5.9,1.5-5.9,4.6c0,2.7,2.7,5.1,6.1,5.1h0.2
			c14-2.4,6.5-20.5-8.9-19.5c-9.2,0.6-15.9,5.3-15.9,12.9c0,6.6,3.6,8.1,10.5,9.7c4.9,1.1,12.5,4.8,12.5,9c0,6.6-15.2,10.1-17.4,2.5
			c1.2,0,2.4,0.4,3.6,0.4c3.4,0,4.8-3,4.8-5.2c0-3-2.9-6-6.9-6c-6,0-9.3,3.7-9.3,8.2c0,9.2,8.9,12,19.4,12c7.9,0,16-5.7,16-11.9
			C223.6,152.1,197.6,153.1,197.6,144.7z"/>
		<path class="st10" d="M243.4,164.8c0,6.7,7.3,8.4,10.7,3.1c1.5,5.5-2.6,8.5-8.5,8.5c-9.3-1-10-19.3-10.1-27.9l10.2-0.5l1.7-6.1
			l-11.9,2l3.1-24.6l-10.8-0.6c0.8,15.9,1.1,17.6,0.8,25.5l-5.8,0.5l1.2,5.5l4.3-1.1c-2.7,16.5,0.8,32.1,17.3,32.1
			c8.8,0,13.3-6.3,11.8-15.6C255.9,156.7,243.4,155.1,243.4,164.8z"/>
		<path class="st10" d="M281.6,153.2h-0.5c-3.4,0-6.1,3.4-6.4,6.7c0,3.4,2.1,5.1,5.4,5.1c1.6,0,2.9-0.3,4-1.6v0.3
			c-0.2,8.2-11.4,9.4-14.9,3.1c-2.4-4.3-3.4-8.6-3.4-13.6l21.9-4.9c-0.8-8.5-4.5-17.7-14.3-17.7c-10.1,0-16.1,11.1-16.1,20.1
			c0.5,11.4,4.7,24.7,18.2,24.7h0.7c8.3,0,12.8-7.7,12.8-15.3C289.1,155.8,285.9,153.2,281.6,153.2z M274.3,137
			c4.3,0,7.3,5.7,7.3,9.5l-15.3,2.1C266.3,144.3,269.3,137,274.3,137z"/>
		<path class="st10" d="M330.4,122h-11.1c0.4,5.4,0.6,10.6,0.7,15.6c-2.5-2.4-6-3.8-10.4-3.8c-10.8,0-16.9,9.8-17.6,19.2
			c-0.1,0.6-0.1,1.3-0.1,1.9c0,8.7,4.4,17.3,13.5,19.9c0.5,0,2.9,0.1,3.4,0.1c3.6,0,6.6-1,9.1-2.7l-0.4,2.8l10.4-0.5
			C325.6,165.4,324.9,155.5,330.4,122z M317.6,157.2c-0.3,4-1.2,12.6-7.3,12.6c-8.9,0-9.5-11.7-9-17.7c0.2-4.6,1.4-12.7,8-12.7
			C317.5,139.3,318,151.7,317.6,157.2z"/>
	</g>
	<g>
		<path d="M108.6,189.4c-5,0.3-7,2.2-7,5.3v0.1c0.3,11.9,2.2,31.5,2.9,37.5c0.4,1.8,3.2,2.4,3.2-0.2v-0.2
			c-0.1-7.4-1.6-14.1-1.2-20.7c1.4-0.5,7.7,0.2,7.7-2.6c0-2.2-3.5-0.8-4.5-0.7c-1,0.1-2.5,0.1-3.4-0.1c-0.4-3.5-0.7-8.4-1-12.3v-0.5
			c0-3.3,6.1-2.6,7.9-2.5c0.7-0.1,1.6-0.3,1.6-1.2C114.8,188.7,110.1,189.4,108.6,189.4z"/>
		<path d="M131.7,188.6c-10.8,0-11.3,14.2-11.3,21.9c0,7.1,0.5,25.5,11.3,25.5c6.1,0,8.4-7.7,8.8-12.2
			C141.1,215.8,142.6,189.8,131.7,188.6z M137.5,213.7c0,3.8-0.1,19.3-6,19.3c-4.3,0-7.6-4.9-7.6-22.7c0-1.7,0-3.4,0.1-5.4
			c0-3,2-13.2,6.5-13.2c5.8,0,7.1,17.1,7.1,21.8V213.7z"/>
		<path d="M152.1,188.3h-0.6c-2.4,0-3.5,0-3.6,2.8c-0.4,13.7-0.9,27.6-0.9,41.3v5.1c0.4,0.6,1.2,0.9,1.8,0.9c1.5,0,1.3-1.3,1.3-2.4
			c0.1-5.2,0.4-18.7,0.4-19.3c0-0.5,0.2-3,0.4-3.5h1c3.7,0,4.3,4.1,4.6,7.1c0.1,2.1,0.7,11.4,0.7,13.4c0.2,0.9,1,0.9,1.7,0.9h0.1
			c0.8,0,1.8-0.1,1.8-1.2v-0.5c0-0.4-0.4-3.2-0.4-3.5c-0.3-4.2,0.4-12.9-2.4-16.5c-0.2-0.4-1.6-2.1-2-2.4c4-2.7,5.2-7.9,5.2-12.4
			v-0.7C161.3,192,157.7,188.3,152.1,188.3z M151.8,208.8c-0.4,0-0.8-0.1-0.8-0.5c0-5.4,0.5-9.9,0.4-15.2c0-1,0.6-1.6,1.5-1.6
			c3.5,0,4.8,3.7,4.8,6.5C157.8,200.8,156.1,208.8,151.8,208.8z"/>
		<path d="M181.8,197.9c0-2.1,0.2-6.5,3.4-6.5c3.4,0,2.6,3.7,5,3.7c1.2,0,1.6-0.7,1.6-1.8c0-3.2-4.5-5.3-7.1-5.3
			c-4.2,0-6.3,5.7-6.3,9.1c0,7.6,6.2,13,9,19.6c1.4,3.2,1.6,6.8,1.6,10.1c0,2.5-1,7.2-4.4,7.2h-0.4c-3-1.8-0.7-7.1-3.2-7.9
			c-1-0.3-2.4,0.7-2.4,1.8c0,3.7,1.4,9.3,5.9,9.3c3.7,0,6.5-4.3,7.4-7.5c1.5-4.6,0.2-11.5-2.3-16.2C187,208.4,181.8,204,181.8,197.9
			z"/>
		<path d="M206.6,189.1h-5.1c-6.3-0.4-6.3,0.4-6.5,2.4c0.1,1,1.8,1.1,5.6,0.9l1.2,38.6c0,0.5,1.2,0.9,1.6,0.9c0.4,0,1.6-0.3,1.6-0.9
			l-1.2-38.7h5.1c0.5,0,1.2-0.6,1.2-1.2C210.2,189.4,207.9,189.2,206.6,189.1z"/>
		<path d="M219.9,233.8c-0.5,0-2.6,0-3.2-0.1l0.2-15.9l6.1-0.9c2.4-0.4,3.5-3.2,0.7-3.2h-0.3l-6.6,1l-0.3-20.2h7.3
			c1,0,2.6-0.5,2.6-1.8c0-0.1,0-0.2-0.1-0.3c-0.1-0.3-1.3-1.2-1.6-1.2h-9.6c-1.1,0-2.1,1-2.1,2.1l0.7,42.5c0,1.2,13.7,1.4,13.5-0.7
			C226.9,232.4,224,233.8,219.9,233.8z"/>
		<path d="M242.4,188.1l-0.5-1.3c-0.4-0.6-1.2-0.9-1.9-0.9c-1.5,0-2,1.7-2.3,2.9c0,0-0.1,0.1-6.4,44.3c0,0.6,0.5,2.2,1.3,2.2
			c1.8,0,1.7-2.6,1.8-3.5l1-6.9l0.4-0.4h9l1.5,11.6c0.1,0.4,0.7,0.4,1,0.4h0.2c1.2,0,1.4-0.5,1.8-1.6c0-0.1,0.1-0.1,0.1-0.1l-0.4-4
			C247.6,216.4,246,202.1,242.4,188.1z M236.9,220.8l3.5-28.3l4.1,28.5L236.9,220.8z"/>
		<path d="M266.9,232.6c-2.6,0-5.1,0.9-7.6,0.9h-0.4c-0.7-12.6-0.9-25.2-1.2-37.6c-0.1-2.4,0.2-3.8-0.4-6.2c-0.4-1.3-0.9-1.3-2-1.3
			c-0.2,0-1,0.1-1.2,0.1c-0.4,0.4-0.4,0.6-0.4,1.1v0.4c0.1,1.2,0.8,10.5,0.8,11.6c0,4.1,0.7,35.6,0.8,35.6l12.4-1.8
			c0.9-0.1,1.2-0.7,1.2-1.3C269,232.8,267.9,232.6,266.9,232.6z"/>
		<path d="M276.8,190.1c-1.3,0-1.6,0.1-2,1.3l-1.6,45.2c0,1.8,3.4,1.5,3.5-1.2l1.8-41.7c0-0.1,0.1-0.9,0.1-1.1
			C278.6,190.9,278.6,190.1,276.8,190.1z"/>
		<path d="M305.6,191.2c-0.9,0-1.6,0-1.6,0.7c-0.8,3.4-0.5,7.1-0.7,10.8c-0.4,6-0.9,21-0.9,23.7l-12.4-33.7
			c-1.3-3.5-4.6-2.1-4.5,0.4l-0.7,42.9c0,1.3,3.1,1.5,3.1-0.4l0.4-37.4c12.9,34.6,13.4,35.8,14,37.1c0.5,1,2.4,1.8,2.8,0.5
			c0-3.5,0.6-20.4,0.7-24c0.2-6.3,1.2-12.7,1.3-19C307.2,191.3,307,191.2,305.6,191.2z"/>
		<path d="M323.7,210l-1.1,0.1c-1,0-2.7,0.3-2.7,1.7c0.2,3.2,6.9-0.9,7.1,2.9c0.1,2.3-0.2,4.4-0.4,6.5c-0.2,2.9-0.8,11.1-4.8,11.3
			h-0.2c-5.5,0-6.8-9.7-7-13.8l-0.1-6.6v-1.3c0-10.2,2-17.7,7.6-18.4h0.3c3.5,0.5,5.6,4.8,6.8,1.8c0.1-0.3,0.2-0.5,0.2-0.8
			c0-2.3-4.4-3.8-6.8-3.8l-0.5,0.1c-10.2,0.5-11.2,16.2-11.2,23.8v0.9c0.1,6.5,0.7,21.3,10.1,21.3h0.5c6.5-0.3,7.7-7.1,8.3-12.4
			c0.1-1,0.6-7.7,0.7-9.6v-1.2C330.4,209.8,325.2,210,323.7,210z"/>
	</g>
	<g>
		<path class="st10" d="M123.3,259.9c-4.7,0-6.4,1.2-9.3,3.2c0.3-5.2,0.7-13.4,1.2-19.4l-13.6-4.7l0.6,1.4c2.7,6.1,7.1,15.9,0.8,63
			l12.3,0.1c-0.2-9-10.1-38.2,8.1-38.2c16.1,0,5.5,25.7,1.3,35.9c-0.2,0.6-0.5,1.3-0.7,1.8l15.4,1.3v-1.4
			C139.4,285.5,147.8,259.9,123.3,259.9z"/>
		<path class="st10" d="M169.3,280.4h-0.5c-3.6,0-6.4,3.6-6.8,7.1c0,3.5,2.3,5.4,5.7,5.4c1.7,0,3.1-0.3,4.2-1.7v0.3
			c-0.2,8.6-12.1,9.9-15.7,3.3c-2.6-4.6-3.5-9.1-3.5-14.3l23.1-5.2c-0.8-8.9-4.8-18.7-15.1-18.7c-10.6,0-17,11.8-17,21.2
			c0.5,12,5,26,19.2,26h0.7c8.8,0,13.5-8.1,13.5-16.1C177.2,283.2,173.8,280.4,169.3,280.4z M161.6,263.2c4.5,0,7.7,6,7.7,10
			l-16.2,2.3C153.2,271,156.3,263.2,161.6,263.2z"/>
		<path class="st10" d="M199,254.2c-6.7,0-14.8,4.3-14.8,11.9c0,4.4,3.5,6.7,7.5,6.7c3.7,0,6.7-1.5,6.7-5.5c0-2.1-1.5-3.5-3.5-3.5
			c-3.1,0-3.3,2.3-3.3,4.8c-1.5,0-3.2-0.5-3.2-2.7c0-4.4,3.9-6.9,7.7-6.9c10.3,0,10.8,12.6,10.8,19.4c-13.9-5.6-31,1.6-26.6,18.7
			c2.3,11.3,18.2,9.6,25.9,1.2v5.7c2.2,0.1,7.5-0.8,10-1.1v-0.4c-0.4-3.3-1.9-31-1.9-37.2C214.2,257.8,205.3,254.2,199,254.2z
			 M194,298.3c-4.3,0-5.7-4.4-5.7-8c0-5.7,3.3-9.8,9.4-9.8c4.4,0,9.8,3.1,9.8,7.5C207.4,293.7,199.3,298.3,194,298.3z"/>
		<path class="st10" d="M243.3,253.6c-5.4,0-10.9,3-14.9,6.9l-0.3-3.5l-7.1-0.5c4.7,28,2.1,49.2,1.2,49.2l13.1-1.3
			c1.1,1.1-14.8-44.3,6.2-44.3c2.4,0,6,1.2,6.9,3.9v0.2c-1.4-0.4-2-0.5-3.3-0.5c-5.2,0-7.9,2.7-7.9,7.4c0,10.1,16,10.6,16-1.2
			C253.1,261.6,251.5,253.6,243.3,253.6z M248.6,264.4c-0.1,0-0.1-0.2,0-0.2C248.8,264.1,248.8,264.4,248.6,264.4z"/>
		<path class="st10" d="M275.7,292.7c0,7.1,7.7,8.9,11.3,3.2c1.6,5.8-2.7,8.9-8.9,8.9c-9.8-1-10.6-20.4-10.7-29.4l10.8-0.5l1.8-6.4
			l-12.6,2.1l3.2-26l-11.4-0.6c0.8,16.8,1.2,18.5,0.8,26.9l-6.1,0.5l1.3,5.8l4.5-1.1c-2.8,17.4,0.9,33.9,18.3,33.9
			c9.3,0,14-6.7,12.5-16.4C288.9,284.1,275.7,282.4,275.7,292.7z"/>
		<path class="st10" d="M302.9,271.5c0-7.9,16-15.2,18.1-3c-3.9,0-6.2,1.6-6.2,4.8c0,2.9,2.8,5.4,6.4,5.4h0.2
			c14.8-2.5,6.9-21.6-9.4-20.6c-9.8,0.6-16.8,5.6-16.8,13.6c0,7,3.8,8.5,11.1,10.2c5.2,1.2,13.2,5.1,13.2,9.5
			c0,6.9-16,10.7-18.4,2.7c1.3,0,2.5,0.4,3.8,0.4c3.5,0,5.1-3.1,5.1-5.5c0-3.1-3.1-6.3-7.3-6.3c-6.4,0-9.8,3.9-9.8,8.7
			c0,9.7,9.4,12.7,20.5,12.7c8.3,0,16.9-6,16.9-12.6C330.4,279.2,302.9,280.3,302.9,271.5z"/>
	</g>
	<g>
		<g>
			<g>
				<path class="st10" d="M169.6,65.9c6.6-3.2,11.6,2.6,14,8.6c5-5.6,13.9-6.5,20.3-1.2c11.2,9.2,1,25.2-8,31.7
					c-4.7,3.4-9.9,4.9-15.3,6l-3.5,0.6l-2.2-2.5c-2.8-3.3-5.3-6.7-7.6-10.3C162.1,90.4,157.9,71.5,169.6,65.9z"/>
			</g>
		</g>
		<g>
			<g>
				<path class="st10" d="M291.3,65.9c6.6-3.2,11.6,2.6,14,8.6c5-5.6,13.9-6.5,20.3-1.2c11.2,9.2,1,25.2-8,31.7
					c-4.7,3.4-9.9,4.9-15.3,6l-3.5,0.6l-2.2-2.5c-2.8-3.3-5.3-6.7-7.6-10.3C283.8,90.4,279.6,71.5,291.3,65.9z"/>
			</g>
		</g>
		<g>
			<g>
				<path class="st13" d="M262.2,65.7c-6.6-3.2-11.7,2.6-14.1,8.7c-5.1-5.7-14-6.6-20.5-1.2c-11.3,9.3-1,25.5,8.1,32
					c4.8,3.4,10,5,15.5,6l3.6,0.6l2.2-2.5c2.8-3.3,5.4-6.7,7.7-10.4C269.8,90.4,274,71.4,262.2,65.7z"/>
			</g>
		</g>
		<g>
			<g>
				<path class="st13" d="M136.1,65.2c-7.1-1.6-10.7,5.2-11.7,11.6c-6.2-4.3-15-3.2-20,3.4c-8.8,11.5,4.8,24.8,15,29
					c5.4,2.2,10.7,2.6,16.3,2.3l3.6-0.3l1.6-3c1.9-3.8,3.7-7.7,5.1-11.8C148.9,87.3,148.7,68,136.1,65.2z"/>
			</g>
		</g>
	</g>
	<g>
		<g>
			<g>
				<g>
					<g>
						<g>
							<g>
								<path class="st13" d="M216.6,322.9c0,0,13.3-17.7,32.7-11.6c19.3,6.1,37.7,32.6,53.9,35.6c16.3,3.1,23.4-8.1,20.4-14.3
									c-3.1-6.1-12.2-12.2-19.3-8.1c7.1-9.2,22.3-5.9,25.4,8.1c3.4,15.2-4.1,23.4-25.4,30.5c-21.4,7.1-76.8,2.4-88-15.9l0,0
									c-11.2,18.3-67,24-88.4,16.9c-21.4-7.1-28.8-15.3-25.4-30.5c2.4-10.8,18.3-17.3,25.4-8.1c-7.1-4.1-16.3,2-19.3,8.1
									c-3.1,6.1,4.1,17.3,20.4,14.3c16.3-3.1,34.6-29.5,53.9-35.6C202.1,306.2,216.6,322.9,216.6,322.9L216.6,322.9z"/>
							</g>
						</g>
					</g>
				</g>
			</g>
		</g>
	</g>
</g>
</svg>
