<?xml version="1.0" encoding="utf-8"?>
<!-- Generator: Adobe Illustrator 22.0.1, SVG Export Plug-In . SVG Version: 6.00 Build 0)  -->
<svg version="1.1" id="Calque_1" xmlns="http://www.w3.org/2000/svg" xmlns:xlink="http://www.w3.org/1999/xlink" x="0px" y="0px"
	 viewBox="0 0 432 432" style="enable-background:new 0 0 432 432;" xml:space="preserve">
<style type="text/css">
	.st0{fill:#957452;}
	.st1{fill:#88573C;}
	.st2{fill:#D6C49A;}
	.st3{fill:#E52627;}
	.st4{fill:#CDCCCC;}
	.st5{fill:#264395;}
	.st6{fill:#1E274A;}
	.st7{fill:#EC6625;}
	.st8{fill:#020203;}
	.st9{fill:#E52521;}
	.st10{fill:#808181;}
	.st11{fill:#FFE324;}
	.st12{fill:#3F4244;}
	.st13{fill:#009F4A;}
	.st14{fill:#343434;}
	.st15{fill:#78170E;}
	.st16{fill:#F0E9D5;}
	.st17{fill:#272531;}
	.st18{fill:#222B56;}
	.st19{fill:#9BD2CC;}
	.st20{fill:#83B143;}
	.st21{fill:#1B1B1B;}
	.st22{fill:#FFFFFF;}
	.st23{fill:#DDD6C3;}
	.st24{fill:#997F64;}
	.st25{fill:#77684B;}
	.st26{fill:#A89877;}
	.st27{fill:#B4B4B4;}
	.st28{fill:#DDCEBB;}
	.st29{fill:#9A2A1A;}
	.st30{fill:#5E1C0C;}
	.st31{fill:#F1CA43;}
	.st32{fill:#A57B46;}
	.st33{fill:#F18538;}
	.st34{fill:#F2AC64;}
	.st35{fill:#FAB42D;}
	.st36{fill:#46494E;}
	.st37{fill:#CF875E;}
	.st38{fill:#E7E6E6;}
	.st39{fill:#1A181D;}
	.st40{fill:#637644;}
	.st41{fill:#9F1E29;}
	.st42{fill:#F9B03D;}
	.st43{fill:#0D71B9;}
	.st44{fill:#E52629;}
	.st45{fill:#676767;}
	.st46{fill:#30358C;}
	.st47{fill:#9A9999;}
	.st48{fill:#3F4798;}
	.st49{fill:#2DABE3;}
	.st50{fill:#C1292E;}
	.st51{fill:#F2F2F2;}
	.st52{fill:#AA7C4C;}
	.st53{fill:#D6A573;}
	.st54{fill:#29ACE1;}
	.st55{fill:#88C05E;}
	.st56{fill:#F39323;}
	.st57{fill:#EB5B28;}
	.st58{fill:#B85965;}
	.st59{fill:#A67D52;}
	.st60{fill:#8C633A;}
	.st61{fill:#009245;}
	.st62{fill:#066938;}
	.st63{fill:#7D252D;}
	.st64{fill:#95D3E3;}
	.st65{fill:#603914;}
	.st66{fill:#EFC9AF;}
	.st67{fill:#D987B8;}
	.st68{fill:#8FC14D;}
	.st69{fill:#C69C6C;}
	.st70{fill:#2BADE1;}
	.st71{fill:#A4C958;}
	.st72{fill:#754D24;}
	.st73{fill:#35AE73;}
	.st74{fill:#E0B99E;}
	.st75{fill:#BDCCD4;}
	.st76{fill:#0C0D0D;}
	.st77{fill:#F4E152;}
	.st78{fill:#1E1911;}
	.st79{fill:#A1BD4F;}
	.st80{fill:#CBE6DC;}
	.st81{fill:#B5DCCE;}
	.st82{fill:#1F1D1B;}
	.st83{fill:#746458;}
	.st84{fill:#C7B29A;}
	.st85{fill:#998675;}
	.st86{fill:#428540;}
	.st87{fill:#E3E5E3;}
	.st88{fill:#161617;}
	.st89{fill:#1E1F1E;}
	.st90{fill:#474847;}
	.st91{fill:#191A19;}
	.st92{fill:#4B2C15;}
	.st93{fill:#92552A;}
	.st94{fill:#7EA847;}
	.st95{fill:#D59E2B;}
	.st96{fill:#807E79;}
	.st97{fill:#E5B744;}
	.st98{fill:#8EC045;}
	.st99{fill:#3B569A;}
	.st100{fill:#A1B7E0;}
	.st101{fill:#8FC9CC;}
	.st102{fill:#9ED1CA;}
	.st103{fill:#81AAA9;}
	.st104{fill:#E1783D;}
	.st105{fill:#64328A;}
	.st106{fill:#DEDEA5;}
	.st107{fill:#754997;}
	.st108{fill:#EE6F43;}
	.st109{fill:#A6CB67;}
	.st110{fill:#8FB7C0;}
	.st111{fill:#E2E1DF;}
	.st112{fill:#2C3E70;}
	.st113{fill:#D9BF96;}
	.st114{fill:#9C6941;}
	.st115{fill:#61605E;}
	.st116{fill:#9C9A99;}
	.st117{fill:#245F3D;}
	.st118{fill:#191713;}
	.st119{fill:#C39A62;}
	.st120{fill:#A17C4F;}
	.st121{fill:#F39200;}
	.st122{fill:#432918;}
	.st123{fill:#B17F4A;}
	.st124{fill:#FFCE1E;}
	.st125{fill:#BE1622;}
	.st126{fill:#3AAA35;}
	.st127{fill:#911825;}
	.st128{fill:#009FE3;}
	.st129{fill:#E94E1B;}
	.st130{fill:#FFCC03;}
	.st131{fill:#95C11F;}
	.st132{fill:#00A19A;}
	.st133{fill:#683C11;}
	.st134{fill:#878787;}
	.st135{fill:#634E42;}
	.st136{fill:#CBBBA0;}
	.st137{fill:#7B5B41;}
	.st138{fill:#493E36;}
	.st139{fill:#78A62C;}
	.st140{fill:#2C8535;}
	.st141{fill:#F9B233;}
	.st142{fill:none;}
	.st143{fill:#CA9E67;}
	.st144{fill:#E30613;}
	.st145{fill:#C6C6C6;}
	.st146{fill:#575756;}
	.st147{fill:#7B6A58;}
	.st148{fill:#A3C5D7;}
	.st149{fill:#332C25;}
	.st150{fill:#29235C;}
	.st151{fill:#E6332A;}
	.st152{fill:#738D93;}
	.st153{fill:#C87B31;}
	.st154{fill:#5BBCA7;}
	.st155{fill:#EF786F;}
	.st156{fill:#EE8D9E;}
	.st157{fill:#A74B56;}
	.st158{fill:#E72D7B;}
	.st159{fill:#E84138;}
	.st160{fill:#3B2315;}
	.st161{fill:#8EC044;}
	.st162{fill:#A1C74B;}
	.st163{fill:#231F20;}
	.st164{fill:#F6D9A7;}
	.st165{fill:#F4A5A6;}
	.st166{fill:#6E6F70;}
	.st167{fill:#F8AF41;}
	.st168{fill:#B79C19;}
	.st169{fill:#EFD101;}
	.st170{fill:#207A97;}
	.st171{fill:#20ACE3;}
	.st172{fill:#C51618;}
	.st173{fill:#C19446;}
	.st174{fill:#9E599F;}
	.st175{fill:#CD95C2;}
	.st176{fill:#F29A26;}
	.st177{fill:#FCCE8D;}
	.st178{fill:#F39B85;}
	.st179{fill:#E52628;}
	.st180{fill:#6BB52D;}
</style>
<g>
	<g>
		<path class="st124" d="M266.6,78.5c-1.2-2.5-5.6-3.1-11.2-1.9c0.5-2.6,0.2-4.8-1.3-6c-1.8-1.6-5-1.2-8.5,0.8
			c-0.6-2.4-1.8-4-3.5-4.5c-3.9-1.1-9,4.4-11.3,12.3c-0.3,1-0.5,2-0.7,3c-7.4-7.4-16.3-11-25.1-8.9c-9.2,2.2-16,10.1-19.3,20.7
			c-1.5-1.2-3.3-2.4-5.3-3.4c-7.4-3.7-14.9-3.7-16.7-0.1c-0.8,1.6-0.4,3.6,0.9,5.7c-3.7,1.2-6.2,3.2-6.3,5.7c-0.1,1.9,1.3,3.6,3.5,5
			c-4.7,3.3-7.3,7-6.3,9.5c1.5,3.8,10.4,3.7,19.8-0.2c3.1-1.3,5.8-2.8,8-4.3c0.1,4,0.6,8.2,1.6,12.4c1.7,7.7,5.4,11.4,9.8,12.7
			c-1,1.7-2,3.4-3,5.2c0,0,0,0,0,0c-1.8,0.6-3.7,1-5.6,1.3c-2.6,0.3-2.1,4.4,0.5,4c0.9-0.1,1.8-0.3,2.7-0.5
			c-0.4,0.9-0.7,1.8-1.1,2.7c-0.9,2.4,2.7,4.1,3.7,1.6c0.5-1.2,0.9-2.4,1.4-3.6c0.6,1,1.3,2,2,2.9c1.6,2.1,4.9-0.3,3.3-2.4
			c-1.1-1.5-2.2-3-3.1-4.6c1.1-2,2.3-4,3.5-5.9c9.3,0.2,19.6-6.7,19.6-6.7s10.3,1.9,18.5-0.6c1.5,1.7,2.9,3.5,4.3,5.3
			c-0.6,1.7-1.4,3.4-2.3,5c-1.2,2.3,2.4,4.1,3.6,1.8c0.6-1,1.1-2.1,1.6-3.2c0.7,1.1,1.3,2.2,2,3.4c1.3,2.3,4.7,0.1,3.4-2.2
			c-0.5-0.8-1-1.7-1.4-2.5c0.9,0.1,1.8,0.1,2.8,0.1c2.6-0.1,2.4-4.1-0.2-4c-1.9,0-3.8-0.1-5.7-0.4c0,0,0,0-0.1,0
			c-1.3-1.7-2.6-3.3-3.9-4.9c5-2.9,7.9-8.5,4.8-18.9c-1.4-4.8-3.3-9.3-5.4-13.3c3.6-0.2,8-1.4,12.6-3.5
			C262.2,88.6,268.3,82.2,266.6,78.5z"/>
		<g>
			<path d="M220.7,80.3c-0.2,0.1-0.4,0.1-0.5,0.2c0.2-0.2,0.4-0.3,0.6-0.5c0.6-0.6-0.3-1.5-0.9-0.9c-0.3,0.3-0.6,0.5-1,0.7
				c0.2-0.3,0.3-0.6,0.4-0.9c0.1-0.3-0.1-0.7-0.4-0.8c-0.3-0.1-0.7,0.1-0.8,0.4c-0.1,0.4-0.4,0.9-0.8,1.1c-0.3-0.1-0.5-0.2-0.8-0.1
				c-0.8,0.2-1.2,1.1-1,2c0.2,0.9,1,1.5,1.8,1.3c0.4-0.1,0.7-0.4,0.9-0.7c0.9,0.1,2-0.3,2.9-0.5C221.8,81.3,221.5,80,220.7,80.3z"/>
			<path d="M194.4,86.5c0.2,0,0.4-0.1,0.5-0.1c-0.3,0-0.5-0.1-0.8-0.2c-0.8-0.3-0.4-1.5,0.4-1.2c0.4,0.1,0.8,0.2,1.2,0.2
				c-0.3-0.2-0.5-0.4-0.7-0.6c-0.2-0.3-0.2-0.6,0-0.9c0.2-0.2,0.7-0.3,0.9,0c0.3,0.4,0.8,0.7,1.2,0.6c0.2-0.2,0.4-0.4,0.7-0.4
				c0.8-0.2,1.6,0.4,1.8,1.3c0.2,0.9-0.2,1.8-1,2c-0.4,0.1-0.8,0-1.1-0.3c-0.8,0.5-1.9,0.7-2.8,0.8
				C193.9,87.9,193.6,86.7,194.4,86.5z"/>
		</g>
		<g>
			<path class="st125" d="M198.8,66.4c-2.6,1.3,1.3,8.8,3,11.1c0.5,0.6,1.5,1.4,2.5,1.7c1.1,0.3,5.4,0.3,4.9-2.5
				c-0.5-2.8,0.2-10.6-1.4-11.3c-2-0.8-3,1.1-2.9,3.4c0.1,2.3-2.1-4-3.1-4c-0.9,0-0.9,2-0.7,3.5C201.4,69.8,199.5,66,198.8,66.4z"/>
			<path class="st125" d="M211,88.6c-0.3,1-0.7,2.1-1,3.1c-0.1,0.5-0.3,0.9-0.4,1.4c-1.2-1.4-2.6-2.7-4.2-3.7
				c-1.5-0.9-2.9,1.4-1.4,2.3c1.9,1.2,3.5,2.8,4.7,4.7c0.4,0.6,1.2,0.9,1.8,0.5c1.1-0.7,1.3-1.9,1.6-3c0.5-1.5,1-3,1.4-4.5
				C214.1,87.8,211.5,87,211,88.6z"/>
		</g>
	</g>
	<g>
		<g>
			<path d="M154,359.7c0-0.1,0-0.2,0-0.3h0c-0.3-3.5-0.5-7-0.8-10.5c-0.6-7.7-1.2-15.6-1.7-23.4c-0.8-14.3-1.6-33.2-0.9-52.4
				c0.1-1.5,0-3-0.6-4.6c-0.8-2-2.4-3.1-4.6-3.1c-1.5,0-3.5,0.6-4.5,3.2c-0.5,1.2-0.5,2.4-0.5,3.5c0,0.2,0,0.5,0,0.7
				c-0.4,16,0.1,32.3,0.6,47.6c0,0.2,0,0.4,0.1,0.6c-6.3-1.4-11,0.5-13.9,2.5c-4.7,3.2-8,8.8-8.5,14.7c-0.4,4.4,0.4,8.8,2.4,13.1
				c4.5,10.1,12.7,13.9,22.9,10.5c0.7,4,3,5.4,5.1,5.4c0.2,0,0.3,0,0.5,0c2.4-0.2,4.9-2.2,4.5-7C154.1,360,154.1,359.9,154,359.7z
				 M143.1,347.4c0.1,2-0.8,3.8-2.5,4.9c-1.6,1.1-3.6,1.2-5.4,0.4h0c-3.8-1.8-5.2-5.3-6.2-10c-0.1-0.5-0.1-1.1-0.1-1.7
				c0-0.2,0-0.5,0-0.7c0.1-4.6,1.8-7.6,5.3-9.3c2.7-1.3,4.7-0.8,6.5,1.7c1.1,1.5,1.7,3.2,1.8,5.2c0.1,1.3,0.2,2.7,0.3,4
				C142.8,343.8,143,345.6,143.1,347.4z"/>
			<path d="M159.9,282.8L159.9,282.8c0.1,0,0.1,0,0.2,0c1.3,0,2.4-0.5,3.3-1.4c1-1,1.6-2.5,1.6-4c0-2.9-2-5.2-4.7-5.3
				c-1.3,0-2.5,0.4-3.5,1.4c-1.1,1-1.7,2.5-1.7,4C155.1,280.4,157.2,282.7,159.9,282.8z"/>
			<path d="M167.6,358.2c-1.7-26.3-2.4-46.5-2.1-65.4l0-0.1c0-1,0-2.1-0.2-3.2c-0.6-2.5-2.6-4-5.1-3.8c-2.4,0.2-4,1.6-4.4,4
				c-0.2,1.1-0.2,2.1-0.2,3.1l0,0.4c-0.1,8.9-0.1,20.7,0.2,32.7c0.6,11.2,1.2,22.4,1.8,33.6l0,0.3c0,0.8,0.1,1.5,0.2,2.3
				c0.4,2.9,2.4,4.9,5,4.9c0,0,0.1,0,0.1,0c2.8-0.1,4.8-2.3,4.9-5.6c0-1.1,0-2.1-0.1-3.2L167.6,358.2z"/>
			<path d="M200.9,276.3l0-0.4c0-0.5,0-1.1-0.2-1.7c-0.6-2.4-2.7-4.1-5-4c-2.4,0.1-4.3,1.9-4.7,4.4c-0.2,1.1-0.1,2.3,0,3.2
				c-1.9-0.1-3.8-0.1-5.8,0.5c-8.2,2.5-13.7,11.6-12.4,20.6c1.1,7.5,5.7,12.4,13.2,13.7c2.3,0.4,4.4-0.2,6.5-0.7
				c0.1,0,0.1,0,0.2-0.1c0.7,9,0.8,17.7,0.8,25.7c0,2.8-0.3,5.4-0.8,8c-0.9,4.7-2.3,7.9-4.5,10.4c-0.5,0.6-1.2,1.2-1.9,1.2
				c-0.7,0-1.4-0.7-1.9-1.3c-1.3-1.7-2.3-3.7-3-5.9c-0.6-1.9-1.1-4-1.6-5.9c-0.2-0.9-0.5-1.8-0.7-2.8c-0.1-0.3-0.1-0.5-0.2-0.8
				c-0.2-0.7-0.3-1.5-0.7-2.2c-1.1-2.6-3.4-3.8-6-3.1c-2.3,0.6-3.6,2.6-3.5,5.2c0,0.6,0.1,1.2,0.2,1.8c0.3,1,0.5,2,0.8,3
				c0.6,2.6,1.3,5.3,2.1,7.9c1.4,4.3,3.3,7.7,5.8,10.4c2.4,2.5,5.4,3.9,8.5,3.9c0,0,0,0,0.1,0c3.1,0,6.1-1.3,8.5-3.8
				c2.6-2.6,4.6-6,6.1-10.1c1.9-5.3,2.8-11,2.7-18c-0.2-13.1-0.9-26.4-1.6-39.2C201.5,289.6,201.2,282.9,200.9,276.3z M189.1,302.4
				c-1.9,0.6-4.4-0.3-5.5-2c-1.2-1.9-1.3-5.1-0.2-8c1-2.5,2.8-4.2,4.8-4.6c0.6-0.1,1-0.2,1.4-0.2c0.4,0,0.8,0.1,1,0.2
				c0.5,0.3,0.7,1.3,0.7,2c0.1,0.7,0.1,1.3,0.1,2l0.3,4.9h0c0,0.4,0,0.9,0,1.3C192,301.1,190.4,302,189.1,302.4z"/>
			<path d="M280,360.2c-0.8-6-1.2-12-1.5-18.6c-0.9-16.8-1.1-33.9-1.3-50.5c0-3.9-0.1-7.9-0.2-11.8c0-1.5-0.1-2.9-0.1-4.4
				c-0.1-1.1-0.2-4.5-3.7-5.8c-1.7-0.6-4.2-0.7-6.5,2.4c-2.1,2.8-4.2,5.7-6.3,8.9c-1.5,2.2-3,4.3-4.6,6.3c-0.1,0.1-0.1,0.1-0.1,0.2
				c-0.1-0.1-0.1-0.1-0.2-0.2c-2.2-2.8-4.5-5.6-6.7-8.4l-0.8-1c-1.3-1.6-2.8-3.4-4.7-5c-0.9-0.7-3.5-2.8-6.7-1.3
				c-2.3,1.1-3.5,3.2-3.5,5.9l0,0.5c0,1.8,0,3.6,0.2,5.4c2,27.2,3.4,51.8,4.3,75.2c0.1,1.4,0.2,2.5,0.5,3.5c0.6,2.3,2.3,3.7,4.7,3.7
				c2.3,0,4-1.3,4.6-3.7c0.4-1.4,0.3-2.9,0.3-4.1l0-0.4c-1.1-24.8-2.4-47.4-3.9-69.1c0.7,0.9,1.5,1.8,2.2,2.6
				c1.3,1.6,2.7,3.2,4.1,4.8c3.3,3.4,6.7,3.6,10.5,0.6c2.8-2.2,4.8-5,6.7-7.7c0.3,23.4,0.6,44.6,2.2,65.9c0.2,3.3,0.6,6.2,1.1,8.8
				c0.5,2.5,2.5,4.1,4.8,4.1c0.2,0,0.5,0,0.7-0.1c2.5-0.4,4.2-2.5,4.3-5.2c0-0.5-0.1-0.9-0.1-1.3L280,360.2z"/>
			<path d="M314.2,338.5c-0.9-1-2.3-1.7-3.8-1.7h0c-2,0-4.4,0.8-4.9,4.9c-0.4,3.9-1.3,7.6-1.9,10.5c-0.4,1.7-0.9,2.9-1.5,3.9
				c-0.3,0.4-0.5,0.7-0.6,0.8c-0.1-0.1-0.3-0.3-0.7-0.7c-1.4-1.7-2.3-3.7-3.2-5.6c-1.7-3.9-2.7-8-3.7-12.9c-1.7-8-2.6-16.2-2.7-24.1
				c0-0.3,0-0.7,0-1c0.3,0,0.7,0,1,0c1.5,0,3,0,4.5,0c0.7,0,1.3,0,2,0l1.4-0.1c0.2,0,0.4,0,0.6,0c1.5,0,3,0,4.6,0
				c5.6-0.3,8.2-2.8,8.5-8.5c0.2-4.3-0.3-8.5-1.4-12.7c-0.9-3.4-2.7-8.4-7.1-11.8c-4.1-3.2-8.3-3.5-12.9-0.9
				c-2.9,1.7-5.1,4.2-6.8,7.7c-2,4.3-3.3,9.1-3.9,14.1c-1.6,15.4-0.2,31.2,4.5,48.3c1.6,5.8,3.9,10.5,6.9,14.2
				c2.4,2.8,5.4,4.4,8.5,4.4c0.3,0,0.6,0,0.9,0c3.4-0.3,6.3-2.4,8.2-5.9c3.4-6.1,4.1-13.1,4.7-18.8
				C315.6,341,315.1,339.6,314.2,338.5z M295.7,288.9c0.9-1.2,1.8-1.8,2.5-1.8c0,0,0,0,0,0c0.7,0,1.5,0.7,2.3,1.9
				c2.8,4.1,3.2,9,3.2,13.6c0,0,0,0.1,0,0.1c-0.1,0-0.1,0-0.2,0c-1.5,0-3,0-4.6,0l-1.9,0l-1.5,0.1h-0.1c-1.3,0-2.5,0-3.8,0
				c0.7-4.8,1.5-8.8,3.3-12.6C295.2,289.7,295.5,289.3,295.7,288.9z"/>
		</g>
		<g>
			<g>
				<path class="st125" d="M136,178.7c-1.9,11-1.8,22.1-1.1,33.2c0.5,7.4,1.3,14.7,3.1,21.8c0.8,3,1.6,6.1,3.4,8.7
					c1.4,2.1,2.3,2,3.6-0.2c1-1.8,1.6-3.7,2.1-5.7c0.2-0.8,0.3-1.7,0.6-2.5c0.6-2.1,1.8-3,3.5-2.8c1.6,0.2,3.1,1.6,2.9,3.5
					c-0.7,5.6-2.1,11-6.5,14.7c-2.8,2.3-6.1,2.1-9-0.3c-2.2-1.9-3.5-4.4-4.7-7.1c-7.1-16.7-6.4-42.8-5.5-54.5
					c0.4-5.8,1.2-11.5,2.9-17.1c1.2-4,3.1-7.6,6.4-10.1c4.8-3.7,10.2-3,13.8,2c2.3,3.2,3.2,6.9,4,10.7c0.4,1.9-0.8,3.5-2.3,3.9
					c-1.5,0.4-2.9-0.4-3.7-2c-0.3-0.6-0.5-1.4-0.7-2c-0.3-1-0.5-2.1-0.9-3.1c-0.8-2.1-1.4-4.8-4-4.9c-2.5-0.1-3.8,2.2-4.9,4.2
					C137.3,172,136.6,175.4,136,178.7z"/>
				<path class="st125" d="M190.3,246.7c0,2.6-1.3,4.3-3.2,4.4c-1.9,0.1-3.4-1.5-3.5-4.1c-0.1-3.4,0-6.8-0.1-10.1
					c-0.1-3.4-0.7-6.7-1.6-10c-0.4-1.3-0.9-2.5-1.5-3.6c-1-1.7-1.9-1.9-3.5-0.9c-2,1.3-3.5,3.2-4.6,5.3c-2.7,5.2-4.1,10.7-4.3,16.6
					c0,1.2,0.1,2.4-0.1,3.6c-0.2,1.7-1.2,2.9-2.9,3.2c-1.5,0.2-2.8-0.7-3.4-2.4c-0.2-0.7-0.4-1.4-0.4-2.1
					c-0.5-10.4-1.7-20.7-1.6-31.1c0.2-15.4-0.7-30.9-0.2-46.3c0.1-3.1,0.2-6.3,0.3-9.4c0-1.5,0.2-2.9,0.7-4.3
					c0.6-1.7,1.9-2.5,3.5-2.2c1.6,0.3,2.4,1.4,2.6,3c0.1,0.5,0,1,0,1.4c-1.1,11.2-0.6,22.4-0.6,33.7c0,9.4,0.2,18.8,0.4,28.2
					c0,1.2-0.2,2.4,0.6,3.8c1.9-2.5,3.5-4.7,5.7-6.3c5.2-3.8,10.4-2.6,13.5,3.2c2,3.7,2.9,7.9,3.4,12.1
					C190.4,237.1,190.3,241.9,190.3,246.7z"/>
				<path class="st125" d="M194.3,163c0-2.1,1.5-3.8,3.3-3.8c1.7,0.1,3,1.6,3,3.7c0,2.2-1.4,3.8-3.3,3.7
					C195.6,166.6,194.3,165.1,194.3,163z M203.4,247.1c-0.1,2.4-1.3,4-3.1,4c-1.7,0-3-1.3-3.3-3.5c-0.1-0.8-0.2-1.7-0.2-2.5
					c-0.6-11.2-1.2-22.4-1.8-33.6c-0.3-10.9-0.3-21.7-0.2-32.6c0-1.1,0-2.2,0.2-3.2c0.3-1.6,1.2-2.6,2.8-2.7
					c1.6-0.1,2.9,0.8,3.3,2.5c0.2,0.9,0.2,1.9,0.2,2.9c-0.3,21.9,0.7,43.7,2,65.5C203.3,244.9,203.4,246,203.4,247.1z"/>
				<path class="st125" d="M215.5,178.7c-1.9,11-1.8,22.1-1.1,33.2c0.5,7.4,1.3,14.7,3.1,21.8c0.8,3,1.6,6.1,3.4,8.7
					c1.4,2.1,2.3,2,3.6-0.2c1-1.8,1.6-3.7,2.1-5.7c0.2-0.8,0.3-1.7,0.6-2.5c0.6-2.1,1.8-3,3.5-2.8c1.6,0.2,3.1,1.6,2.9,3.5
					c-0.7,5.6-2.1,11-6.5,14.7c-2.8,2.3-6.1,2.1-9-0.3c-2.2-1.9-3.5-4.4-4.7-7.1c-7.1-16.7-6.4-42.8-5.5-54.5
					c0.4-5.8,1.2-11.5,2.9-17.1c1.2-4,3.1-7.6,6.4-10.1c4.8-3.7,10.2-3,13.8,2c2.3,3.2,3.2,6.9,4,10.7c0.4,1.9-0.8,3.5-2.3,3.9
					c-1.5,0.4-2.9-0.4-3.7-2c-0.3-0.6-0.5-1.4-0.7-2c-0.3-1-0.5-2.1-0.9-3.1c-0.8-2.1-1.4-4.8-4-4.9c-2.5-0.1-3.8,2.2-4.9,4.2
					C216.8,172,216.1,175.4,215.5,178.7z"/>
				<path class="st125" d="M266.2,246.4c-1.5,1.1-3.1,0.8-4.6-1c-0.5-0.5-0.9-1.1-1.3-1.7c-4-5.2-8.5-9.9-13.2-14.3
					c-1.1,0.7-0.7,1.6-0.6,2.4c0.2,4.7,0.5,9.4,0.8,14.1c0,0.8,0.1,1.7,0,2.5c-0.3,1.6-1.4,2.6-2.9,2.7c-1.5,0.1-2.7-0.7-3.2-2.2
					c-0.3-1-0.4-2.1-0.4-3.2c-1.4-20.3-2.2-40.5-1.4-60.8c0.3-6.4,0.2-12.8,0.3-19.2c0-1.4-0.1-2.9,0.5-4.3c0.7-1.6,2.1-2.4,3.7-2.1
					c1.6,0.4,2.4,1.5,2.4,3.1c0,1-0.1,1.9-0.1,2.9c-0.1,14.9-0.3,29.7-0.4,44.6c0,1.3-0.3,2.6,0.6,4.5c3.1-4.2,5.9-8,8.7-11.8
					c0.6-0.9,1.2-1.8,1.9-2.6c1.6-1.8,3.5-2.2,4.9-0.9c1.3,1.1,1.5,2.9,0.3,4.9c-0.4,0.7-0.9,1.4-1.4,2c-3.4,4.7-6.8,9.5-10.6,13.9
					c-1.3,1.5-1,2.3,0.3,3.5c5.2,5,10.4,10.1,14.8,15.9c0.6,0.8,1.2,1.5,1.6,2.3C267.9,243.5,267.7,245.3,266.2,246.4z"/>
				<path class="st125" d="M297.5,180.3c-0.1,1.8-1.5,3-3,3c-1.6,0.1-3.1-1.2-3.2-3.2c-0.1-2.4-0.4-4.8-0.8-7.2
					c-0.4-2.1-1.2-4.2-2.8-5.7c-1.7-1.6-3.4-1.5-4.7,0.6c-1.8,3-2.2,6.3-2.1,9.7c0.1,3.8,0.9,7.4,2.3,10.9c1.8,4.5,3.6,8.9,5.5,13.3
					c3.8,8.9,6.3,18.1,7.3,27.8c0.6,5.9,0,11.6-3.7,16.5c-2,2.6-4.3,4.7-7.7,5.1c-4.3,0.4-7.4-1.8-9.7-5.3
					c-2.5-3.8-2.8-8.4-3.3-12.8c-0.2-1.6,0.8-2.7,2.4-3c1.6-0.3,3,0.2,3.8,1.9c0.6,1.3,0.7,2.8,0.8,4.2c0.2,2.1,0.6,4.1,1.7,5.8
					c1.8,3,3.9,3.1,6.2,0.6c2.1-2.3,3.1-5.7,3.1-8.7c-0.4-10.9-3.1-20.2-6.8-29.3c-1.9-4.6-3.9-9.3-5.8-14c-2.2-5.6-3-11.4-2.4-17.4
					c0.3-3.5,1.3-6.9,3.4-9.8c3.6-5.1,9.5-5.7,13.9-1.5C297,166.9,297.9,173.4,297.5,180.3z"/>
			</g>
			<path class="st125" d="M214.5,262.1c29.2-0.4,58.4-1.2,87.6-2.5c0.1,0.2,0.3,0.3,0.4,0.4c10.6,8.7,21,17.7,31,27
				c2.5,2.3,6.3-1.5,3.7-3.8c-6.3-5.9-12.8-11.6-19.4-17.2c4.7,2,9.6,3.7,14.6,5c3.3,0.8,4.7-4.4,1.4-5.2c-5.7-1.5-11.2-3.5-16.6-6
				c6.3-0.6,12.7-1.1,19-1.7c3.4-0.3,3.4-5.7,0-5.4c-7.2,0.6-14.3,1.3-21.5,1.9c6.6-3.5,12.7-7.9,18.1-13.3c2.4-2.4-1.3-6.2-3.7-3.8
				c-4.1,4.2-8.7,7.7-13.6,10.6c3.3-4.1,6.1-8.6,8.4-13.5c1.4-3.1-3.1-5.9-4.6-2.7c-3.8,8.3-9.2,15.4-16.1,21.2
				c-0.4,0.3-0.6,0.7-0.7,1c-29.4,1.3-58.8,2.1-88.2,2.5c-29.4-0.4-58.8-1.2-88.2-2.5c-0.1-0.4-0.4-0.7-0.7-1
				c-6.9-5.8-12.3-12.9-16.1-21.2c-1.4-3.1-6-0.4-4.6,2.7c2.2,4.9,5.1,9.4,8.4,13.5c-4.9-2.9-9.5-6.5-13.6-10.6
				c-2.4-2.4-6.2,1.4-3.7,3.8c5.4,5.4,11.5,9.8,18.1,13.3c-7.2-0.6-14.3-1.3-21.5-1.9c-3.4-0.3-3.4,5.1,0,5.4
				c6.3,0.6,12.7,1.1,19,1.7c-5.3,2.5-10.8,4.5-16.6,6c-3.3,0.8-1.9,6,1.4,5.2c5-1.3,9.9-3,14.6-5c-6.6,5.6-13,11.3-19.4,17.2
				c-2.5,2.3,1.2,6.1,3.7,3.8c10.1-9.3,20.4-18.3,31-27c0.2-0.1,0.3-0.3,0.4-0.4C156.1,261,185.3,261.8,214.5,262.1z"/>
		</g>
	</g>
	<g>
		<g>
			<path class="st125" d="M120.8,128.2c0,0,1.3-5.1,6-6.3c4.2-1.1,8.4,2.8,9.7,8.2c1.6,6.2-0.5,14.6-9.3,23.7
				c-12-3.8-17.9-10.1-19.4-16.4c-1.4-5.4,0.4-10.8,4.6-11.8C117.2,124.3,120.8,128.2,120.8,128.2z"/>
			<path class="st125" d="M103.4,173.4c0,0,2.8-4.3,7.6-3.8c4.2,0.4,6.7,5.3,6.2,10.7c-0.6,6.2-5.3,13.2-16.2,18.6
				c-9.7-7.4-13-15.1-12.4-21.3c0.5-5.4,3.9-9.7,8.1-9.3C101.4,168.6,103.4,173.4,103.4,173.4z"/>
			<path class="st125" d="M64.8,217.9c0,0-0.2-4.1,3.1-6c2.9-1.7,6.8,0.3,9,4c2.5,4.3,2.8,11-1.7,19.6c-9.7-0.2-15.5-3.6-18-7.9
				c-2.2-3.7-2.1-8.1,0.8-9.8C61.3,215.8,64.8,217.9,64.8,217.9z"/>
			<path class="st125" d="M68.9,260.2c0,0,1.6-4.8,6.2-5.6c4.1-0.7,7.8,3.3,8.7,8.5c1.1,6.1-1.6,13.9-10.6,21.9
				c-11.2-4.5-16.3-11-17.4-17.1c-0.9-5.2,1.2-10.2,5.3-11C65.8,256.2,68.9,260.2,68.9,260.2z"/>
			<path class="st125" d="M95.7,313.9c0,0,2.8-3.5,7-2.7c3.7,0.7,5.5,5.2,4.6,9.9c-1,5.4-5.7,11.2-15.8,15.1
				c-8-7.3-10.2-14.4-9.2-19.8c0.9-4.7,4.2-8.2,7.9-7.5C94.4,309.6,95.7,313.9,95.7,313.9z"/>
		</g>
		<g>
			<path class="st125" d="M295.6,124.3c0,0-1.9-4.9-6.7-5.6c-4.3-0.6-8,3.8-8.7,9.3c-0.8,6.4,2.2,14.5,12,22.4
				c11.5-5.2,16.6-12.2,17.4-18.5c0.7-5.5-1.6-10.6-6-11.2C298.6,120,295.6,124.3,295.6,124.3z"/>
			<path class="st125" d="M318.1,167.1c0,0-3.3-3.9-8-2.9c-4.2,0.9-6.1,6-4.9,11.3c1.3,6.1,6.8,12.5,18.3,16.6
				c8.8-8.5,11.2-16.5,9.9-22.6c-1.1-5.3-5-9.2-9.1-8.3C319.6,162.1,318.1,167.1,318.1,167.1z"/>
			<path class="st125" d="M361.7,206.8c0,0-0.3-4.1-3.8-5.6c-3.1-1.4-6.7,1-8.5,5c-2,4.6-1.5,11.2,4,19.3c9.7-1.3,15-5.4,17-10
				c1.8-3.9,1.1-8.3-2-9.7C364.9,204.3,361.7,206.8,361.7,206.8z"/>
			<path class="st125" d="M362.5,249.3c0,0-2.1-4.6-6.8-4.8c-4.2-0.2-7.3,4.2-7.6,9.5c-0.3,6.1,3.2,13.6,13.1,20.5
				c10.6-5.8,14.9-12.8,15.3-19c0.3-5.3-2.3-10-6.5-10.3C365.1,245,362.5,249.3,362.5,249.3z"/>
			<path class="st125" d="M342.1,305.7c0,0-3.2-3.2-7.3-1.9c-3.6,1.1-4.8,5.8-3.4,10.4c1.7,5.3,7,10.5,17.5,13.1
				c7.1-8.2,8.5-15.5,6.8-20.8c-1.4-4.6-5.1-7.7-8.7-6.6C343,301.3,342.1,305.7,342.1,305.7z"/>
		</g>
	</g>
</g>
</svg>
