<?xml version="1.0" encoding="utf-8"?>
<!-- Generator: Adobe Illustrator 22.0.1, SVG Export Plug-In . SVG Version: 6.00 Build 0)  -->
<svg version="1.1" id="Calque_1" xmlns="http://www.w3.org/2000/svg" xmlns:xlink="http://www.w3.org/1999/xlink" x="0px" y="0px"
	 viewBox="0 0 432 432" style="enable-background:new 0 0 432 432;" xml:space="preserve">
<style type="text/css">
	.st0{fill:#940808;}
	.st1{fill:#E56B6B;}
	.st2{fill:#1A1A1A;}
	.st3{fill:#DD5151;}
	.st4{fill:#6B313C;}
	.st5{fill:#B65165;}
	.st6{fill:#EB899F;}
	.st7{fill:#9C0000;}
	.st8{fill:#4D4D4D;}
	.st9{fill:#C4924B;}
	.st10{fill:#333333;}
	.st11{fill-rule:evenodd;clip-rule:evenodd;fill:#9C0000;}
	.st12{fill:#F68484;}
	.st13{fill:#AB1F1F;}
	.st14{fill:#A45F6F;}
	.st15{fill:#DEB0B0;}
	.st16{fill:#BA3434;}
	.st17{fill:#A57B7C;}
	.st18{fill:#F2F2F2;}
	.st19{fill:#EC1C24;}
	.st20{fill:#A54550;}
	.st21{fill:#FFFFFF;}
	.st22{fill:#AE5B65;}
	.st23{fill:#F5D3D1;}
	.st24{fill:#687A6E;}
	.st25{fill:#231F20;}
	.st26{fill-rule:evenodd;clip-rule:evenodd;fill:#333333;}
	.st27{fill:#F4E6E5;}
	.st28{fill:#EFBB75;}
	.st29{fill:#D8A160;}
	.st30{fill:#EFDDCA;}
	.st31{fill:#A55B6A;}
	.st32{fill:#92A182;}
	.st33{fill:#CCCCCC;}
	.st34{fill:#944E3C;}
	.st35{fill:#C1272D;}
	.st36{fill:#C67B32;}
	.st37{fill:#72696D;}
	.st38{fill:#E3A8A4;}
	.st39{fill:#9FC8C2;}
	.st40{fill:#8B8285;}
	.st41{fill:#71796C;}
	.st42{fill-rule:evenodd;clip-rule:evenodd;fill:#E9C8C3;}
	.st43{fill:#C06666;}
	.st44{fill:#96A4A5;}
	.st45{fill:#C53C3C;}
	.st46{fill:#EA6B74;}
	.st47{fill:#406D8F;}
	.st48{fill:#77A3C0;}
	.st49{fill:#F25850;}
	.st50{fill:#253245;}
	.st51{fill:#FFAA96;}
	.st52{fill:#E0C8A4;}
	.st53{fill:#39ABA9;}
	.st54{fill:#F6DE96;}
	.st55{fill:#F1D2CD;}
	.st56{fill:#E8C3C3;}
	.st57{fill:#AB2130;}
	.st58{fill:#982A3A;}
	.st59{fill:#E19F78;}
	.st60{fill:#FEDED2;}
	.st61{fill:#FFB0A1;}
	.st62{fill:#DB3434;}
	.st63{fill:#C76B6A;}
	.st64{fill:#E05E90;}
	.st65{fill:#CE9F5C;}
	.st66{fill:#FF8D71;}
	.st67{fill:#B75041;}
	.st68{fill:#FCE4B6;}
	.st69{fill:#B24A58;}
	.st70{fill:#3C0303;}
	.st71{fill:#8B1111;}
	.st72{fill:#B02121;}
	.st73{fill:#29285B;}
	.st74{fill:#E6E6E6;}
	.st75{fill:#D59D79;}
	.st76{fill:#F0C880;}
	.st77{fill:#B3B3B3;}
	.st78{fill:#C6C6C6;}
	.st79{fill:#A6A6A6;}
	.st80{fill:#603813;}
	.st81{fill:#BC2A34;}
	.st82{fill:#999966;}
	.st83{fill:#666633;}
	.st84{fill:#CC6666;}
	.st85{fill:#663333;}
	.st86{fill-rule:evenodd;clip-rule:evenodd;fill:#FEDED2;}
	.st87{fill:#534741;}
</style>
<g>
	<path class="st20" d="M232.6,107.1c-1.4-5-6.7-7.2-11.1-4.6c-2.8,1.6-5.1,4.5-6.7,7.7c-1.7-4.1-4.7-7.8-8.4-9.6
		c-6.1-2.9-11.9,3.3-12.2,9c-0.3,7.2,4.5,14.3,8.5,19.9c3.9,5.4,8.5,10.8,13.9,14.8c1,0.7,2.8,0.7,3.3-0.6
		c2.3-6.5,6.1-12.4,8.9-18.7C231.3,119.7,234.3,113,232.6,107.1z"/>
	<g>
		<g>
			<g>
				<path class="st17" d="M54.9,252.3c0.6,1.9,1.5,3.7,2.7,5.3c0.4,0.5,0.8,0.9,1.3,1.4c0.2,0.2,0.5,0.4,0.8,0.5
					c0.8,0.3,1.5,0.1,1.9-0.6c0.2-0.4,0.4-0.9,0.5-1.4c0.2-0.8,0.2-1.6,0.3-2.4c0.1-0.9,0.1-1.8,0.2-2.7c0.2-2.2,1.1-4,2.4-5.8
					c0.1-0.2,0.4-0.3,0.6-0.5c0.3,0.3,0.4,0.7,0.4,1.1c0.1,1,0.2,2,0.3,3c0.1,2.4,0.4,4.8,1.2,7.1c0.8,2.5,1.8,4.9,3.4,7.1
					c0.7,0.9,0.8,1.9,0.9,3c0.1,1.2,0.3,2.3,0.5,3.5c0.2,1,0.7,2,1.4,2.8c0.4,0.5,0.4,1,0.3,1.6c-0.3,1.2-0.7,2.4-0.9,3.7
					c-0.4,1.8-0.8,3.6-1.2,5.4c-0.1,0.8-0.1,1.7-0.1,2.6c0,0.3,0.1,0.6,0.2,0.9c0.3,0.7,0.9,1.1,1.7,1c0.3,0,0.7-0.2,1.1-0.3
					c0,0.2,0,0.3,0,0.5c-0.3,2-0.6,3.9-0.9,5.9c-0.8,4.7,0,9.2,1.8,13.6c0.9,2.3,2.1,4.5,3.4,6.5c0.6,1,1.4,1.8,2.2,2.7
					c0.6,0.7,1.4,1.2,2.3,1.5c0.1,1.3,0.1,2.5,0.3,3.8c0.2,1.6,0.4,3.2,0.7,4.7c0.1,0.8,0.5,1.6,1,2.3c0.6,0.8,1.4,1.3,2.4,1.5
					c0.9,0.1,1.8,0.2,2.7,0c1.1-0.3,1.7-1,1.6-2.1c0-0.6-0.2-1.3-0.4-1.9c-0.6-1.9-1.3-3.9-1.9-5.8c-0.1-0.2-0.2-0.5-0.3-0.8
					c0.2,0,0.3,0,0.4,0c0.9,0,1.4-0.4,1.7-1.2c0.3-0.8,0.3-1.7,0.2-2.6c-0.2-3-0.8-5.9-1.6-8.8c-0.2-0.8-0.3-1.7-0.4-2.5
					c-0.1-0.8,0-1.5,0.8-2c1.4-0.9,1.9-2.4,2.1-4c0.1-1.1,0.2-2.2,0.3-3.3c0-0.4,0.1-0.7,0.2-1.1c0.4,0.1,0.7,0.2,1,0.3
					c1.1,0.3,2-0.1,2.6-1.2c0.5-0.9,0.6-1.8,0.7-2.8c0.1-1.1,0.1-2.2,0.2-3.2c0.1-0.8,0.2-1.7,0.2-2.5c0-0.2,0.1-0.4,0.1-0.5
					c0.2-0.5,0.3-0.6,0.9-0.5c0.4,0.1,0.7,0.2,1.1,0.3c0.6,0.1,1.2,0.3,1.9,0.3c1,0,1.7-0.5,2.1-1.4c0.3-0.6,0.5-1.3,0.7-1.9
					c0.2-0.9,0.3-1.9,0.3-2.8c0-2.1,0-4.1,0-6.2c0-0.4,0.1-0.8,0.2-1.4c0.4,0.3,0.7,0.5,0.9,0.8c1.2,1.1,2.4,2.2,3.7,3.2
					c1.6,1.2,3.3,2.1,5.2,2.5c1.1,0.2,2.1,0.3,3.2,0.4c1,0.1,2.1,0.1,3.1,0.1c0.8,0,1.6,0.3,2.3,0.8c0.5,0.3,1,0.7,1.5,1
					c1.6,1.1,3.4,1.6,5.3,1.6c2.1,0.1,4.3-0.2,6.4-0.6c1.8-0.4,3.3-1.1,4.8-2.1c0.9-0.6,0.8-0.5,1.5,0.2c0,0,0.1,0.1,0.1,0.1
					c0.8,0.8,1.5,1.6,2.8,1.8c-0.1,0.9-0.1,1.7-0.2,2.6c-0.3,2.2-0.6,4.4-1,6.5c-0.4,2.2-0.2,4.4,0.5,6.5c0.2,0.5,0.4,1,0.7,1.4
					c0.6,0.8,1.4,1,2.3,0.5c0.3-0.2,0.7-0.4,1-0.6c0,0,0.1,0,0.2,0c0.1,0.3,0.3,0.6,0.3,1c0.3,1.8,0.7,3.5,1,5.3
					c0.3,2,0.6,3.9,1,5.9c0.6,2.9,2,5.4,3.9,7.5c0.4,0.4,0.5,0.8,0.5,1.3c0.3,2.8,0.6,5.6,1.3,8.3c0.2,0.7,0.5,1.5,0.9,2.1
					c0.8,1.4,2.1,1.8,3.5,2c1,0.1,2,0.1,2.9-0.5c0.9-0.5,1.4-1.5,1.2-2.5c-0.1-0.6-0.3-1.3-0.5-1.9c-1-2.8-2.1-5.5-3.1-8.3
					c-0.1-0.4-0.2-0.7-0.1-1.1c0.4-1.4,0.8-2.8,1.1-4.2c0.2-0.9,0.3-1.8,0.4-2.6c0.1-0.5,0.1-1,0.1-1.5c0-0.5,0.3-0.9,0.7-1.2
					c0,0,0.1-0.1,0.1-0.1c1.5-0.9,2.1-2.4,2.2-4.1c0-1.7-0.3-3.4-0.7-5c-0.3-1.2-0.6-2.4-1-3.6c0-0.1-0.1-0.3-0.1-0.4
					c-0.1-0.8-0.1-1,0.8-1.2c1.3-0.4,2.1-1.3,2.4-2.6c0.3-1.2,0.4-2.5,0.2-3.7c-0.3-2.4-0.8-4.7-1.1-7.1c-0.2-1.5-0.4-3-0.5-4.5
					c-0.1-1.2,0-2.3,0.4-3.4c0.1-0.3,0.3-0.7,0.5-1.1c0.2,0.1,0.4,0.2,0.6,0.4c0.3,0.2,0.6,0.5,1,0.7c1.2,0.8,2.4,0.7,3.5-0.3
					c0.5-0.5,0.9-1,1.3-1.6c0.4-0.7,0.8-1.5,1.1-2.3c0.1-0.3,0.3-0.5,0.4-0.9c0.2,0.2,0.4,0.4,0.6,0.6c1,1.1,2,1.2,3.3,0.4
					c0.4-0.3,0.9-0.6,1.2-1c0.9-1,1.9-2.1,2.8-3.2c2-2.5,3.7-5.1,5.2-7.9c0.6-1.1,1.1-2.2,1.6-3.3c2.1-4.6,3.5-9.4,4.4-14.4
					c0.7-4,1.1-8.1,1.2-12.2c0-1.7,0-3.5-0.1-5.2c-0.1-1.2-0.2-2.5-0.3-3.7c0-0.3-0.1-0.6-0.1-0.9c-0.5-4.8-1.4-9.5-2.2-14.2
					c-0.3-1.8-0.6-3.5-0.7-5.3c-0.1-0.8-0.1-1.6-0.2-2.4c0-0.7,0-1.4,0-2.1c0-0.8,0.1-1.6,0.3-2.4c0.2-1,0.7-1.5,1.7-1.7
					c1.1-0.2,2.3-0.1,3.4-0.1c1.6,0.1,3.1,0.3,4.7,0.1c0.6-0.1,1.3-0.3,1.9-0.5c1.3-0.5,1.7-1.7,1.2-2.9c-0.2-0.5-0.6-1-0.9-1.4
					c-0.1-0.2-0.3-0.3-0.6-0.6c0.3,0,0.5,0,0.6,0c1.7,0.2,3.3-0.1,4.7-1.1c1.8-1.3,2.2-3.2,1-5.1c-0.5-0.8-1.1-1.4-1.8-1.9
					c-0.8-0.5-1.7-1.1-2.5-1.5c-2.4-1.3-4.5-3.1-6.5-5.1c-0.7-0.7-1.4-1.4-2.1-2.2c0.2,0,0.4-0.1,0.5-0.1c0.7,0.1,1.4,0.1,2.1,0.2
					c0.3,0,0.5,0,0.8,0c1.1,0,1.6-0.8,1.1-1.8c-0.3-0.7-0.8-1.4-1.4-1.9c-0.2-0.2-0.4-0.3-0.6-0.5c0.1-0.1,0.1-0.1,0.2-0.1
					c1-0.5,1.3-1.3,0.7-2.3c-0.3-0.5-0.7-0.9-1.1-1.2c-1.8-1.4-3.8-1.9-6.1-1.8c-0.9,0-1.8,0.2-2.7,0.4c-0.2,0-0.4,0.1-0.6,0.1
					c0.1-0.3,0.2-0.5,0.2-0.7c0.2-0.6,0.5-1.3,0.7-1.9c0.1-0.3,0.2-0.7,0.3-1c0.1-0.5,0.1-0.9-0.4-1.2c-0.4-0.3-0.9-0.2-1.2,0.2
					c-0.9,0.9-1.8,1.7-2.6,2.6c-0.6,0.7-1.1,1.5-1.7,2.3c-0.1,0.2-0.2,0.3-0.5,0.4c0-0.3,0-0.7,0.1-1c0.1-1.4,0.2-2.9,0.2-4.3
					c0-0.6-0.1-1.2-0.2-1.7c-0.1-0.4-0.4-0.9-0.6-1.2c-0.5-0.6-1.2-0.9-2-0.6c-0.6,0.2-1.1,0.6-1.5,0.9c-1,0.8-1.8,1.9-2.4,3
					c-1,1.8-1.8,3.7-2.5,5.6c-0.3,0.9-0.6,1.7-0.9,2.6c-0.3,1.1-1,2-1.9,2.6c-0.5,0.4-1,0.7-1.4,1c-2,1.4-3.8,3-5.4,4.8
					c-0.6,0.7-1.1,1.4-1.4,2.2c-0.4,1.1-0.5,2.1-0.1,3.2c0.1,0.2,0.1,0.4,0.2,0.7c0.2,0.5,0.1,1-0.1,1.4c-0.7,1.4-1.5,2.8-2.2,4.2
					c-1.1,2-2,4-2.5,6.2c-0.1,0.5-0.2,1-0.2,1.5c0,0.8,0.4,1.5,1.1,1.9c0,0,0.1,0,0.1,0.1c0.3,0.2,0.5,0.3,0.7,0.5
					c0.4,0.4,0.4,0.8,0.1,1.6c-0.2,0.5-0.4,1.1-0.6,1.6c0,0.1-0.1,0.2-0.2,0.3c0,0,0,0,0,0c-0.5,1.2-1.1,2.4-1.7,3.7
					c-0.2,0.5-0.4,0.9-0.6,1.4c-0.6,1.3-1.1,2.6-1.1,4.1c0,0.6,0,1.1,0.2,1.7c0.3,1,0.7,1.2,1.7,1.1c0.1,0,0.1,0,0.3,0
					c0,0.2,0,0.4-0.1,0.5c-0.5,1.5-0.9,3-1.4,4.4c-0.7,1.9-1.6,3.6-2.8,5.2c-0.3,0.4-0.5,0.7-0.8,1.1c-1.3,1.6-3,2.6-4.8,3.4
					c0,0-0.1,0-0.1,0c-0.1,0.1-0.3,0.1-0.4,0.2c-2.2,0.9-4.5,1.4-6.8,1.7c-4.1,0.5-8.2,0.5-12.4,0.1c-2.9-0.2-5.8-0.9-8.6-1.6
					c-6.6-1.7-13-3.9-19.3-6.5c-0.6-0.3-1.3-0.5-1.9-0.8c-2.8-1.1-5.7-2.1-8.7-2.8c-2.1-0.5-4.2-0.9-6.3-0.6c-0.7,0.1-1.3,0.3-2,0.5
					c-1.1,0.4-1.6,1.3-1.7,2.5c0,0.3,0,0.7,0,1c0,0.8-0.1,0.9-0.9,1c-1.2,0.1-2.3,0.2-3.5,0.3c-0.7,0.1-1.5,0.1-2.2,0.3
					c-1.3,0.3-1.7,1.2-1.2,2.4c0.2,0.5,0.5,1,0.9,1.7c-0.3,0-0.6,0-0.8,0.1c-2.2,0.2-4.3,0.3-6.5,0.5c-2.2,0.2-4.1,1.1-5.9,2.2
					c-1,0.7-1.9,1.5-2.9,2.3c-0.5,0.4-0.9,1-1.1,1.7c-0.4,1-0.1,1.7,0.8,2.1c0.2,0.1,0.4,0.2,0.6,0.3c0.1,0,0.1,0.1,0.2,0.2
					c-0.1,0.3-0.2,0.5-0.4,0.8c-0.5,0.8-1,1.6-1.6,2.3c-1.6,2.3-2.7,4.9-3.2,7.8C53.7,245,53.9,248.7,54.9,252.3z"/>
				<g>
					<g>
						<path class="st2" d="M191.9,169.7c0-0.4,0.6-0.5,0.6-0.1c0.1,0.6,0.4,1.2,0.9,1.6c0.1-0.1,0.1-0.3,0.2-0.4
							c-0.4-0.4-0.6-0.8-0.8-1.3c0-0.2,0-0.3,0.2-0.4c0.1-0.1,0.4,0,0.4,0.2c0.1,0.4,0.3,0.7,0.5,1c0.1-0.1,0.2-0.2,0.3-0.3
							c-0.3-0.4-0.6-0.8-0.6-1.3c-0.1-0.4,0.6-0.5,0.6-0.1c0.1,0.4,0.3,0.7,0.6,1c0.3-0.1,0.7-0.2,1.1-0.1c1.3,0.2,2.1,1.7,1.8,3.3
							c-0.3,1.6-1.5,2.7-2.8,2.5c-1.3-0.2-2.1-1.7-1.8-3.3c0-0.1,0-0.1,0-0.1C192.4,171.4,192,170.6,191.9,169.7z"/>
						<path class="st21" d="M195.4,173c0.3,0,0.6,0.4,0.6,0.9c0,0.5-0.3,0.9-0.6,0.9c-0.3,0-0.6-0.4-0.6-0.9
							C194.8,173.4,195.1,173,195.4,173z"/>
						<path class="st21" d="M195.1,172.5c-0.3,0-0.6-0.3-0.6-0.6c0-0.3,0.3-0.6,0.6-0.6c0.3,0,0.6,0.3,0.6,0.6
							C195.7,172.2,195.5,172.5,195.1,172.5z"/>
					</g>
					<path class="st2" d="M207.8,178.9c0.2,0,0.4-0.1,0.5-0.3c0.1-0.2,0.2-0.4,0.2-0.6c0-0.4-0.4-0.9-0.8-1c-0.4-0.1-0.7,0-1,0.4
						c-0.2,0.3-0.2,0.7,0.1,1C207,178.7,207.4,178.9,207.8,178.9z"/>
				</g>
			</g>
			<g>
				<g>
					<g>
						<path class="st22" d="M161.5,194.8c0.6,0.2,1.3,0.4,1.9,0.6c4,1.3,8.2,2.3,12.4,2.7c3.9,0.5,7.8,0.6,11.7,0.2
							c1.7-0.2,3.3-0.5,4.9-1.1c-0.1-0.8-0.1-1.6-0.2-2.4c-1.3,0.1-2.5,0.3-3.8,0.4c-1,0.1-2.1,0.2-3.1,0.2
							c-7.7,0.2-15.2-1.1-22.5-3.6c-0.3-0.1-0.6-0.2-0.9-0.3c0.4,0.4,0.4,0.8,0.1,1.6C161.9,193.8,161.7,194.3,161.5,194.8z"/>
						<path class="st22" d="M150.1,221.7c2.3,4.1,5.1,7.7,8.3,11.2c4.4,4.8,9.2,9,14.3,13c4.9,3.9,10.1,7.2,15.4,10.4
							c0.2,0.1,0.3,0.2,0.5,0.3c0.6-1.1,1.1-2.2,1.6-3.3c-0.4-0.3-0.7-0.5-1.1-0.8c-2.8-1.9-5.8-3.7-8.6-5.7
							c-6.2-4.4-12-9.2-17.4-14.6c-3.4-3.4-6.4-7-9-11c-0.1-0.2-0.2-0.4-0.3-0.5c0,0,0-0.1,0-0.2c0.2,0.1,0.4,0.1,0.5,0.2
							c4.2,1.7,8.5,2.9,12.9,3.7c2.8,0.6,5.7,0.9,8.6,1c2.1,0.1,4.1,0.2,6.2,0.1c3.3-0.1,6.5-0.5,9.6-1.5c1-0.3,2-0.7,2.9-1.4
							c0.4-0.3,0.9-0.6,1.2-1c-0.1-1.2-0.2-2.5-0.3-3.7c0-0.3-0.1-0.6-0.1-0.9c-0.5-0.4-1.2-0.7-1.8-1c-2.1-0.8-4.2-1.6-6.3-2.4
							c-7.8-3.1-14.8-7.3-21.1-13c-1.6-1.4-3.1-3-4.4-4.7c-0.1-0.2-0.3-0.3-0.4-0.5c-0.5,1.2-1.1,2.4-1.7,3.7
							c0.1,0.1,0.2,0.2,0.3,0.3c2.3,2.8,5,5.2,7.9,7.4c6.1,4.7,12.8,8.3,20.1,10.8c1.3,0.4,2.6,0.9,3.8,1.4c0.3,0.1,0.6,0.2,1,0.4
							c-0.4,0.2-0.7,0.4-1,0.6c-1.5,0.7-3.2,1-4.8,1.3c-3.8,0.6-7.7,0.6-11.6,0.3c-6-0.4-11.8-1.6-17.5-3.4c-0.7-0.2-1.3-0.5-2-0.7
							c-0.3,0.4-0.5,0.7-0.8,1.1C153.7,219.8,152,220.9,150.1,221.7C150.2,221.7,150.2,221.7,150.1,221.7z"/>
					</g>
					<g>
						<g>
							<circle class="st23" cx="175.8" cy="210.4" r="4.5"/>
							<circle class="st23" cx="168.4" cy="239.5" r="4.5"/>
						</g>
						<g>
							<g>
								<path class="st20" d="M169.6,218.1c-1.1-0.9-3.5,0.5-4.2,1.6c-0.3-1.2-2.2-3.3-3.5-2.8c-1.5,0.5-1,2.4-0.6,3.6
									c0.4,1.3,1.2,2.7,2.1,3.8c0.3,0.4,0.7,0.7,1,1.1c0.4-0.2,0.9-0.4,1.3-0.7c1.3-0.8,2.4-1.8,3.2-3
									C169.8,220.7,170.9,219.1,169.6,218.1z"/>
							</g>
							<g>
								<path class="st20" d="M188.6,192.8c-1.3-0.6-3.3,1.3-3.7,2.5c-0.6-1.1-2.9-2.7-4-1.9c-1.3,0.9-0.4,2.6,0.2,3.7
									c0.7,1.2,1.8,2.4,3,3.2c0.4,0.3,0.8,0.6,1.3,0.8c0.4-0.3,0.8-0.6,1.1-1c1-1,1.9-2.3,2.4-3.6
									C189.4,195.3,190,193.5,188.6,192.8z"/>
							</g>
							<g>
								<path class="st20" d="M187.6,249.1c-0.6-1.3-3.4-1.1-4.5-0.5c0.3-1.2-0.5-3.9-1.8-4.1c-1.5-0.2-2,1.7-2.2,2.9
									c-0.2,1.4-0.2,3,0.2,4.4c0.1,0.5,0.3,1,0.5,1.4c0.5,0,1,0,1.5,0c1.5-0.1,3-0.6,4.2-1.2C186.6,251.5,188.2,250.5,187.6,249.1
									z"/>
							</g>
						</g>
					</g>
				</g>
				<g>
					<path class="st23" d="M149.9,232.6c-1,6.7-3.8,12.5-8.6,17.4c-0.7,0.7-1.3,1.3-2,1.9c-1.8,1.6-3.8,2.9-5.9,4
						c-0.6,0.3-1.1,0.5-1.7,0.8c-2.8,1.2-5.7,1.8-8.7,2c-1.6,0.1-3.2,0.1-4.8-0.3c-3.5-0.9-6.4-2.7-9-5.2c-1.8-1.7-3.3-3.7-4.6-5.7
						c-0.6-0.9-1.1-1.8-1.7-2.8c-0.4-0.8-0.8-1.5-1.1-2.3c-1.7-3.7-2.7-7.7-3.1-11.8c-0.4-3.8-0.3-7.6,0.6-11.4
						c0.3-1.5,0.8-2.9,1.5-4.3c0.5,0.2,1,0.4,1.5,0.6c0.1,0,0.3,0.1,0.4,0.2c1.6,0.6,3.2,1.3,4.8,1.9c4.7,1.8,9.6,3.4,14.5,4.6
						c0.3,0.1,0.7,0.2,1,0.3c2.5,0.6,5,1.1,7.6,1.3c1.3,0.1,2.7,0.2,4,0.2c2.8,0.1,5.6,0,8.4-0.4c2.3-0.3,4.6-0.8,6.8-1.7
						c0.2-0.1,0.3-0.2,0.5-0.2C150.5,225.3,150.4,229,149.9,232.6z"/>
					<g>
						<g>
							<path class="st24" d="M114.3,233.4c-0.9-0.1-1.6-0.5-2.2-1c-2.2-2-3-4.5-2.4-7.5c0.1-0.5,0.2-0.9,0.3-1.4
								c0.1-0.7,0.4-0.8,1-0.5c1,0.5,1.8,1.2,2.5,2.1c1.4,2,2.1,4.2,1.8,6.7c0,0.2-0.1,0.5-0.2,0.9c-0.2-0.3-0.2-0.4-0.3-0.6
								c-0.9-1.8-1.7-3.5-2.5-5.3c0-0.1-0.1-0.1-0.1-0.2c-0.1-0.2-0.3-0.3-0.6-0.2c-0.3,0.1-0.4,0.3-0.3,0.6
								c0.1,0.2,0.2,0.4,0.3,0.6c0.7,1.5,1.5,3,2.2,4.5C114,232.6,114.2,233,114.3,233.4z"/>
							<path class="st24" d="M132.6,237.9c0.1-0.5,0.2-1.1,0.3-1.6c0.4-1.1,1.1-2,2-2.7c1.1-0.8,2.2-1.6,3.3-2.3
								c1.2-0.7,1.3-0.3,1.4,0.7c0,0.7,0,1.3-0.4,1.9c-1.1,2.1-2.8,3.5-5.2,4.2c0.1-0.2,0.1-0.4,0.2-0.4c0.6-0.5,1.1-1.1,1.7-1.6
								c0.8-0.7,1.6-1.3,2.4-1.9c0.3-0.3,0.4-0.5,0.2-0.7c-0.2-0.2-0.5-0.3-0.8-0.1c-0.4,0.3-0.9,0.7-1.3,1
								c-0.9,0.8-1.8,1.6-2.7,2.4c-0.4,0.4-0.7,0.8-1,1.2C132.7,238,132.7,237.9,132.6,237.9z"/>
						</g>
						<g>
							<g>
								<path class="st20" d="M124.1,237.9c-0.9-0.9-2.1-1.1-2.8-2.1c-0.2-0.3-0.6-0.4-1-0.4c-0.2,0-0.4,0-0.6-0.1
									c-1.2-0.5-2.3-0.5-3.4,0.2c-0.1,0-0.1,0-0.3,0.1c0.6-1.2,1.4-2.3,2.5-3.1c1.6-1.2,3.4-1.6,5.4-1.2c0.3,0.1,0.5,0.2,0.6,0.5
									c0.4,1.2,0.7,2.3,0.6,3.6C125.2,236.4,124.7,237.1,124.1,237.9z"/>
								<path class="st20" d="M122.2,250.2c0.6-0.8,1.3-1.5,1.8-2.3c0.6-0.8,1.3-1.5,2.2-2c0.4-0.2,0.9-0.3,1.4-0.4
									c0.7-0.1,1.3-0.3,2-0.5c0.4-0.1,0.7-0.5,1.1-0.7c0,0,0.1,0.1,0.1,0.1c0,1.3-0.1,2.6-0.9,3.8c-0.8,1.3-2,2.1-3.5,2.2
									c-0.6,0-1.2,0-1.8,0C123.9,250.2,123,250.2,122.2,250.2z"/>
								<path class="st20" d="M131.4,242.1c-0.3-0.5-0.5-0.9-0.7-1.3c-0.4-1-1.1-1.9-1.7-2.8c-0.9-1.2-1.7-2.4-2.3-3.8
									c-0.3-0.7-0.5-1.4-0.6-2.2c0.2,0,0.3,0,0.4,0.1c1.2,0.4,2.3,0.9,3.2,1.7c0.7,0.5,1.2,1.1,1.5,1.9c0.3,0.9,0.6,1.8,0.9,2.8
									C132.5,239.7,132.1,240.9,131.4,242.1z"/>
								<path class="st20" d="M123.4,247.1c-0.7,1.2-1.5,2.1-2.6,2.7c-0.3,0.2-0.6,0.2-1,0.1c-0.7-0.3-1.4-0.6-2-1
									c-0.8-0.5-1.2-1.2-1.5-2.1c-0.3-0.8-0.4-1.6-0.3-2.5c0.7,0.3,1.3,0.3,2,0.1c0.2,0,0.5,0,0.7,0.1c0.6,0.4,1.3,0.9,1.9,1.4
									C121.3,246.7,122.1,247.2,123.4,247.1z"/>
								<path class="st20" d="M125,238.5c0.6-0.7,0.7-1.6,1.5-2.1c0.1,0.1,0.2,0.1,0.2,0.2c0.6,0.8,1.2,1.7,1.8,2.5
									c0.8,1,1.3,2.2,1.8,3.4c0.1,0.3,0.1,0.5-0.1,0.7c-0.3,0.3-0.5,0.6-0.8,0.7c-0.8,0.5-1.7,0.5-2.7,0.4
									c0.4-1.1,0.5-2.1,0.2-3.2C126.5,240.1,125.6,239.4,125,238.5z"/>
								<path class="st20" d="M119.3,236.3c-0.3,0.3-0.5,0.6-0.7,0.9c-0.3,0.3-0.7,0.7-1,1c-0.9,1-0.7,2.1,0.3,2.9
									c0.1,0,0.1,0.1,0.1,0.1c-0.2,0.8-0.3,1.6-0.5,2.4c-0.9,0.3-1.6,0-2-0.8c-0.3-0.7-0.6-1.3-0.9-2c-0.2-0.5-0.2-1,0.1-1.5
									c0.6-0.8,1.1-1.7,1.8-2.5c0.7-0.8,1.6-1,2.5-0.6C119.1,236.2,119.2,236.2,119.3,236.3z"/>
								<path class="st20" d="M114.9,246.5c-0.9-0.8-1.9-1.4-2.5-2.4c-0.7-1-0.9-2.1-0.7-3.3c0.4-2.2,1.5-4.1,3-5.7
									c0.1-0.1,0.2-0.1,0.3-0.3c0,0.2,0,0.3,0,0.4c-0.3,1-0.5,1.9-1.1,2.8c-0.3,0.5-0.5,1.1-0.7,1.7c-0.1,0.2,0,0.5,0.1,0.8
									c0.3,0.7,0.6,1.4,0.9,2.1C114.8,243.9,114.9,245.2,114.9,246.5z"/>
								<path class="st20" d="M125.9,241.4c0.2,0.6,0.3,1.1,0.2,1.6c-0.2,1.3-0.9,2.3-2.1,2.9c-0.7,0.4-1.5,0.4-2.2,0
									c-0.4-0.3-0.9-0.6-1.2-1C123.7,245,124.5,244.4,125.9,241.4z"/>
								<path class="st20" d="M122.8,238.8c0.5-0.3,1-0.1,1.4,0.2c0.4,0.3,0.4,0.7,0.3,1.1c-0.2,0.7-0.6,1.2-1.3,1.4
									c-0.5,0.2-1,0.2-1.4-0.2c-0.4-0.3-0.8-0.6-1.1-1c-0.4-0.5-0.3-0.9,0.3-1.1c0.3-0.1,0.6,0,0.8,0c0.3,0.1,0.4,0.3,0.3,0.6
									c0,0.1,0,0.1,0,0.2c0,0.3,0.1,0.5,0.4,0.5c0.3,0.1,0.5-0.1,0.6-0.3c0.1-0.3,0-0.7,0-1C123,239.1,122.9,239,122.8,238.8z"/>
								<path class="st20" d="M119.1,243.1c0.1-0.5,0.2-1,0.3-1.6c0.6-0.1,1,0,1.4,0.4c1.3,1,2,1.1,3.5,0.2c0,0,0.1,0,0.2,0
									c-0.6,1.5-2.1,2.2-3.6,1.7C120.3,243.6,119.7,243.4,119.1,243.1z"/>
								<path class="st20" d="M120.6,236.4c0.5,0.5,1,0.9,1.4,1.3c-0.1,0.2-0.4,0.2-0.5,0.2c-0.4,0.2-0.8,0.3-1.1,0.5
									c-0.7,0.4-1.1,1-0.9,1.9c-0.6,0-1.1,0-1.4-0.5c-0.3-0.5,0.1-0.9,0.4-1.3c0.6-0.6,1.1-1.2,1.7-1.9
									C120.3,236.6,120.4,236.6,120.6,236.4z"/>
							</g>
						</g>
					</g>
				</g>
			</g>
		</g>
		<g>
			<g>
				<path class="st15" d="M377.1,252.3c-0.6,1.9-1.5,3.7-2.7,5.3c-0.4,0.5-0.8,0.9-1.3,1.4c-0.2,0.2-0.5,0.4-0.8,0.5
					c-0.8,0.3-1.5,0.1-1.9-0.6c-0.2-0.4-0.4-0.9-0.5-1.4c-0.2-0.8-0.2-1.6-0.3-2.4c-0.1-0.9-0.1-1.8-0.2-2.7c-0.2-2.2-1.1-4-2.4-5.8
					c-0.1-0.2-0.4-0.3-0.6-0.5c-0.3,0.3-0.4,0.7-0.4,1.1c-0.1,1-0.2,2-0.3,3c-0.1,2.4-0.4,4.8-1.2,7.1c-0.8,2.5-1.8,4.9-3.4,7.1
					c-0.7,0.9-0.8,1.9-0.9,3c-0.1,1.2-0.3,2.3-0.5,3.5c-0.2,1-0.7,2-1.4,2.8c-0.4,0.5-0.4,1-0.3,1.6c0.3,1.2,0.7,2.4,0.9,3.7
					c0.4,1.8,0.8,3.6,1.2,5.4c0.1,0.8,0.1,1.7,0.1,2.6c0,0.3-0.1,0.6-0.2,0.9c-0.3,0.7-0.9,1.1-1.7,1c-0.3,0-0.7-0.2-1.1-0.3
					c0,0.2,0,0.3,0,0.5c0.3,2,0.6,3.9,0.9,5.9c0.8,4.7,0,9.2-1.8,13.6c-0.9,2.3-2.1,4.5-3.4,6.5c-0.6,1-1.4,1.8-2.2,2.7
					c-0.6,0.7-1.4,1.2-2.3,1.5c-0.1,1.3-0.1,2.5-0.3,3.8c-0.2,1.6-0.4,3.2-0.7,4.7c-0.1,0.8-0.5,1.6-1,2.3c-0.6,0.8-1.4,1.3-2.4,1.5
					c-0.9,0.1-1.8,0.2-2.7,0c-1.1-0.3-1.7-1-1.6-2.1c0-0.6,0.2-1.3,0.4-1.9c0.6-1.9,1.3-3.9,1.9-5.8c0.1-0.2,0.2-0.5,0.3-0.8
					c-0.2,0-0.3,0-0.4,0c-0.9,0-1.4-0.4-1.7-1.2c-0.3-0.8-0.3-1.7-0.2-2.6c0.2-3,0.8-5.9,1.6-8.8c0.2-0.8,0.3-1.7,0.4-2.5
					c0.1-0.8,0-1.5-0.8-2c-1.4-0.9-1.9-2.4-2.1-4c-0.1-1.1-0.2-2.2-0.3-3.3c0-0.4-0.1-0.7-0.2-1.1c-0.4,0.1-0.7,0.2-1,0.3
					c-1.1,0.3-2-0.1-2.6-1.2c-0.5-0.9-0.6-1.8-0.7-2.8c-0.1-1.1-0.1-2.2-0.2-3.2c-0.1-0.8-0.2-1.7-0.2-2.5c0-0.2-0.1-0.4-0.1-0.5
					c-0.2-0.5-0.3-0.6-0.9-0.5c-0.4,0.1-0.7,0.2-1.1,0.3c-0.6,0.1-1.2,0.3-1.9,0.3c-1,0-1.7-0.5-2.1-1.4c-0.3-0.6-0.5-1.3-0.7-1.9
					c-0.2-0.9-0.3-1.9-0.3-2.8c0-2.1,0-4.1,0-6.2c0-0.4-0.1-0.8-0.2-1.4c-0.4,0.3-0.7,0.5-0.9,0.8c-1.2,1.1-2.4,2.2-3.7,3.2
					c-1.6,1.2-3.3,2.1-5.2,2.5c-1.1,0.2-2.1,0.3-3.2,0.4c-1,0.1-2.1,0.1-3.1,0.1c-0.8,0-1.6,0.3-2.3,0.8c-0.5,0.3-1,0.7-1.5,1
					c-1.6,1.1-3.4,1.6-5.3,1.6c-2.1,0.1-4.3-0.2-6.4-0.6c-1.8-0.4-3.3-1.1-4.8-2.1c-0.9-0.6-0.8-0.5-1.5,0.2c0,0-0.1,0.1-0.1,0.1
					c-0.8,0.8-1.5,1.6-2.8,1.8c0.1,0.9,0.1,1.7,0.2,2.6c0.3,2.2,0.6,4.4,1,6.5c0.4,2.2,0.2,4.4-0.5,6.5c-0.2,0.5-0.4,1-0.7,1.4
					c-0.6,0.8-1.4,1-2.3,0.5c-0.3-0.2-0.7-0.4-1-0.6c0,0-0.1,0-0.2,0c-0.1,0.3-0.3,0.6-0.3,1c-0.3,1.8-0.7,3.5-1,5.3
					c-0.3,2-0.6,3.9-1,5.9c-0.6,2.9-2,5.4-3.9,7.5c-0.4,0.4-0.5,0.8-0.5,1.3c-0.3,2.8-0.6,5.6-1.3,8.3c-0.2,0.7-0.5,1.5-0.9,2.1
					c-0.8,1.4-2.1,1.8-3.5,2c-1,0.1-2,0.1-2.9-0.5c-0.9-0.5-1.4-1.5-1.2-2.5c0.1-0.6,0.3-1.3,0.5-1.9c1-2.8,2.1-5.5,3.1-8.3
					c0.1-0.4,0.2-0.7,0.1-1.1c-0.4-1.4-0.8-2.8-1.1-4.2c-0.2-0.9-0.3-1.8-0.4-2.6c-0.1-0.5-0.1-1-0.1-1.5c0-0.5-0.3-0.9-0.7-1.2
					c0,0-0.1-0.1-0.1-0.1c-1.5-0.9-2.1-2.4-2.2-4.1c0-1.7,0.3-3.4,0.7-5c0.3-1.2,0.6-2.4,1-3.6c0-0.1,0.1-0.3,0.1-0.4
					c0.1-0.8,0.1-1-0.8-1.2c-1.3-0.4-2.1-1.3-2.4-2.6c-0.3-1.2-0.4-2.5-0.2-3.7c0.3-2.4,0.8-4.7,1.1-7.1c0.2-1.5,0.4-3,0.5-4.5
					c0.1-1.2,0-2.3-0.4-3.4c-0.1-0.3-0.3-0.7-0.5-1.1c-0.2,0.1-0.4,0.2-0.6,0.4c-0.3,0.2-0.6,0.5-1,0.7c-1.2,0.8-2.4,0.7-3.5-0.3
					c-0.5-0.5-0.9-1-1.3-1.6c-0.4-0.7-0.8-1.5-1.1-2.3c-0.1-0.3-0.3-0.5-0.4-0.9c-0.2,0.2-0.4,0.4-0.6,0.6c-1,1.1-2,1.2-3.3,0.4
					c-0.4-0.3-0.9-0.6-1.2-1c-0.9-1-1.9-2.1-2.8-3.2c-6-7.6-9.5-16.2-11.2-25.6c-0.7-4-1.1-8.1-1.2-12.2c0-3,0.2-6,0.4-8.9
					c0.5-5.1,1.5-10.1,2.3-15.2c0.5-3.2,1-6.5,0.9-9.7c0-0.8-0.1-1.6-0.3-2.4c-0.2-1-0.7-1.5-1.7-1.7c-1.1-0.2-2.3-0.1-3.4-0.1
					c-1.6,0.1-3.1,0.3-4.7,0.1c-0.6-0.1-1.3-0.3-1.9-0.5c-1.3-0.5-1.7-1.7-1.2-2.9c0.2-0.5,0.6-1,0.9-1.4c0.1-0.2,0.3-0.3,0.6-0.6
					c-0.3,0-0.5,0-0.6,0c-1.7,0.2-3.3-0.1-4.7-1.1c-1.8-1.3-2.2-3.2-1-5.1c0.5-0.8,1.1-1.4,1.8-1.9c0.8-0.5,1.7-1.1,2.5-1.5
					c2.4-1.3,4.5-3.1,6.5-5.1c0.7-0.7,1.4-1.4,2.1-2.2c-0.2,0-0.4-0.1-0.5-0.1c-0.7,0.1-1.4,0.1-2.1,0.2c-0.3,0-0.5,0-0.8,0
					c-1.1,0-1.6-0.8-1.1-1.8c0.3-0.7,0.8-1.4,1.4-1.9c0.2-0.2,0.4-0.3,0.6-0.5c-0.1-0.1-0.1-0.1-0.2-0.1c-1-0.5-1.3-1.3-0.7-2.3
					c0.3-0.5,0.7-0.9,1.1-1.2c1.2-0.9,2.5-1.5,3.9-1.7c0.7-0.1,1.4-0.2,2.2-0.1c0.8,0,1.6,0.2,2.4,0.3c0.1,0,0.2,0,0.3,0
					c0.2,0,0.4,0.1,0.6,0.1c-0.1-0.3-0.2-0.5-0.2-0.7c-0.2-0.6-0.5-1.3-0.7-1.9c-0.1-0.3-0.2-0.7-0.3-1c-0.1-0.5-0.1-0.9,0.4-1.2
					c0.4-0.3,0.9-0.2,1.2,0.2c0.9,0.9,1.8,1.7,2.6,2.6c0.6,0.7,1.1,1.5,1.7,2.3c0.1,0.2,0.2,0.3,0.5,0.4c0-0.3,0-0.7-0.1-1
					c-0.1-1.4-0.2-2.9-0.2-4.3c0-0.6,0.1-1.2,0.2-1.7c0.1-0.4,0.4-0.9,0.6-1.2c0.5-0.6,1.2-0.9,2-0.6c0.6,0.2,1.1,0.6,1.5,0.9
					c1,0.8,1.8,1.9,2.4,3c1,1.8,1.8,3.7,2.5,5.6c0.3,0.9,0.6,1.7,0.9,2.6c0.3,1.1,1,2,1.9,2.6c0.5,0.4,1,0.7,1.4,1
					c1.2,0.9,2.4,1.8,3.5,2.8c0.7,0.6,1.3,1.3,1.9,2c0.2,0.2,0.4,0.4,0.5,0.6c0.4,0.5,0.7,1,0.9,1.6c0.4,1.1,0.5,2.1,0.1,3.2
					c-0.1,0.2-0.1,0.4-0.2,0.7c-0.2,0.5-0.1,1,0.1,1.4c0.7,1.4,1.5,2.8,2.2,4.2c1.1,2,2,4,2.5,6.2c0.1,0.5,0.2,1,0.2,1.5
					c0,0.8-0.4,1.5-1.1,1.9c0,0-0.1,0-0.1,0.1c-1,0.6-1.2,0.9-0.8,2.1c0.2,0.7,0.5,1.3,0.8,2c0.8,1.7,1.5,3.4,2.3,5.1
					c0.6,1.3,1.1,2.6,1.1,4.1c0,0.6,0,1.1-0.2,1.7c-0.3,1-0.7,1.2-1.7,1.1c-0.1,0-0.1,0-0.3,0c0,0.2,0,0.4,0.1,0.5
					c0.5,1.5,0.9,3,1.4,4.4c0.8,2.3,2.1,4.4,3.6,6.2c1,1.2,2.2,2.1,3.5,2.8c0.6,0.3,1.1,0.6,1.7,0.8c2.2,0.9,4.5,1.4,6.8,1.7
					c4.1,0.5,8.2,0.5,12.4,0.1c2.9-0.2,5.8-0.9,8.6-1.6c5.9-1.5,11.6-3.5,17.3-5.7c0.7-0.3,1.3-0.5,2-0.8c3.5-1.4,7-2.7,10.6-3.5
					c2.1-0.5,4.2-0.9,6.3-0.6c0.7,0.1,1.3,0.3,2,0.5c1.1,0.4,1.6,1.3,1.7,2.5c0,0.3,0,0.7,0,1c0,0.8,0.1,0.9,0.9,1
					c1.2,0.1,2.3,0.2,3.5,0.3c0.7,0.1,1.5,0.1,2.2,0.3c1.3,0.3,1.7,1.2,1.2,2.4c-0.2,0.5-0.5,1-0.9,1.7c0.3,0,0.6,0,0.8,0.1
					c2.2,0.2,4.3,0.3,6.5,0.5c2.2,0.2,4.1,1.1,5.9,2.2c1,0.7,1.9,1.5,2.9,2.3c0.5,0.4,0.9,1,1.1,1.7c0.4,1,0.1,1.7-0.8,2.1
					c-0.2,0.1-0.4,0.2-0.6,0.3c-0.1,0-0.1,0.1-0.2,0.2c0.1,0.3,0.2,0.5,0.4,0.8c0.5,0.8,1,1.6,1.6,2.3c1.6,2.3,2.7,4.9,3.2,7.8
					C378.3,245,378.1,248.7,377.1,252.3z"/>
				<g>
					<path class="st2" d="M223.8,179.2c-0.2,0-0.4-0.1-0.5-0.3c-0.1-0.2-0.2-0.4-0.2-0.6c0-0.4,0.4-0.9,0.8-1c0.4-0.1,0.7,0,1,0.4
						c0.2,0.3,0.2,0.7-0.1,1C224.5,179,224.2,179.1,223.8,179.2z"/>
					<g>
						<path class="st2" d="M240.1,170.6c0-0.4-0.6-0.5-0.6-0.1c-0.1,0.6-0.4,1.2-0.9,1.6c-0.1-0.1-0.1-0.3-0.2-0.4
							c0.4-0.4,0.6-0.8,0.8-1.3c0-0.2,0-0.3-0.2-0.4c-0.1-0.1-0.4,0-0.4,0.2c-0.1,0.4-0.3,0.7-0.5,1c-0.1-0.1-0.2-0.2-0.3-0.3
							c0.3-0.4,0.6-0.8,0.6-1.3c0.1-0.4-0.6-0.5-0.6-0.1c-0.1,0.4-0.3,0.7-0.6,1c-0.3-0.1-0.7-0.2-1.1-0.1c-1.3,0.2-2.1,1.7-1.8,3.3
							c0.3,1.6,1.5,2.7,2.8,2.5c1.3-0.2,2.1-1.7,1.8-3.3c0-0.1,0-0.1,0-0.1C239.6,172.3,240,171.5,240.1,170.6z"/>
						<g>
							<path class="st21" d="M236.6,173.9c-0.3,0-0.6,0.4-0.6,0.9c0,0.5,0.3,0.9,0.6,0.9c0.3,0,0.6-0.4,0.6-0.9
								C237.2,174.3,236.9,173.9,236.6,173.9z"/>
							<path class="st21" d="M236.9,173.4c0.3,0,0.6-0.3,0.6-0.6c0-0.3-0.3-0.6-0.6-0.6c-0.3,0-0.6,0.3-0.6,0.6
								C236.3,173.1,236.5,173.4,236.9,173.4z"/>
						</g>
					</g>
				</g>
			</g>
			<g>
				<g>
					<path class="st23" d="M333.2,265.3c-0.5-0.2-0.8-0.6-1-1.1c-0.2-0.8-0.4-1.5-0.6-2.3c0-0.1-0.1-0.3-0.1-0.3
						c-0.9,0.4-1.9,0.8-2.9,1.3c0,0.4,0.1,0.9,0.1,1.4c0,0.5,0.1,1.1,0.1,1.6c0,0.8-0.4,1.3-1.1,1.4c-0.6,0.1-1.2-0.2-1.5-0.9
						c-0.3-0.7-0.4-1.4-0.7-2.2c-0.1-0.2-0.1-0.5-0.2-0.7c-1.5,0.2-2.9,0.4-4.4,0.7c0,0.6-0.1,1.3-0.1,1.9c0,0.4,0,0.9,0,1.3
						c-0.1,1-0.7,1.6-1.6,1.7c-0.8,0-1.6-0.6-1.7-1.5c-0.1-0.3-0.1-0.7-0.1-1c-0.1-0.6-0.2-1.3-0.3-2c-2.1,0.1-4.1,0.2-6.2,0.3
						c-0.1,0.7-0.2,1.4-0.3,2c-0.1,0.5-0.2,0.9-0.3,1.4c-0.1,0.2-0.1,0.5-0.3,0.6c-0.6,1-2,0.9-2.5-0.1c-0.2-0.4-0.3-0.8-0.3-1.3
						c-0.1-0.9-0.2-1.7-0.3-2.6c-2.2-0.1-4.4-0.3-6.7-0.4c-0.1,0.5-0.1,1-0.2,1.5c-0.1,0.4-0.1,0.9-0.3,1.3
						c-0.2,0.7-0.9,1.2-1.6,1.2c-0.7,0-1.4-0.5-1.5-1.3c-0.2-0.8-0.2-1.6-0.3-2.4c0-0.2,0-0.5,0-0.7c-2.2-0.5-4.4-0.9-6.7-1.4
						c-0.1,0.8-0.3,1.6-0.5,2.4c0,0.2-0.1,0.3-0.1,0.5c-0.3,0.8-0.9,1.3-1.7,1.2c-0.8-0.1-1.3-0.7-1.3-1.6c0-1,0-1.9,0-2.9v-0.7
						c-1.5-0.7-3-1.4-4.5-2.1c-0.1,0.6-0.1,1.1-0.2,1.7c-0.1,0.6-0.2,1.2-0.3,1.7c-0.1,0.3-0.2,0.5-0.4,0.7
						c-0.4,0.5-0.9,0.7-1.5,0.5c-0.6-0.1-1-0.5-1.1-1.1c-0.1-0.3-0.1-0.6-0.1-0.9c0-0.4-0.1-0.9,0-1.3c0.2-1.9,0.1-3.7,0-5.6
						c-0.2-3.3-0.1-6.6,0.1-9.9c0.2-2.5,0.3-5,0.5-7.5c0.3-4.1,0.7-8.2,1.3-12.2c0.2-1.4,0.5-2.9,0.7-4.3c0.6,0.3,1.1,0.6,1.7,0.8
						c2.2,0.9,4.5,1.4,6.8,1.7c4.1,0.5,8.2,0.5,12.4,0.1c2.9-0.2,5.8-0.9,8.6-1.6c5.9-1.5,11.6-3.5,17.3-5.7c0,0,0,0.1,0,0.1
						c1.4,6.4,2.9,12.8,4.2,19.3c0.9,4.6,1.7,9.2,2.4,13.9c0.3,1.9,0.5,3.9,0.4,5.9c0,1,0.3,2.1,0.4,3.1c0.2,1.7,0.3,3.3,0.4,5
						C335.3,265,334.2,265.7,333.2,265.3z"/>
					<g>
						<g>
							<path class="st20" d="M309.6,251.3c0.1-0.1,0.1-0.2,0.2-0.3c0.3-0.6,0.7-1.2,1-1.8c0.6-1,1-2.1,1.2-3.3
								c0.3-1.4,0.6-2.9,0.8-4.3c0.2-1,0.2-2,0.3-3c0-0.4,0-0.8,0-1.3c-0.1-0.6-0.3-1.2-0.7-1.8c-0.1-0.1-0.1-0.2-0.2-0.2
								c0,0,0,0,0,0c0.1,0,0.2,0.1,0.3,0.1c0.6,0.3,1.1,0.7,1.6,1.1c1,0.8,1.9,1.7,2.9,2.6c0.6,0.5,1.1,1.2,1.4,1.9
								c0.4,1,0.5,2,0.5,3.1c-0.1,1.6-0.7,3-1.8,4.3c-0.8,0.9-1.6,1.7-2.6,2.4c-1.1,0.7-2.3,1.1-3.5,1
								C310.6,251.6,310.1,251.4,309.6,251.3z"/>
							<path class="st20" d="M303.8,252.1c-0.8,0.1-1.5,0-2.2-0.1c-1.8-0.3-3.3-1.1-4.7-2.2c-0.2-0.1-0.3-0.3-0.5-0.5
								c-1.3-1.4-2.2-3.1-2.3-5c0-0.4,0-0.8,0.1-1.3c0.4-2,1.1-3.8,2-5.6c0.2-0.3,0.3-0.6,0.5-0.8c0.1-0.1,0.2-0.3,0.4-0.4
								c0,0.1,0.1,0.2,0.1,0.2c0.2,0.9,0.3,1.9,0.3,2.8c0,1.6,0.2,3.2,0.6,4.7c0.2,0.8,0.4,1.6,0.6,2.4c0.3,0.9,0.6,1.7,1.1,2.5
								c0.9,1.4,2.1,2.4,3.7,3.1C303.6,252,303.6,252,303.8,252.1C303.8,252,303.8,252.1,303.8,252.1z"/>
							<path class="st20" d="M296.3,235.4c0-0.1,0-0.2,0.1-0.2c0.4-1.1,1-2.1,1.5-3.2c0.4-0.8,1-1.5,1.8-2c0.6-0.4,1.2-0.6,1.9-0.5
								c0.8,0,1.7,0.1,2.5,0.1c0.6,0,1.2-0.1,1.8-0.2c0.7-0.2,1.5-0.3,2.3-0.3c1.3,0.1,2.4,0.5,3.1,1.6c0.3,0.5,0.6,1,0.9,1.5
								c0.3,0.6,0.5,1.1,0.8,1.7c-0.1,0-0.2,0-0.2,0c-1.8-0.6-3.6-1-5.4-1.2c-0.9-0.1-1.9-0.2-2.8-0.3c-1-0.1-2-0.1-2.9,0.1
								c-1.2,0.2-2.3,0.7-3.3,1.4c-0.6,0.4-1.2,1-1.8,1.5C296.5,235.3,296.4,235.4,296.3,235.4C296.3,235.4,296.3,235.4,296.3,235.4
								z"/>
							<path class="st20" d="M306.2,251.6c-0.5-0.7-0.5-1.4-0.4-2.1c0.1-0.9,0.4-1.7,0.8-2.5c0.4-0.8,0.8-1.6,1.2-2.4
								c0.3-0.6,0.6-1.2,0.9-1.8c0.3-0.7,0.6-1.5,0.6-2.3c0.1-1-0.2-1.8-0.8-2.5c-0.2-0.2-0.5-0.4-0.8-0.6c0.1,0,0.2,0,0.3,0.1
								c0.5,0.2,1.1,0.3,1.6,0.5c0.7,0.3,1.4,0.7,2,1.3c0.1,0.1,0.2,0.3,0.2,0.4c-0.1,0.9-0.1,1.9-0.3,2.8c-0.4,2.8-1.4,5.4-2.7,8
								c-0.2,0.4-0.4,0.6-0.9,0.6c-0.4,0-0.8,0.3-1.3,0.4C306.4,251.6,306.3,251.6,306.2,251.6z"/>
							<path class="st20" d="M306.9,238.2c0.4,0.2,0.7,0.3,0.9,0.6c0.3,0.4,0.5,0.9,0.5,1.4c0,0.8-0.2,1.5-0.5,2.2
								c-0.3,0.6-0.6,1.3-1,1.9c-0.6,1.2-1.2,2.3-1.6,3.6c-0.1,0.5-0.2,0.9-0.3,1.4c-0.1,0.6-0.1,1.2,0.1,1.8c0,0.1,0,0.1,0,0.2
								c0,0,0,0,0,0.1c0,0-0.1,0-0.1,0c-0.6-0.2-1.2-0.4-1.8-0.8c-0.5-0.4-0.9-0.7-1.4-1.1c-0.6-0.5-1-1.1-1.3-1.8
								c-0.4-1-0.7-2-0.9-3c0-0.1,0-0.1,0-0.2c0,0,0,0,0-0.1c0.1,0,0.2,0.1,0.3,0.1c1.5,0.5,2.9,0.4,4.3-0.4
								c1.2-0.7,2.2-1.6,2.8-2.9c0.3-0.7,0.5-1.4,0.3-2.2C307.1,238.8,307,238.5,306.9,238.2z"/>
							<path class="st20" d="M305.2,236c-0.1,0-0.2,0-0.3,0c-0.6,0-1.1,0.2-1.6,0.4c-0.5,0.3-0.9,0.7-1.2,1.2
								c-0.1,0.1-0.1,0.2-0.2,0.3c-0.5,0.7-0.8,1.5-1,2.3c-0.1,0.5,0,0.9,0.2,1.3c0.3,0.4,0.6,0.7,1.2,0.6c0.1,0,0.3,0,0.4-0.1
								c1-0.3,1.9-0.8,2.6-1.6c0.4-0.4,0.5-0.9,0.6-1.4c0-0.1,0-0.2,0.1-0.3c0.2,0.2,0.2,0.4,0.2,0.6c0.1,0.5,0,0.9-0.2,1.3
								c-0.8,1.6-2.1,2.7-3.9,3.1c-0.7,0.1-1.3,0-2-0.2c0,0-0.1,0-0.1-0.1c-0.5-0.5-0.9-1-0.8-1.8c0.1-0.7,0.2-1.4,0.5-2.1
								c0.6-1.6,1.4-3.1,2.2-4.7c0.1-0.3,0.3-0.5,0.5-0.7c0.1-0.1,0.2-0.1,0.3-0.1c0.1,0,0.2,0.1,0.2,0.1c0.7,0.5,1.4,1,2.1,1.6
								C305.1,235.9,305.1,235.9,305.2,236z"/>
							<path class="st20" d="M311.3,237.5c-0.1,0-0.2,0-0.3-0.1c-0.5-0.2-1.1-0.3-1.6-0.5c-0.7-0.3-1.4-0.5-2.2-0.5
								c-0.2,0-0.4-0.1-0.5-0.3c-0.6-0.7-1.3-1.2-2-1.7c-0.4-0.3-0.8-0.6-1.3-0.9c0.1,0,0.2,0,0.2,0c1.5,0,3,0.2,4.4,0.8
								c0.8,0.3,1.6,0.9,2.3,1.5c0.5,0.5,0.8,1.1,1,1.7C311.4,237.4,311.3,237.4,311.3,237.5z"/>
							<path class="st20" d="M301.8,240.5c0-0.1,0-0.2,0-0.3c0.2-0.9,0.6-1.7,1.2-2.3c0.1-0.1,0.2-0.2,0.3-0.3c0.3-0.2,0.7-0.3,1,0
								c0,0,0.1,0,0.1,0c0.5,0.3,0.6,0.4,0.5,1c-0.1,0.7-0.5,1.2-1,1.7c-0.4,0.3-0.9,0.6-1.5,0.7c-0.5,0.1-0.6,0-0.7-0.5
								C301.8,240.6,301.8,240.6,301.8,240.5z"/>
							<path class="st20" d="M298.8,238.9C298.7,238.9,298.7,238.9,298.8,238.9c-0.3-1.2-0.4-2.3-0.3-3.4c0,0,0-0.1,0-0.1
								c0-0.3,0.2-0.5,0.5-0.7c0.5-0.3,1.1-0.6,1.7-0.8c0.1,0,0.2-0.1,0.3-0.1C300.2,235.6,299.5,237.2,298.8,238.9z"/>
						</g>
						<g>
							<path class="st24" d="M314.1,233.9c-0.2-0.9-0.3-1.8,0-2.7c0.6-1.8,1.4-3.4,2.8-4.7c1-1,2.1-2.1,3.3-2.8
								c1-0.6,2.1-1.2,3.2-1.7c0.3-0.1,0.7-0.3,1-0.4c0.5-0.1,0.8,0.1,1,0.5c0.3,0.5,0.4,1,0.4,1.6c0.2,2.1,0,4.1-0.9,6
								c-0.9,2.2-2.5,3.9-4.6,4.9c-0.8,0.4-1.6,0.6-2.5,0.7c-0.7,0.1-1.4,0.1-2.1,0c-0.3,0-0.7-0.1-1-0.3c-0.2-0.1-0.4-0.3-0.5-0.6
								c0.2-0.1,0.4-0.2,0.6-0.3c0.2-0.1,0.4-0.3,0.6-0.4c1.3-1,2.8-1.6,4.3-2.1c0.5-0.2,1.1-0.3,1.6-0.4c0.1,0,0.2-0.1,0.3-0.1
								c0.1,0,0.2-0.1,0.1-0.2c0-0.1-0.1-0.2-0.2-0.2c-0.1,0-0.3,0-0.4,0c-1.1,0.3-2.3,0.6-3.3,1.1c-0.1,0-0.2,0.1-0.3,0.1
								c0.1-0.1,0.1-0.1,0.2-0.2c0.7-0.6,1.4-1.2,2.1-1.8c0.8-0.7,1.8-1.1,2.7-1.5c0.3-0.1,0.6-0.3,1-0.4c0.1,0,0.2-0.1,0.3-0.2
								c0.1-0.1,0.2-0.2,0.1-0.3c-0.1-0.2-0.2-0.2-0.3-0.2c-0.1,0-0.2,0-0.3,0.1c-0.4,0.1-0.7,0.3-1.1,0.4c-0.8,0.4-1.6,0.8-2.3,1.4
								c-0.1,0-0.1,0.1-0.2,0.1c0.1-0.1,0.1-0.2,0.2-0.3c0.9-1.3,1.8-2.6,2.8-3.8c0,0,0.1-0.1,0.1-0.1c0-0.1,0-0.2-0.1-0.3
								c-0.1-0.1-0.2-0.1-0.3,0c-0.1,0.1-0.1,0.2-0.2,0.2c-0.5,0.8-1.1,1.5-1.6,2.3c-0.1,0.1-0.1,0.2-0.3,0.2c0-0.2,0.1-0.4,0.1-0.5
								c0.1-0.5,0.1-1,0.1-1.5c0-0.3-0.1-0.4-0.3-0.4c-0.2,0-0.3,0.1-0.3,0.4c-0.1,1-0.3,2-0.7,3c-0.2,0.7-0.6,1.3-1.1,1.8
								c-0.3,0.3-0.6,0.7-0.9,1c0-0.1,0.1-0.2,0.1-0.2c0.3-0.7,0.6-1.4,0.7-2.2c0-0.1,0-0.2,0-0.4c0-0.1-0.1-0.2-0.2-0.2
								c-0.1,0-0.2,0-0.3,0.2c0,0.1,0,0.1-0.1,0.2c0,0.1-0.1,0.2-0.1,0.3c-0.4,2-1.5,3.5-3,4.7c-0.1,0.1-0.1,0.1-0.2,0.1
								C314.2,233.9,314.2,233.9,314.1,233.9z"/>
							<path class="st24" d="M292.9,238.6c-1.2,0.4-2.3,0.5-3.5,0.2c-0.3-0.1-0.7-0.2-1-0.3c-0.1,0-0.2-0.1-0.3-0.1
								c-0.1,0-0.2,0.1-0.3,0.2c0,0.1,0,0.2,0.1,0.3c0.1,0.1,0.2,0.1,0.3,0.1c0.5,0.1,0.9,0.2,1.4,0.3c0.1,0,0.1,0,0.2,0.1
								c-0.1,0-0.2,0.1-0.3,0.1c-1,0.4-2,0.7-3,1.1c-0.2,0.1-0.4,0.2-0.6,0.3c-0.1,0-0.1,0.1-0.2,0.1c-0.1,0.1-0.1,0.2-0.1,0.3
								c0.1,0.1,0.2,0.2,0.3,0.1c0.1,0,0.2-0.1,0.3-0.1c1.7-0.7,3.4-1.3,5.2-1.8c0.1,0,0.2-0.1,0.3,0c-0.1,0-0.1,0.1-0.2,0.1
								c-1.2,0.8-2.3,1.7-3.3,2.7c-0.1,0.1-0.1,0.1-0.2,0.2c-0.1,0.2-0.1,0.3,0,0.5c0.1,0.2,0.3,0.2,0.4,0.1
								c0.2-0.2,0.4-0.4,0.6-0.6c0.8-0.9,1.8-1.6,2.8-2.2c0.4-0.2,0.9-0.5,1.3-0.7c0.1-0.1,0.3-0.1,0.4-0.2c0.1,0,0.2-0.1,0.3-0.1
								c0,0.1,0,0.1,0,0.2c-0.4,1.1-0.6,2.2-0.8,3.3c-0.1,0.5-0.4,0.9-0.8,1.2c-0.5,0.3-0.9,0.6-1.4,0.8c-0.7,0.3-1.4,0.3-2.1,0.3
								c-1.4,0-2.7-0.5-3.9-1.1c-0.3-0.1-0.6-0.3-0.9-0.5c-0.6-0.3-1-0.8-1.4-1.3c-0.3-0.4-0.2-0.8,0.1-1.1c1.3-1.1,2.6-2.2,4.1-3.1
								c1.5-0.9,3.1-1.6,4.8-1.9c0.7-0.1,1.3-0.2,2-0.1c0.2,0,0.5,0,0.7,0c0.1,0,0.3,0.1,0.4,0.1c0.2,0.1,0.3,0.4,0.2,0.6
								c-0.2,0.5-0.4,0.9-0.6,1.4c0,0,0,0.1-0.1,0.1c-0.2,0.1-0.5,0.2-0.7,0.1c-0.4-0.2-0.9-0.4-1.3-0.7c-0.1-0.1-0.2-0.2-0.3-0.2
								c-0.1-0.1-0.2-0.1-0.3,0.1c-0.1,0.1-0.1,0.2,0,0.3c0.1,0.1,0.2,0.2,0.3,0.3C292.4,238.2,292.6,238.4,292.9,238.6z"/>
						</g>
					</g>
				</g>
				<g>
					<path class="st22" d="M266,170.4c-0.2,0.1-0.4,0.2-0.6,0.2c-1.6,0.4-3.2,0.8-4.8,1.2c-0.7,0.1-1.4,0.1-2.1,0.2
						c-5.8,0-10.8-2.2-15-6.1c-1.6-1.5-3-3.1-4.3-4.8c-1-1.3-1.9-2.7-3-4c0.7-0.1,1.4-0.2,2.2-0.1c0.8,0,1.6,0.2,2.4,0.3
						c0,0.1,0.1,0.1,0.1,0.2c1.2,1.6,2.4,3.1,3.8,4.5c2.2,2.2,4.6,4.1,7.4,5.2c3.6,1.4,7.2,1.8,11,0.8c0.2,0,0.3-0.1,0.5-0.1
						c0.7,0.6,1.3,1.3,1.9,2C265.7,169.9,265.8,170.2,266,170.4z"/>
					<g>
						<path class="st20" d="M255.5,166.4c-0.7-1.2-3.6-0.8-4.6,0c0.1-1.3-0.9-4-2.3-4c-1.6,0-1.9,2-1.9,3.3
							c-0.1,1.5,0.1,3.1,0.6,4.5c0.2,0.5,0.4,1,0.6,1.4c0.5,0,1-0.1,1.5-0.2c1.5-0.3,3-0.9,4.2-1.7
							C254.7,169,256.3,167.8,255.5,166.4z"/>
					</g>
				</g>
			</g>
		</g>
	</g>
</g>
</svg>
