<?xml version="1.0" encoding="utf-8"?>
<!-- Generator: Adobe Illustrator 16.0.0, SVG Export Plug-In . SVG Version: 6.00 Build 0)  -->
<!DOCTYPE svg PUBLIC "-//W3C//DTD SVG 1.1//EN" "http://www.w3.org/Graphics/SVG/1.1/DTD/svg11.dtd">
<svg version="1.1" id="Calque_1" xmlns="http://www.w3.org/2000/svg" xmlns:xlink="http://www.w3.org/1999/xlink" x="0px" y="0px"
	 width="432px" height="432px" viewBox="0 0 432 432" enable-background="new 0 0 432 432" xml:space="preserve">
<g>
	<path fill="#432918" d="M249.885,144.345h-31.21h-31.312c1.795,141.302,3.479,196.342-9.289,209.54
		c-2.127,2.199-4.521,4.133-7.068,5.823c-2.419,1.605-6.396,3.551-2.082,6.351c1.459,0.947,3.281,1.106,5.02,1.135
		c4.336,0.072,8.682-0.506,12.849-1.708c3.195-0.922,6.45-2.227,9.737-1.721c1.574,0.242,3.052,0.89,4.57,1.37
		c9.512,3.009,19.662-0.66,29.311-3.204c1.579-0.417,3.197-0.806,4.828-0.701c1.844,0.12,3.58,0.862,5.311,1.508
		c5.795,2.165,11.957,3.342,18.142,3.467c2.497,0.05,5.636-0.553,6.237-2.977c0.754-3.043-5.212-8.217-6.864-10.672
		C246.656,335.617,245.699,309.878,249.885,144.345z"/>
	<path fill="#54AF32" d="M322.39,162.308c-1.822-12.413-8.759-22.808-18.355-29.376c2.317-5.015,3.26-10.735,2.397-16.609
		c-2.362-16.097-17.327-27.231-33.424-24.869c-0.834,0.123-1.65,0.287-2.456,0.475C258.969,74.724,247.216,64.8,216.299,64.8
		c-23.38,0-39.118,15.66-47.421,29.354c-4.079-1.291-8.505-1.704-13.022-1.041c-15.939,2.339-26.965,17.157-24.625,33.097
		c0.019,0.124,0.044,0.244,0.063,0.366c-14.794,4.669-24.304,20.909-21.726,38.476c2.695,18.369,17.635,31.544,34,30.555
		c-4.577,7.356-6.681,16.305-5.324,25.549c3.045,20.745,22.33,35.093,43.074,32.049c10.553-1.549,27.358-7.306,33.153-15.314
		c8.866,9.393,22.014,14.462,35.763,12.444c19.84-2.912,34.247-19.588,34.987-38.927c0.233-0.03,0.466-0.05,0.699-0.084
		C309.526,207.858,325.854,185.914,322.39,162.308z"/>
	<ellipse fill="#7D4E24" cx="219.521" cy="285.997" rx="15.614" ry="23.444"/>
	<g>
		<path fill="#E6332A" d="M280.062,337.201c-12.506-7.363-21.249,6.748-14.678,17.489c3.377,5.519,11.033,12.965,19.691,7.047
			c0.731-0.5,1.614-0.709,2.492-0.595c10.216,1.322,13.538-9.309,13.813-15.769C301.915,332.792,287.557,324.471,280.062,337.201z"
			/>
		<path fill="#432918" d="M280.511,339.989l0.317-0.171c0,0-1.309-8.701,1.666-12.319l-4.746-0.341
			C277.748,327.158,276.385,332.685,280.511,339.989z"/>
		<path fill="#95C11F" d="M280.291,338.071c0,0-5.325-13.23-17.265-9.211C259.598,338.783,275.564,342.368,280.291,338.071z"/>
		<path fill="#ACCA30" d="M280.167,337.787c-6.282-0.366-15.616-8.01-16.829-9.025c-0.104,0.032-0.207,0.063-0.312,0.098v0
			c-0.033,0.096-0.062,0.19-0.091,0.285c0.484,0.408,2.914,2.423,5.996,4.444c4.477,2.935,8.19,4.524,11.051,4.737
			c0.107-0.082,0.211-0.166,0.309-0.254C280.291,338.071,280.249,337.968,280.167,337.787z"/>
	</g>
	<g>
		<path fill="#95C11F" d="M272.778,137.411c16.821,1.034,18.387-11.205,18.387-11.205
			C276.69,125.424,272.778,137.411,272.778,137.411z"/>
		<path fill="#95C11F" d="M175.646,145.609c-2.77-1.471-5.393-2.114-7.715-2.299c-2.318-0.185-4.32,0.092-5.743,0.435
			c-1.425,0.341-2.268,0.75-2.268,0.75c2.409,4.005,5.358,6.604,8.242,8.161c2.895,1.562,5.73,2.102,8.166,2.129
			c2.44,0.026,4.488-0.449,5.925-0.92c1.437-0.474,2.263-0.932,2.263-0.932C181.331,149.378,178.423,147.086,175.646,145.609z"/>
		<path fill="#95C11F" d="M219.148,115.131c0.316-11.834-8.313-12.635-8.313-12.635
			C210.638,112.676,219.148,115.131,219.148,115.131z"/>
		<path fill="#95C11F" d="M278.858,192.395c-2.206-5.072-4.958-8.746-7.925-11.47c-2.963-2.72-6.139-4.481-9.082-5.63
			c-2.939-1.148-5.647-1.679-7.62-1.916c-1.974-0.238-3.216-0.178-3.216-0.178c2.111,6.477,5.049,10.967,8.142,13.99
			c3.097,3.029,6.354,4.605,9.281,5.365c2.929,0.761,5.536,0.709,7.408,0.479C277.719,192.804,278.858,192.395,278.858,192.395z"/>
		<path fill="#95C11F" d="M204.077,192.427c-0.659-1.244-1.206-1.933-1.206-1.933c-2.793,3.549-4.406,6.67-5.252,9.5
			c-0.843,2.825-0.913,5.346-0.61,7.487c0.302,2.14,0.978,3.888,1.589,5.099c0.611,1.212,1.161,1.885,1.161,1.885
			c3.062-2.968,4.805-6.092,5.665-8.979c0.861-2.894,0.851-5.557,0.462-7.785C205.496,195.472,204.734,193.671,204.077,192.427z"/>
		<path fill="#95C11F" d="M167.207,212.578c2.406-0.378,4.342-1.186,5.677-1.888c1.335-0.705,2.072-1.293,2.072-1.293
			c-3.722-2.968-6.962-4.742-9.938-5.735c-2.968-0.989-5.655-1.189-7.971-0.988c-2.313,0.2-4.237,0.803-5.582,1.375
			c-1.346,0.57-2.107,1.111-2.107,1.111c3.032,3.546,6.365,5.618,9.461,6.673C161.926,212.893,164.806,212.954,167.207,212.578z"/>
		<path fill="#95C11F" d="M127.001,147.617c-2.01-1.191-3.932-1.862-5.364-2.211c-1.435-0.352-2.376-0.376-2.376-0.376
			c0.347,4.823,1.952,8.577,3.965,11.255c2.024,2.692,4.45,4.34,6.699,5.308c2.257,0.971,4.34,1.281,5.851,1.362
			c1.513,0.079,2.449-0.056,2.449-0.056c-1.602-4.356-3.313-7.513-5.222-9.956C131.1,150.509,129.016,148.81,127.001,147.617z"/>
		<path fill="#95C11F" d="M160.09,117.526c0.73,0.809,1.51,1.327,2.102,1.646c0.594,0.318,0.995,0.443,0.995,0.443
			c0.178-2.082,0.063-3.695-0.27-5.042c-0.333-1.342-0.882-2.407-1.494-3.246c-0.611-0.838-1.281-1.443-1.808-1.831
			c-0.525-0.39-0.906-0.562-0.906-0.562c-0.684,2.008-0.695,3.795-0.359,5.234C158.686,115.613,159.362,116.719,160.09,117.526z"/>
		<path fill="#95C11F" d="M214.829,96.761c0.438,1.005,0.809,1.583,0.809,1.583c2.538-2.904,3.79-5.691,4.252-8.066
			c0.465-2.383,0.151-4.369-0.439-5.921c-0.593-1.555-1.466-2.688-2.178-3.437c-0.714-0.748-1.268-1.115-1.268-1.115
			c-1.482,2.54-2.246,4.849-2.566,6.997c-0.319,2.141-0.192,4.113,0.125,5.818C213.879,94.323,214.391,95.756,214.829,96.761z"/>
		<path fill="#95C11F" d="M254.551,118.434c7.053,2.934,13.198,2.976,17.68,1.793c4.525-1.186,7.492-3.554,9.348-5.949
			c1.863-2.409,2.666-4.884,3.047-6.72c0.376-1.835,0.345-3.044,0.345-3.044c-4.855,0.279-8.778,1.101-12.324,2.343
			c-3.523,1.23-6.638,2.868-9.318,4.548c-2.671,1.673-4.886,3.407-6.414,4.739C255.383,117.473,254.551,118.434,254.551,118.434z"/>
		<path fill="#95C11F" d="M196.231,101.694c-4.832-9.966-12.345-6.916-12.345-6.916
			C188.106,103.319,196.231,101.694,196.231,101.694z"/>
		<path fill="#95C11F" d="M215.635,153.236c0.944,2.563,2.005,4.398,3.168,5.774c1.161,1.371,2.42,2.273,3.615,2.868
			c1.194,0.594,2.318,0.876,3.149,1c0.831,0.124,1.366,0.088,1.366,0.088c-0.423-2.652-1.439-4.669-2.645-6.114
			c-1.209-1.45-2.606-2.341-3.898-2.872c-1.295-0.531-2.486-0.711-3.353-0.763C216.173,153.166,215.635,153.236,215.635,153.236z"/>
		<path fill="#95C11F" d="M223.901,197.067c-1.022-1.048-1.989-1.967-2.706-2.606c-0.714-0.642-1.209-0.99-1.209-0.99
			c-0.958,3.809-0.135,6.905,1.077,8.831c1.228,1.965,2.838,2.876,4.206,3.212c1.385,0.339,2.577,0.133,3.408-0.112
			c0.83-0.249,1.315-0.53,1.315-0.53c-0.976-1.704-1.912-3.058-2.946-4.328C226.024,199.286,224.93,198.12,223.901,197.067z"/>
		<path fill="#95C11F" d="M247.585,220.225c-1.749-0.151-3.293-0.056-4.399,0.085c-1.105,0.14-1.776,0.335-1.776,0.335
			c2.155,3.347,4.608,5.345,6.847,6.415c2.247,1.077,4.293,1.247,5.963,1.027c1.674-0.221,2.988-0.832,3.886-1.371
			c0.897-0.54,1.382-1.006,1.382-1.006c-2.132-1.999-4.182-3.275-6.191-4.112C251.292,220.764,249.338,220.376,247.585,220.225z"/>
		<path fill="#95C11F" d="M163.671,241.015c-1.462,3.087-1.165,5.808-1.165,5.808c6.529-1.314,9.808-5.042,11.314-8.259
			c1.521-3.238,1.387-6.032,1.387-6.032C168.253,234.524,165.143,237.899,163.671,241.015z"/>
		<path fill="#95C11F" d="M194.269,239.991c10.252-5.343,6.842-13.09,6.842-13.09C192.327,231.562,194.269,239.991,194.269,239.991z
			"/>
		<path fill="#95C11F" d="M302.893,186.719c0.312-11.834-8.318-12.632-8.318-12.632
			C294.381,184.267,302.893,186.719,302.893,186.719z"/>
		<path fill="#95C11F" d="M302.062,158.762c1.246,1.059,2.47,1.821,3.386,2.312c0.915,0.492,1.529,0.707,1.529,0.707
			c0.173-3.708-0.613-6.553-1.736-8.573c-1.127-2.031-2.591-3.264-3.979-3.996c-1.392-0.733-2.72-0.977-3.692-1.05
			c-0.973-0.072-1.593,0.022-1.593,0.022c0.545,2.666,1.414,4.737,2.49,6.456C299.537,156.352,300.813,157.701,302.062,158.762z"/>
		<path fill="#95C11F" d="M261.256,153.66c3.092,1.521,6.043,1.767,8.438,1.447c2.411-0.324,4.288-1.188,5.562-1.944
			c1.274-0.761,1.953-1.391,1.953-1.391c-3.41-2.568-6.212-4.306-8.906-5.488c-2.679-1.173-5.213-1.79-7.507-2.053
			c-2.288-0.265-4.306-0.169-5.754,0.036c-1.452,0.202-2.328,0.521-2.328,0.521C254.967,149.308,258.189,152.152,261.256,153.66z"/>
		<path fill="#95C11F" d="M256.887,96.879c0.967-15.749-10.49-17.213-10.49-17.213C245.664,93.216,256.887,96.879,256.887,96.879z"
			/>
		<path fill="#95C11F" d="M200.386,136.843c1.295,0.257,2.399,0.107,3.171-0.09c0.773-0.2,1.216-0.427,1.216-0.427
			c-1.264-1.757-2.309-3.074-3.403-4.156c-1.089-1.074-2.202-1.911-3.271-2.557c-1.066-0.645-2.072-1.085-2.827-1.337
			c-0.756-0.255-1.259-0.315-1.259-0.315c0.025,2.867,1.07,5.084,2.332,6.502C197.619,135.899,199.103,136.587,200.386,136.843z"/>
		<path fill="#95C11F" d="M230.91,138.397c7.414-3.053,5.541-8.616,5.541-8.616C230.094,132.455,230.91,138.397,230.91,138.397z"/>
		<path fill="#95C11F" d="M175.155,181.051c-1.343,0.251-2.563,0.67-3.632,1.126c-1.063,0.455-1.968,0.955-2.6,1.348
			c-0.633,0.392-0.991,0.692-0.991,0.692c2.396,1.479,4.633,1.842,6.328,1.663c1.713-0.178,2.921-0.877,3.725-1.646
			c0.807-0.773,1.229-1.63,1.466-2.276c0.233-0.647,0.286-1.087,0.286-1.087C177.968,180.713,176.507,180.797,175.155,181.051z"/>
		<path fill="#95C11F" d="M151.684,181.563c-2.87-2.722-5.707-3.48-8.095-3.621c-1.178-0.066-2.21,0.038-2.948,0.163
			c-0.737,0.124-1.181,0.274-1.181,0.274c1.515,2.164,3.169,3.447,4.674,4.132c1.511,0.689,2.88,0.792,4.001,0.64
			c1.124-0.152,2.01-0.559,2.615-0.917C151.355,181.875,151.684,181.563,151.684,181.563z"/>
		<path fill="#95C11F" d="M147.983,125.33c-5.364-10.592-13.359-7.184-13.359-7.184C139.304,127.222,147.983,125.33,147.983,125.33z
			"/>
		<path fill="#95C11F" d="M228.246,177.105c-12.246-6.112-20.137,2.805-20.137,2.805
			C222.296,187.121,228.246,177.105,228.246,177.105z"/>
		<path fill="#95C11F" d="M261.556,206.319c-1.927,0.184-3.6,0.565-4.786,0.911c-1.187,0.344-1.89,0.67-1.89,0.67
			c3.032,3.35,6.22,5.047,8.924,5.708c2.722,0.668,4.989,0.333,6.722-0.34c1.738-0.677,2.968-1.698,3.771-2.525
			c0.802-0.828,1.186-1.464,1.186-1.464c-2.739-1.497-5.179-2.319-7.502-2.732C265.669,206.134,263.487,206.134,261.556,206.319z"/>
		<path fill="#95C11F" d="M297.029,206.88c6.881,5.081,10.924,0.299,10.924,0.299C302.004,202.853,297.029,206.88,297.029,206.88z"
			/>
		<path fill="#95C11F" d="M284.435,246.086c1.854-0.695,3.16-1.776,4.012-2.652c0.849-0.878,1.254-1.553,1.254-1.553
			c-2.833-1.564-5.344-2.461-7.767-2.962c-2.407-0.5-4.707-0.598-6.764-0.509c-2.051,0.087-3.854,0.375-5.139,0.656
			c-1.285,0.278-2.058,0.568-2.058,0.568c3.037,3.827,6.412,5.817,9.286,6.629C280.155,247.086,282.588,246.777,284.435,246.086z"/>
		<path fill="#95C11F" d="M268.652,263.122c-1.596,0.973-2.306,2.29-2.306,2.29c3.466,1.428,6.146,0.592,7.732-0.512
			c1.612-1.116,2.274-2.495,2.274-2.495C272.617,261.508,270.27,262.13,268.652,263.122z"/>
		<path fill="#95C11F" d="M306.12,283.281c-7.398-4.486-13.813-4.399-18.631-3.174c-4.789,1.221-7.839,3.626-7.839,3.626
			c4.294,3.14,8.199,4.654,11.541,5.169c3.345,0.518,6.135,0.043,8.347-0.799c2.214-0.843,3.856-2.056,4.948-3.05
			C305.577,284.058,306.12,283.281,306.12,283.281z"/>
		<path fill="#95C11F" d="M283.188,301.319c-0.265,0.721-0.298,1.379-0.272,1.855c0.027,0.476,0.112,0.77,0.112,0.77
			c2.499-0.854,3.854-2.274,4.729-3.64c0.86-1.346,1.125-2.581,1.125-2.581c-1.799,0.168-3.119,0.735-4.021,1.411
			C283.955,299.812,283.454,300.6,283.188,301.319z"/>
		<path fill="#95C11F" d="M302.893,320.083c7.397,7.678,13.362,2.643,13.362,2.643C309.844,316.17,302.893,320.083,302.893,320.083z
			"/>
		<path fill="#95C11F" d="M306.458,248.112c-0.683,1.089-1.651,1.947-2.417,2.498c-0.383,0.285-0.705,0.484-0.926,0.634
			c-0.217,0.149-0.339,0.233-0.339,0.233c1.198,0.503,2.438,0.643,3.479,0.534c1.052-0.103,1.944-0.404,2.689-0.782
			c1.474-0.75,2.458-1.868,2.976-2.845c1.025-1.994,0.759-3.56,0.365-4.726c-0.427-1.175-1.084-2.021-1.608-2.594
			c-0.527-0.573-0.938-0.857-0.938-0.857c-1.182,2.021-1.535,3.274-1.868,4.461C307.609,245.8,307.155,247.037,306.458,248.112z"/>
		<path fill="#95C11F" d="M264.266,297.671c-1.19-0.418-2.287-0.696-3.086-0.856c-0.798-0.163-1.309-0.195-1.309-0.195
			c0.819,3.015,2.399,4.981,3.928,6.074c1.543,1.108,3.051,1.395,4.263,1.326c1.219-0.071,2.172-0.492,2.82-0.869
			c0.647-0.379,0.998-0.712,0.998-0.712c-1.338-1.344-2.58-2.294-3.859-3.048C266.752,298.64,265.462,298.091,264.266,297.671z"/>
	</g>
	<g>
		<path fill="#E6332A" d="M174.224,208.542c-8.889-5.233-15.104,4.797-10.433,12.431c2.4,3.923,7.843,9.216,13.997,5.01
			c0.52-0.355,1.147-0.504,1.771-0.423c7.262,0.939,9.623-6.617,9.818-11.208C189.758,205.409,179.551,199.494,174.224,208.542z"/>
		<path fill="#432918" d="M174.543,210.524l0.226-0.122c0,0-0.93-6.184,1.185-8.756l-3.373-0.243
			C172.58,201.404,171.611,205.333,174.543,210.524z"/>
		<path fill="#95C11F" d="M174.387,209.161c0,0-3.784-9.404-12.271-6.547C159.679,209.667,171.027,212.215,174.387,209.161z"/>
		<path fill="#ACCA30" d="M174.299,208.959c-4.465-0.26-11.1-5.693-11.962-6.415c-0.074,0.023-0.147,0.045-0.222,0.07v0
			c-0.023,0.068-0.043,0.135-0.064,0.202c0.344,0.29,2.071,1.723,4.263,3.159c3.181,2.086,5.821,3.216,7.854,3.367
			c0.076-0.058,0.149-0.118,0.219-0.181C174.387,209.161,174.357,209.088,174.299,208.959z"/>
	</g>
	<g>
		<path fill="#E6332A" d="M233.686,111.823c-3.324-9.765-14.577-6.217-16.017,2.617c-0.74,4.539-0.067,12.101,7.341,12.927
			c0.625,0.07,1.197,0.367,1.618,0.835c4.891,5.449,11.609,1.262,14.753-2.091C247.502,119.582,243.625,108.44,233.686,111.823z"/>
		<path fill="#432918" d="M232.634,113.534l0.25,0.055c0,0,3.33-5.293,6.61-5.864l-2.398-2.384
			C237.096,105.34,233.799,107.686,232.634,113.534z"/>
		<path fill="#95C11F" d="M233.404,112.399c0,0,3.267-9.597-5.029-12.968C221.927,103.188,228.866,112.522,233.404,112.399z"/>
		<path fill="#ACCA30" d="M233.47,112.188c-3.215-3.109-4.698-11.556-4.882-12.666c-0.07-0.03-0.141-0.062-0.213-0.091l0,0
			c-0.063,0.036-0.121,0.074-0.182,0.111c0.072,0.444,0.446,2.657,1.17,5.174c1.051,3.656,2.314,6.234,3.758,7.676
			c0.096,0.005,0.19,0.008,0.283,0.006C233.404,112.399,233.43,112.324,233.47,112.188z"/>
	</g>
	<g>
		<path fill="#E6332A" d="M240.904,194.239c-7.369-10.686-19.779-2.534-18.497,8.655c0.659,5.749,4.063,14.675,13.317,13.138
			c0.78-0.13,1.576,0.033,2.245,0.456c7.788,4.923,14.489-2.448,17.147-7.585C260.293,198.9,251.781,186.738,240.904,194.239z"/>
		<path fill="#432918" d="M240.218,196.671l0.321-0.019c0,0,2.218-7.551,5.994-9.365l-3.721-2.065
			C242.813,185.221,239.624,189.191,240.218,196.671z"/>
		<path fill="#95C11F" d="M240.762,195.032c0,0,0.667-12.739-10.533-13.979C223.708,187.811,235.309,196.736,240.762,195.032z"/>
		<path fill="#ACCA30" d="M240.769,194.755c-4.958-2.664-9.648-12.383-10.25-13.664c-0.097-0.013-0.191-0.026-0.289-0.038l-0.001,0
			c-0.063,0.065-0.121,0.131-0.181,0.197c0.239,0.513,1.451,3.064,3.189,5.865c2.524,4.067,4.938,6.756,7.179,8.007
			c0.117-0.026,0.233-0.055,0.346-0.09C240.762,195.032,240.767,194.933,240.769,194.755z"/>
	</g>
	<g>
		<path fill="#E6332A" d="M162.175,136.9c-8.366,0.102-8.466,9.671-2.019,13.007c3.313,1.714,9.313,3.101,11.816-2.402
			c0.211-0.464,0.584-0.832,1.052-1.038c5.433-2.398,3.898-8.633,2.104-11.901C171.638,128.201,162.071,128.384,162.175,136.9z"/>
		<path fill="#432918" d="M163.229,138.141l0.104-0.179c0,0-3.242-3.901-2.855-6.573l-2.442,1.248
			C158.036,132.637,159.014,135.77,163.229,138.141z"/>
		<path fill="#95C11F" d="M162.548,137.261c0,0-6.576-4.936-11.265,0.611C152.554,143.789,161.499,140.791,162.548,137.261z"/>
		<path fill="#ACCA30" d="M162.402,137.157c-3.208,1.695-10.094,0.711-10.996,0.573c-0.041,0.047-0.082,0.093-0.123,0.142l0,0
			c0.012,0.057,0.026,0.112,0.04,0.167c0.36,0.057,2.161,0.325,4.284,0.402c3.084,0.111,5.39-0.213,6.864-0.963
			c0.028-0.072,0.055-0.145,0.076-0.217C162.548,137.261,162.496,137.223,162.402,137.157z"/>
	</g>
	<g>
		<path fill="#E6332A" d="M287.745,164.567c-3.375-9.747-14.609-6.139-16.002,2.702c-0.716,4.543-0.003,12.101,7.409,12.888
			c0.626,0.066,1.2,0.36,1.623,0.826c4.92,5.423,11.616,1.201,14.742-2.169C301.604,172.251,297.667,161.131,287.745,164.567z"/>
		<path fill="#432918" d="M286.703,166.283l0.251,0.054c0,0,3.301-5.312,6.578-5.899l-2.411-2.372
			C291.121,158.066,287.837,160.429,286.703,166.283z"/>
		<path fill="#95C11F" d="M287.468,165.144c0,0,3.216-9.613-5.099-12.94C275.941,155.994,282.931,165.291,287.468,165.144z"/>
		<path fill="#ACCA30" d="M287.532,164.933c-3.231-3.092-4.761-11.531-4.949-12.64c-0.071-0.03-0.141-0.061-0.214-0.09l0,0
			c-0.063,0.037-0.121,0.075-0.181,0.112c0.074,0.443,0.461,2.654,1.197,5.168c1.07,3.651,2.349,6.222,3.799,7.656
			c0.095,0.005,0.19,0.007,0.283,0.004C287.468,165.144,287.493,165.069,287.532,164.933z"/>
	</g>
</g>
</svg>
