<?xml version="1.0" encoding="utf-8"?>
<!-- Generator: Adobe Illustrator 21.0.0, SVG Export Plug-In . SVG Version: 6.00 Build 0)  -->
<svg version="1.1" id="Calque_1" xmlns="http://www.w3.org/2000/svg" xmlns:xlink="http://www.w3.org/1999/xlink" x="0px" y="0px"
	 viewBox="0 0 432 432" style="enable-background:new 0 0 432 432;" xml:space="preserve">
<style type="text/css">
	.st0{fill:#F7931E;}
	.st1{fill:#919191;}
	.st2{fill:#E6E6E6;}
	.st3{fill:#FFFFFF;}
	.st4{fill:#FFB3B3;}
	.st5{fill:#FFBF87;}
	.st6{fill:#65C8D0;}
	.st7{fill:#C7B299;}
	.st8{fill:#FF7D7D;}
	.st9{fill:#FF9191;}
	.st10{fill:#FCD821;}
	.st11{fill:#8CC63F;}
	.st12{fill:#603913;}
	.st13{fill:#009245;}
	.st14{fill:#ED1C24;}
	.st15{fill:#838BC5;}
	.st16{fill:#BA9BC9;}
	.st17{fill:#22B573;}
	.st18{fill:#39B54A;}
	.st19{fill:#8C6239;}
	.st20{fill:#F2B1B1;}
	.st21{fill:#603813;}
	.st22{fill:#C69C6D;}
	.st23{fill:#C46868;}
	.st24{fill:#A3DEE3;}
	.st25{fill:#FBB03B;}
</style>
<g>
	<g>
		<path class="st6" d="M176,134h105.1c0.3-1.8,0.5-3.6,0.5-5.5c0-12.3-7.5-22.2-16.8-22.2c-0.7,0-1.4,0.1-2,0.2c0-0.6,0-1.2,0-1.8
			c0-17-8.4-30.9-18.8-30.9c-5.1,0-9.6,3.3-13,8.6c-1.6-0.7-3.2-1-4.9-1c-6.2,0-11.8,4.8-15.2,12.2c-3.1-2.9-6.8-4.7-10.8-4.7
			c-10.7,0-19.4,12.2-19.4,27.3c0,2.9,0.3,5.8,0.9,8.4C179.1,127.3,177.1,130.4,176,134z"/>
		<path class="st6" d="M182.8,177H77.7c-0.3-1.8-0.5-3.6-0.5-5.5c0-12.3,7.5-22.2,16.8-22.2c0.7,0,1.4,0.1,2,0.2c0-0.6,0-1.2,0-1.8
			c0-17,8.4-30.9,18.8-30.9c5.1,0,9.6,3.3,13,8.6c1.6-0.7,3.2-1,4.9-1c6.2,0,11.8,4.8,15.2,12.2c3.1-2.9,6.8-4.7,10.8-4.7
			c10.7,0,19.4,12.2,19.4,27.3c0,2.9-0.3,5.8-0.9,8.4C179.7,170.3,181.7,173.5,182.8,177z"/>
		<path class="st10" d="M238.3,128.1c-11.5,0-22.9,0-34.4,0c-0.2-2.4-0.6-4.7-1.2-7c4.5-1.5,8.9-2.9,13.4-4.4c1.7-0.6,1-3.3-0.8-2.7
			c-4.5,1.5-9,2.9-13.5,4.4c-0.8-2.2-1.9-4.4-3.2-6.3c9.3-6.7,18.5-13.4,27.8-20.2c1.5-1.1,0-3.5-1.4-2.5
			c-9.3,6.8-18.6,13.5-28,20.3c-1.5-1.9-3.1-3.6-5-5.1c2.8-3.8,5.6-7.7,8.4-11.5c1.1-1.5-1.4-2.9-2.5-1.4c-2.7,3.8-5.5,7.5-8.2,11.3
			c-2-1.3-4.1-2.4-6.4-3.3c3.5-10.9,7.1-21.8,10.6-32.7c0.6-1.7-2.2-2.5-2.7-0.8c-3.5,10.9-7.1,21.7-10.6,32.6c-2.3-0.6-4.7-1-7-1.1
			c0-4.7,0-9.4,0-14.1c0-1.8-2.8-1.8-2.8,0c0,4.7,0,9.4,0,14.1c-2.4,0.1-4.7,0.5-7,1.1c-3.5-10.9-7.1-21.8-10.6-32.7
			c-0.6-1.7-3.3-1-2.7,0.8c3.6,10.9,7.1,21.9,10.7,32.8c-2.2,0.8-4.4,1.9-6.4,3.2c-2.7-3.8-5.5-7.5-8.2-11.3c-1.1-1.5-3.5,0-2.5,1.4
			c2.8,3.8,5.6,7.7,8.4,11.5c-1.9,1.5-3.6,3.1-5.1,5c-9.3-6.8-18.6-13.5-27.9-20.3c-1.5-1.1-2.9,1.4-1.4,2.5
			c9.2,6.7,18.5,13.4,27.7,20.1c-1.3,2-2.4,4.1-3.2,6.4c-4.5-1.5-9-2.9-13.5-4.4c-1.7-0.6-2.5,2.2-0.8,2.7c4.5,1.4,8.9,2.9,13.4,4.3
			c-0.6,2.3-1,4.7-1.1,7c-11.5,0-22.9,0-34.4,0c-1.8,0-1.8,2.8,0,2.8c11.5,0,22.9,0,34.4,0c0.1,2.4,0.5,4.7,1.1,7
			c-4.4,1.4-8.9,2.9-13.3,4.3c-1.7,0.6-1,3.3,0.8,2.7c4.5-1.5,9-2.9,13.4-4.4c0.7,1.8,1.5,3.6,2.5,5.2c0.2,0.4,0.5,0.7,0.7,1.1
			c-9.2,6.7-18.5,13.4-27.7,20.1c-1.5,1.1,0,3.5,1.4,2.5c9.3-6.8,18.6-13.5,27.9-20.3c1.5,1.9,3.2,3.6,5.1,5
			c-2.8,3.8-5.6,7.7-8.4,11.5c-1.1,1.5,1.4,2.9,2.5,1.4c2.7-3.8,5.5-7.5,8.2-11.3c2,1.3,4.1,2.4,6.4,3.2
			c-3.6,10.9-7.1,21.9-10.7,32.8c-0.6,1.7,2.2,2.5,2.7,0.8c3.5-10.9,7.1-21.8,10.6-32.7c2.3,0.6,4.6,1,7,1.1c0,4.7,0,9.4,0,14.1
			c0,1.8,2.8,1.8,2.8,0c0-4.7,0-9.4,0-14.1c1.4-0.1,2.8-0.2,4.1-0.4c1-0.2,2-0.4,2.9-0.7c3.5,10.9,7.1,21.7,10.6,32.6
			c0.6,1.7,3.3,1,2.7-0.8c-3.5-10.9-7.1-21.8-10.6-32.7c2.3-0.9,4.4-2,6.3-3.3c2.7,3.8,5.5,7.5,8.2,11.3c1.1,1.5,3.5,0,2.5-1.4
			c-2.8-3.8-5.6-7.7-8.4-11.5c1.8-1.5,3.5-3.2,5-5.1c9.3,6.8,18.7,13.6,28,20.3c1.5,1.1,2.9-1.4,1.4-2.5
			c-9.3-6.7-18.5-13.5-27.8-20.2c1.3-2,2.4-4.1,3.2-6.3c4.5,1.5,9,2.9,13.6,4.4c1.7,0.6,2.5-2.2,0.8-2.7c-4.5-1.5-8.9-2.9-13.4-4.4
			c0.6-2.3,1.1-4.6,1.2-7c11.5,0,22.9,0,34.4,0C240.1,130.9,240.1,128.1,238.3,128.1z"/>
	</g>
	<g>
		<g>
			<path class="st11" d="M291.8,227c-1.9-7.7-7.2-14.2-14.6-17c-6.5-2.4-13.8-2.1-19.7,1.5c1.2-8.1,0.9-16.3-0.9-24.3
				c-1.9-8.2-5.2-16.7-11.1-22.8c-4.7-4.8-11.8-8.6-18.4-5.4c-6.8,3.3-11.2,12.2-13.9,18.8c-1.8,4.3-3.1,8.8-3.8,13.4
				c-0.4,2.8-1.8,9.9-0.7,12.4c-2.2-5-4.4-10.1-7.6-14.6c-3.2-4.5-9.3-11.2-15.2-11.1c-5.1,0.1-9.6,2.9-13,6.7
				c-6.8,7.7-9.9,18.9-10.8,29c-0.5,5.8-0.3,10.9,1.3,16.5c0.7,2.4,4.8,16,7.7,16.2c-8-0.6-15.7,2.8-21.3,8.6
				c-6.7,7-9.1,17-7.5,26.5c3.3,19.9,21.7,33,40.5,36.7c7,1.4,14.3,1.5,21.3,0.1c3.4-0.7,6.4-1.7,9.5-3.4c2.5-1.4,5.2-2.5,8-3.3
				c2.2-0.6,4.9-0.1,7.1,0.2c5.4,0.8,10.5,2.9,16,3.5c9.4,1.1,19.4-0.4,27-6.3c6.2-4.9,10.3-12.3,9.7-20.3
				c-0.6-9-6.3-16.6-12.3-22.9C284.5,259.2,296,244,291.8,227z"/>
			<path class="st12" d="M206,318.4c0.7,6.4,1.1,13.1-0.6,19.4c-1.9,6.9-6.2,12.7-9.8,18.8c-1,1.7-2,3.4-2.4,5.3
				c-0.1,0.3-0.1,0.6,0,0.9c0.3,0.8,1.5,0.5,2.2,0.1c3.6-2,6.3-5.6,10.3-6.5c0.8-0.2,1.6-0.2,2.5-0.1c0.9,0.2,1.7,0.7,2.4,1.3
				c2.9,2.4,4.2,6.3,7,8.8c0.2,0.2,0.4,0.3,0.6,0.4c0.8,0.1,1.2-0.9,1.3-1.7c0.4-2.2,1.4-4.3,2.7-6.1c0.8-1.1,1.9-2.2,3.3-2.2
				c1,0,1.9,0.4,2.7,0.9c3.6,2,7.5,4,11.6,4.1c1.1,0,2.3-0.2,2.8-1.2c0.2-0.4,0.2-1,0.2-1.5c-0.6-4.5-5.3-7.2-7.6-10.8
				c-4-6.3-6.3-13.6-6.9-21c0-0.1,0-0.2,0-0.3c-0.4-5.6,0.1-11.3,1.3-16.8c0.8-3.7,2.6-6.5,4.7-9.7c2.4-3.7,5.1-7.2,7.8-10.7
				c2.2-2.8,3.7-5.9,6-8.7c5.3-6.6,9.8-13.8,13.4-21.4c0.6-1.2,1.1-2.5,0.8-3.8c-1.2,0.5-2,1.5-2.8,2.4
				c-6.6,7.9-12.6,16.5-20.9,22.5c-3.6,2.6-8.5,4.9-12.9,2.9c-3.8-1.7-6.7-5.7-7.7-9.7c-0.7-2.7-0.6-5.5-0.5-8.3
				c0.2-4.7,0.7-9.3,1.4-13.9c0.4-2.5,0.9-5.2,0.4-7.7c-1.6,1.6-2.6,3.7-3.3,5.9c-3,8.7-3.3,18.1-3.2,27.3c0,4.9,1.4,13.5-5.6,13.5
				c-5.1,0-10.5-3.4-14-6.8c-5.2-5-16.2-19.3-15.5-14.6C178.7,275.3,204.3,302.3,206,318.4z"/>
		</g>
		<g>
			<path class="st13" d="M183.2,213.3c0,0,0-0.1,0-0.1c-1-3.3-2.5-6.9-5.7-8.6c-0.2-0.1-0.4,0.1-0.5,0.3c-0.3,3.9,2.4,7.1,5.7,8.7
				c0.1,0.1,0.3,0.1,0.4,0c0,0,0,0,0,0C183.2,213.5,183.2,213.4,183.2,213.3z M177.6,205.4c2.3,1.4,3.6,4,4.5,6.5
				c-0.8-1.1-1.6-2.2-2.2-3.4c-0.2-0.4-0.7,0-0.5,0.3c0.6,1.2,1.4,2.3,2.2,3.4C179.3,210.6,177.6,208.2,177.6,205.4z"/>
			<path class="st14" d="M190.7,211.4c-1-1.4-2.4-2.5-4.2-2.1c-1.8,0.4-2.9,1.9-3.6,3.5c-2.2-1.5-4.9,0.4-5.1,2.9
				c-0.2,3,2.5,5.8,5.1,6.8c2.8,1.1,5.8-0.7,7.6-2.8C192.6,217,192.6,214.1,190.7,211.4z"/>
			<g>
				<path class="st12" d="M183.2,213c-1.1-2.1-0.9-4.7,0.5-6.7c0.2-0.3-0.2-0.8-0.5-0.4c-1.6,2.2-1.8,5-0.6,7.4
					C182.9,213.7,183.4,213.3,183.2,213L183.2,213z"/>
			</g>
		</g>
		<g>
			<path class="st13" d="M236.8,184.2C236.8,184.2,236.8,184.1,236.8,184.2c1.9-3,3.8-6.5,3-10c-0.1-0.3-0.3-0.3-0.5-0.2
				c-3.2,2.2-4,6.4-3.1,10c0,0.2,0.1,0.3,0.2,0.3c0,0,0,0,0,0C236.6,184.3,236.7,184.3,236.8,184.2z M239.3,174.8
				c0.4,2.6-0.8,5.3-2.1,7.6c0.3-1.3,0.7-2.6,1.2-3.8c0.2-0.4-0.5-0.6-0.6-0.2c-0.5,1.2-0.9,2.5-1.2,3.8
				C236.3,179.4,237.1,176.6,239.3,174.8z"/>
			<path class="st14" d="M243.1,188.7c0.4-1.7,0.4-3.4-1.1-4.6c-1.4-1.1-3.3-1-5-0.6c-0.3-2.6-3.4-3.5-5.5-2.1
				c-2.5,1.7-2.8,5.6-1.9,8.2c1,2.9,4.2,4,7,4C239.9,193.8,242.2,191.9,243.1,188.7z"/>
			<g>
				<path class="st12" d="M237,184c1-2.2,3.1-3.7,5.5-3.9c0.4,0,0.4-0.7,0-0.6c-2.7,0.2-5,1.8-6.1,4.3
					C236.2,184.2,236.8,184.3,237,184L237,184z"/>
			</g>
		</g>
		<g>
			<path class="st13" d="M232.1,216.1c0,0,0-0.1,0-0.1c-0.3-3.4-1-7.3-3.7-9.7c-0.2-0.2-0.4,0-0.5,0.2c-1.1,3.7,0.8,7.5,3.7,9.8
				c0.1,0.1,0.2,0.1,0.4,0.1c0,0,0,0,0,0C232,216.3,232.1,216.3,232.1,216.1z M228.3,207.2c1.9,1.9,2.6,4.6,3,7.3
				c-0.6-1.2-1-2.5-1.4-3.8c-0.1-0.4-0.7-0.2-0.6,0.2c0.4,1.3,0.8,2.5,1.4,3.8C228.8,212.7,227.7,210,228.3,207.2z"/>
			<path class="st14" d="M239.8,215.8c-0.7-1.6-1.8-2.9-3.7-2.9c-1.8,0-3.3,1.2-4.3,2.6c-1.8-1.9-4.9-0.7-5.6,1.7
				c-0.9,2.9,1.2,6.2,3.5,7.7c2.5,1.7,5.8,0.6,8-1.1C240.4,221.8,241,218.9,239.8,215.8z"/>
			<g>
				<path class="st12" d="M232.1,215.8c-0.6-2.3,0.2-4.8,1.9-6.4c0.3-0.3-0.1-0.8-0.4-0.5c-2,1.8-2.8,4.5-2.2,7.1
					C231.6,216.4,232.2,216.2,232.1,215.8L232.1,215.8z"/>
			</g>
		</g>
		<g>
			<path class="st13" d="M167.2,290c0,0,0-0.1,0-0.1c1-3.3,1.7-7.2,0-10.4c-0.1-0.2-0.4-0.2-0.5,0c-2.4,3.1-2,7.3-0.1,10.5
				c0,0.2,0.2,0.2,0.3,0.2c0,0,0,0,0,0C167,290.1,167.1,290.1,167.2,290z M166.9,280.3c1.1,2.4,0.8,5.3,0.1,7.9
				c-0.1-1.3-0.1-2.7,0.1-4c0-0.4-0.6-0.4-0.6,0c-0.1,1.3-0.1,2.7-0.1,4C165.4,285.5,165.3,282.6,166.9,280.3z"/>
			<path class="st14" d="M174.5,292.5c-0.1-1.7-0.6-3.4-2.4-4c-1.7-0.6-3.5,0-5,0.9c-1-2.4-4.3-2.4-5.8-0.4
				c-1.9,2.3-1.1,6.2,0.5,8.4c1.8,2.5,5.2,2.7,7.9,1.9C172.9,298.3,174.6,295.8,174.5,292.5z"/>
			<g>
				<path class="st12" d="M167.4,289.7c0.3-2.4,1.9-4.4,4.1-5.3c0.4-0.1,0.2-0.8-0.2-0.6c-2.5,1-4.3,3.2-4.6,5.9
					C166.7,290.1,167.3,290.1,167.4,289.7L167.4,289.7z"/>
			</g>
		</g>
		<g>
			<path class="st13" d="M260.5,294.5c0,0,0-0.1,0-0.1c-0.6-3.4-1.7-7.2-4.6-9.3c-0.2-0.1-0.4,0-0.5,0.2c-0.8,3.8,1.5,7.4,4.6,9.4
				c0.1,0.1,0.2,0.1,0.4,0c0,0,0,0,0,0C260.5,294.7,260.5,294.6,260.5,294.5z M255.9,285.9c2.1,1.7,3.1,4.4,3.6,7
				c-0.7-1.2-1.3-2.4-1.8-3.6c-0.1-0.4-0.7-0.1-0.6,0.3c0.5,1.3,1.1,2.5,1.8,3.6C256.9,291.3,255.6,288.7,255.9,285.9z"/>
			<path class="st14" d="M268.2,293.4c-0.8-1.5-2.1-2.8-3.9-2.6c-1.8,0.2-3.1,1.5-4,3c-2-1.7-4.9-0.2-5.4,2.3
				c-0.6,2.9,1.8,6,4.2,7.3c2.7,1.4,5.8,0.1,7.9-1.9C269.4,299.3,269.7,296.3,268.2,293.4z"/>
			<g>
				<path class="st12" d="M260.6,294.1c-0.8-2.3-0.3-4.8,1.3-6.6c0.3-0.3-0.1-0.8-0.4-0.5c-1.8,2-2.4,4.8-1.5,7.3
					C260.1,294.8,260.7,294.5,260.6,294.1L260.6,294.1z"/>
			</g>
		</g>
		<g>
			<path class="st13" d="M267.6,229.5C267.6,229.5,267.6,229.5,267.6,229.5c2.3-2.7,4.6-5.9,4.4-9.5c0-0.3-0.3-0.3-0.5-0.2
				c-3.5,1.8-4.8,5.8-4.4,9.5c0,0.2,0.1,0.3,0.2,0.3c0,0,0,0,0,0C267.4,229.6,267.5,229.6,267.6,229.5z M271.4,220.6
				c0,2.7-1.5,5.1-3.2,7.2c0.5-1.3,1-2.5,1.7-3.6c0.2-0.4-0.4-0.6-0.6-0.3c-0.7,1.2-1.2,2.4-1.7,3.6
				C267.8,224.8,268.9,222.1,271.4,220.6z"/>
			<path class="st14" d="M273.2,234.9c0.6-1.6,0.9-3.3-0.5-4.7c-1.3-1.3-3.2-1.5-4.9-1.3c0.1-2.6-2.9-3.9-5.1-2.8
				c-2.7,1.4-3.6,5.1-3.1,7.9c0.6,3,3.6,4.6,6.4,5C269.3,239.5,271.9,237.9,273.2,234.9z"/>
			<g>
				<path class="st12" d="M267.8,229.3c1.3-2,3.6-3.2,6-3.1c0.4,0,0.5-0.6,0.1-0.6c-2.7-0.2-5.2,1.1-6.6,3.4
					C267.1,229.4,267.6,229.7,267.8,229.3L267.8,229.3z"/>
			</g>
		</g>
		<g>
			<path class="st13" d="M190.6,243.5C190.7,243.5,190.7,243.4,190.6,243.5c2.1-2.9,4.1-6.3,3.6-9.8c0-0.3-0.3-0.3-0.5-0.2
				c-3.3,2.1-4.3,6.2-3.6,9.8c0,0.2,0.1,0.3,0.2,0.3c0,0,0,0,0,0C190.4,243.6,190.6,243.6,190.6,243.5z M193.7,234.3
				c0.2,2.7-1.1,5.2-2.5,7.4c0.4-1.3,0.8-2.6,1.4-3.8c0.2-0.4-0.4-0.6-0.6-0.2c-0.6,1.2-1,2.5-1.4,3.8
				C190.4,238.7,191.4,236,193.7,234.3z"/>
			<path class="st14" d="M196.7,248.3c0.5-1.6,0.6-3.4-0.8-4.6c-1.4-1.2-3.3-1.2-5-0.8c-0.1-2.6-3.2-3.7-5.4-2.4
				c-2.5,1.6-3.2,5.4-2.4,8.1c0.8,2.9,4,4.3,6.8,4.4C193.2,253.2,195.6,251.5,196.7,248.3z"/>
			<g>
				<path class="st12" d="M190.9,243.3c1.1-2.1,3.3-3.5,5.7-3.6c0.4,0,0.5-0.6,0.1-0.6c-2.7,0.1-5.1,1.6-6.3,4
					C190.1,243.4,190.7,243.6,190.9,243.3L190.9,243.3z"/>
			</g>
		</g>
		<g>
			<path class="st13" d="M234.9,260.3c0,0,0-0.1,0-0.1c0.3-3.4,0.4-7.4-1.9-10.2c-0.2-0.2-0.4-0.1-0.5,0.1
				c-1.8,3.5-0.6,7.5,1.8,10.3c0.1,0.1,0.2,0.2,0.3,0.1c0,0,0,0,0,0C234.7,260.5,234.8,260.4,234.9,260.3z M232.8,250.8
				c1.5,2.2,1.7,5,1.6,7.7c-0.3-1.3-0.6-2.6-0.7-4c0-0.4-0.7-0.3-0.6,0.1c0.1,1.3,0.3,2.7,0.7,4
				C232.3,256.3,231.7,253.5,232.8,250.8z"/>
			<path class="st14" d="M242.5,261.5c-0.4-1.7-1.2-3.2-3.1-3.5c-1.8-0.3-3.4,0.6-4.7,1.8c-1.4-2.2-4.7-1.5-5.8,0.7
				c-1.4,2.6,0,6.3,2,8.2c2.2,2.1,5.6,1.7,8.1,0.4C242,267.4,243.2,264.7,242.5,261.5z"/>
			<g>
				<path class="st12" d="M235,260c-0.1-2.4,1.1-4.7,3.1-5.9c0.3-0.2,0.1-0.8-0.3-0.6c-2.3,1.4-3.6,3.9-3.4,6.6
					C234.4,260.5,235,260.4,235,260L235,260z"/>
			</g>
		</g>
		<g>
			<path class="st13" d="M254.1,349.8c0,0,0-0.1,0-0.1c0.3-3.4,0.4-7.4-1.9-10.2c-0.2-0.2-0.4-0.1-0.5,0.1
				c-1.8,3.5-0.6,7.5,1.8,10.3c0.1,0.1,0.2,0.2,0.3,0.1c0,0,0,0,0,0C254,350,254.1,349.9,254.1,349.8z M252,340.3
				c1.5,2.2,1.7,5,1.6,7.7c-0.3-1.3-0.6-2.6-0.7-4c0-0.4-0.7-0.3-0.6,0.1c0.1,1.3,0.3,2.7,0.7,4C251.5,345.8,250.9,342.9,252,340.3z
				"/>
			<path class="st14" d="M261.8,350.9c-0.4-1.7-1.2-3.2-3.1-3.5c-1.8-0.3-3.4,0.6-4.7,1.8c-1.4-2.2-4.7-1.5-5.8,0.7
				c-1.4,2.6,0,6.3,2,8.2c2.2,2.1,5.6,1.7,8.1,0.4C261.3,356.9,262.4,354.2,261.8,350.9z"/>
			<g>
				<path class="st12" d="M254.2,349.5c-0.1-2.4,1.1-4.7,3.1-5.9c0.3-0.2,0.1-0.8-0.3-0.6c-2.3,1.4-3.6,3.9-3.4,6.6
					C253.6,350,254.2,349.9,254.2,349.5L254.2,349.5z"/>
			</g>
		</g>
	</g>
	<g>
		<path class="st11" d="M177.4,356.8c-1.1,1.9-2.1,3.8-3.2,5.7c-1.1-2.8-2.1-5.5-3.2-8.3c-0.4-1-1.6-1.2-2.3-0.3
			c-1.4,2-2.9,4-4.3,5.9c-0.3-0.5-0.7-0.9-1-1.4c-0.5-0.6-1.4-0.9-2-0.3c-1.1,1.2-2.1,2.4-3,3.6c-3-5.4-5.1-11.1-6.4-17.2
			c-0.3-1.2-1.7-1.1-2.3-0.3c-3.1,4.3-4.6,9.1-5.6,14.2c-0.8-1.5-1.6-3.1-2.4-4.6c-0.5-0.9-1.7-0.7-2.2,0c-1.4,1.9-2.6,3.8-3.8,5.7
			c-3.1-6.5-6.1-13-8.8-19.7c-0.5-1.1-2-1.3-2.4,0c-2.1,6.9-4.2,13.7-6.3,20.6c-0.5,1.6,2,2.2,2.4,0.7c1.8-5.8,3.5-11.5,5.3-17.3
			c2.7,6.4,5.6,12.7,8.6,18.9c0.4,0.9,1.7,0.8,2.2,0c1.2-2.1,2.5-4.1,3.8-6c1,2,2.1,4,3.1,5.9c0.5,0.9,2.1,0.8,2.3-0.3
			c1-5,2-9.9,4.5-14.4c1.5,5.9,3.9,11.4,7,16.7c0.5,0.8,1.7,0.8,2.2,0c0.8-1.4,1.8-2.6,2.8-3.8c0.4,0.5,0.7,1,1.1,1.6
			c0.6,0.8,1.6,0.8,2.2,0c1.4-1.8,2.7-3.6,4-5.5c1.1,2.9,2.2,5.8,3.3,8.7c0.4,1,1.7,1.3,2.3,0.3c1.5-2.7,3-5.4,4.5-8.1
			C180.4,356.7,178.2,355.4,177.4,356.8z"/>
		<path class="st11" d="M110.6,357.6c-0.6-1.7-0.9-3.5-2.3-4.7c-0.7-0.6-1.8-0.4-2.1,0.6c-0.9,2.6-1.8,5.1-2.7,7.7
			c-0.9-1.8-2.1-3.7-3.7-4.2c-0.4-0.1-0.9,0-1.2,0.3c-1.6,1.6-2.7,3.9-3.7,6.1c-2.8-3.8-5.1-7.8-7-12.2c-0.4-1-2.1-0.7-2.3,0.3
			c-0.9,4-1.8,8.1-2.7,12.1c-0.3,1.6,2.1,2.3,2.4,0.7c0.6-2.9,1.3-5.8,1.9-8.6c2,3.9,4.3,7.5,7,10.9c0.5,0.6,1.6,0.4,2-0.3
			c0.4-0.7,2.4-5.5,3.1-5.6c1.6-0.2,2.7,3.1,3.5,4.2c0.6,1,1.9,0.7,2.3-0.3c0.9-2.7,1.9-5.3,2.8-8c0.6,1.5,1,3.4,1.4,4.5
			c0.7,1.9,1.3,3.8,2,5.7c0.5,1.5,3,0.9,2.4-0.7C112.6,363.3,111.6,360.4,110.6,357.6z"/>
		<path class="st11" d="M331.4,347.3c-1.7,2.9-3.2,5.8-4.4,8.9c-0.8-2-1.9-4.2-3.3-4.6c-1.8-0.5-3.4,1.8-4.4,3.4
			c-1-0.6-2-1.3-2.9-1.9c-0.5-0.3-1.1-0.2-1.5,0.2c-0.3,0.2-0.5,0.5-0.8,0.7c-1.7-5.9-3.4-11.9-5-17.9c-0.2-0.8-1.5-1.3-2.1-0.6
			c-4.3,5.6-4.2,12.7-6.8,18.9c-0.9-1-1.5-2.2-1.9-3.7c-0.3-1-1.4-1.1-2.1-0.6c-1.5,1.2-2.8,2.5-4.1,3.9c-2-3.7-3.8-7.5-5.3-11.4
			c-0.5-1.2-1.9-1.2-2.4,0c-1.6,3.9-3,7.8-4.8,11.7c-1.8,4-4.8,2.1-8.2,2.8c-1.6,0.3-0.9,2.7,0.7,2.4c3.4-0.7,5.8,1.9,8.4-1.5
			c2.4-3.2,3.7-7.6,5.1-11.6c1.5,3.6,3.2,7,5.1,10.4c0.4,0.7,1.5,0.9,2,0.3c1.2-1.4,2.4-2.7,3.8-3.9c0.7,1.6,1.8,3,3.2,4.2
			c0.6,0.5,1.6,0.5,2-0.3c2.8-5.6,2.7-12.4,5.7-17.8c1.6,5.8,3.2,11.5,4.8,17.3c0.3,0.9,1.4,1.2,2.1,0.6c0.5-0.5,1-1,1.5-1.5
			c1,0.7,2.1,1.3,3.1,2c0.4,0.3,1.2,0.2,1.5-0.2c0.6-0.7,1.1-1.4,1.7-2.2c0.6-1.4,1-1.5,1.3-0.1c1.1,0.8,2,3.7,2.6,4.9
			c0.5,1,2,0.7,2.3-0.3c1.4-4,3.1-7.7,5.2-11.3C334.4,347.2,332.3,345.9,331.4,347.3z"/>
		<path class="st11" d="M370.6,362.3c-0.8-4.8-1.6-9.6-2.4-14.4c-0.2-1.4-2-1-2.4,0c-1.4,3.7-2.8,7.3-4.2,11
			c-0.7-1.9-1.7-3.9-3.3-4.2c-1.7-0.3-3.4,1.5-4.7,3.2c-1.9-4.1-3.9-8-6.3-11.9c-0.6-1-1.9-0.7-2.3,0.3c-2.1,5.3-4,10.6-5.8,16
			c-0.5,1.5,1.9,2.2,2.4,0.7c1.5-4.5,3.1-9,4.8-13.5c2.1,3.7,4,7.5,5.8,11.4c0.4,1,1.7,0.7,2.2,0c0.7-1,1.6-1.9,2.5-2.8
			c0.7-1,1.2-1,1.4,0c1,0.7,1.7,3.7,2.3,4.9c0.5,1.1,2,0.6,2.3-0.3c1.2-3.2,2.5-6.5,3.7-9.7c0.5,3.3,1.1,6.7,1.6,10
			C368.5,364.6,370.9,363.9,370.6,362.3z"/>
	</g>
	<g>
		<path class="st4" d="M304.9,170.4c0-2.8-0.1-7-3.2-8.2c-8.5-3.3-5.5,15.5-4.8,19c-0.1,0.3-0.2,0.5-0.1,0.8
			c-0.2-0.2-0.5-0.3-0.7-0.4c-2.6-2.5-17.1-14.8-18.7-5.9c-0.6,3.3,2.9,5.6,5.3,7.1c2.6,1.6,5.4,2.5,8.3,2.5c-2.2,3.2-3.1,7.7,1.2,9
			c6.5,1.9,5.8-8.4,4.8-11.8c2.3,2.6,10.8,8.6,12.6,2c1.2-4.4-3.1-6-7-5.7C304.2,176.3,304.9,173.4,304.9,170.4z M285.3,181.4
			c-1.1-0.6-2.8-1.4-3.5-2.3c-0.5-0.6-1.8-3.1-0.8-3.7c1.7-1.1,6.6,2.3,8,3.3c1.6,1.2,3,2.5,4.4,3.8
			C290.6,183.1,287.9,182.7,285.3,181.4z M295.3,189.4c-3.3,0.3-4.2-0.6-2.6-2.6c0.6-1,1.5-1.7,2.4-2.1
			C295.6,186.3,296,188.5,295.3,189.4z M304,184.6c-1.1,0.1-2.8-1.4-4-2.7c0.9-0.6,1.9-0.9,3.1-1C305.7,180.7,306,181.9,304,184.6z
			 M299.1,179.3c-0.4-1.9-0.8-3.8-1-5.7c-0.2-1.8-0.5-7.7,1.3-8.6c1.1-0.5,2.5,1.9,2.8,2.6c0.4,1.1,0.2,3,0.1,4.2
			C302.1,174.7,301.1,177.3,299.1,179.3z"/>
		<g>
			<path class="st12" d="M292.3,177.1c2.5,4.5,5.1,8.8,8,13c0.9,1.3,3.1,0.2,2.2-1.2c-2.9-4.2-5.5-8.5-8-13
				C293.7,174.5,291.5,175.7,292.3,177.1L292.3,177.1z"/>
		</g>
	</g>
	<g>
		<path class="st15" d="M134.4,235.9c2-2,4.9-5,3.5-8.1c-3.6-8.4-14.9,7.1-16.8,10.1c-0.3,0.1-0.5,0.3-0.6,0.5
			c0-0.3-0.1-0.6-0.3-0.8c-0.1-3.6-1.6-22.6-9.1-17.4c-2.7,1.9-1.9,6-1.2,8.8c0.7,3,2.1,5.6,4.1,7.6c-3.8,0.7-7.6,3.2-5.4,7.2
			c3.2,5.9,10.1-1.8,11.7-4.9c-0.2,3.5,1.6,13.7,7.4,10.3c3.9-2.3,2-6.4-0.9-9C129.7,239.6,132.3,238.1,134.4,235.9z M112.8,229.8
			c-0.4-1.1-1-2.9-0.9-4.1c0.1-0.8,0.9-3.4,2.1-3.2c2,0.4,3.1,6.3,3.3,8c0.3,1.9,0.4,3.9,0.4,5.8
			C115.3,234.8,113.7,232.6,112.8,229.8z M114.2,242.6c-2.5-2.1-2.6-3.3,0-3.7c1.1-0.2,2.2-0.2,3.2,0.2
			C116.6,240.5,115.3,242.4,114.2,242.6z M123.7,245.3c-0.9-0.7-1-3-0.9-4.7c1.1,0.2,2,0.7,2.9,1.5
			C127.7,243.8,127,244.8,123.7,245.3z M124,238.1c1-1.6,2.1-3.2,3.4-4.7c1.1-1.4,5.1-5.8,7-5.1c1.1,0.4,0.4,3.1,0.1,3.8
			c-0.5,1.1-2,2.3-2.9,3.1C129.4,237,126.8,238.1,124,238.1z"/>
		<g>
			<path class="st12" d="M120.7,231.8c-1.4,4.9-2.6,9.8-3.5,14.8c-0.3,1.6,2.1,2.3,2.4,0.7c1-5,2.1-9.9,3.5-14.8
				C123.6,230.9,121.2,230.2,120.7,231.8L120.7,231.8z"/>
		</g>
	</g>
	<g>
		<path class="st16" d="M329.3,298.5c0.7-2.7,1.6-6.8-1.1-8.8c-7.4-5.3-9.2,13.7-9.3,17.3c-0.2,0.2-0.3,0.5-0.3,0.8
			c-0.1-0.3-0.4-0.4-0.6-0.5c-1.9-3-13-18.6-16.7-10.3c-1.4,3.1,1.5,6.1,3.5,8.2c2.1,2.2,4.6,3.8,7.4,4.4c-2.9,2.6-4.9,6.7-1,9
			c5.8,3.4,7.7-6.7,7.5-10.2c1.6,3.1,8.4,11,11.7,5.1c2.2-4-1.6-6.5-5.4-7.3C327.2,304.1,328.6,301.5,329.3,298.5z M307.6,304.4
			c-0.9-0.8-2.4-2-2.9-3.1c-0.3-0.7-1-3.4,0.2-3.8c2-0.7,5.8,3.8,7,5.2c1.2,1.5,2.3,3.1,3.3,4.8
			C312.4,307.4,309.8,306.3,307.6,304.4z M315.4,314.6c-3.3-0.5-3.9-1.6-1.9-3.2c0.9-0.8,1.8-1.3,2.9-1.5
			C316.4,311.6,316.3,313.9,315.4,314.6z M324.9,312c-1.1-0.2-2.4-2.1-3.2-3.5c1-0.4,2.1-0.4,3.3-0.2
			C327.5,308.7,327.5,309.9,324.9,312z M321.5,305.7c0.1-1.9,0.2-3.9,0.5-5.8c0.3-1.7,1.4-7.6,3.4-8c1.2-0.2,2,2.4,2.1,3.2
			c0.1,1.2-0.5,3-0.9,4.1C325.6,302,323.9,304.3,321.5,305.7z"/>
		<g>
			<path class="st12" d="M315.4,302c1.3,4.9,2.8,9.8,4.6,14.6c0.5,1.5,3,0.9,2.4-0.6c-1.7-4.8-3.3-9.6-4.6-14.6
				C317.5,299.8,315,300.4,315.4,302L315.4,302z"/>
		</g>
	</g>
</g>
</svg>
