<?xml version="1.0" encoding="utf-8"?>
<!-- Generator: Adobe Illustrator 22.0.0, SVG Export Plug-In . SVG Version: 6.00 Build 0)  -->
<svg version="1.1" id="Calque_1" xmlns="http://www.w3.org/2000/svg" xmlns:xlink="http://www.w3.org/1999/xlink" x="0px" y="0px"
	 viewBox="0 0 432 432" style="enable-background:new 0 0 432 432;" xml:space="preserve">
<style type="text/css">
	.st0{fill:#020203;}
	.st1{fill:#F3D4AA;}
	.st2{fill:#C1292E;}
	.st3{fill:#E7E6E6;}
	.st4{fill:#A81922;}
	.st5{fill:#D6A14D;}
	.st6{fill:#E580A9;}
	.st7{fill:#FFF0BA;}
	.st8{fill:#972021;}
	.st9{fill:#D06C5D;}
	.st10{fill:#36502D;}
	.st11{fill:#79986F;}
	.st12{fill:#EB5B28;}
	.st13{fill:#A67D52;}
	.st14{fill:#F2F2F2;}
	.st15{fill:#066938;}
	.st16{fill:#009245;}
	.st17{fill:#CDCCCC;}
	.st18{fill:#AE8864;}
	.st19{fill:#412413;}
	.st20{fill:#8C633A;}
	.st21{fill:#F39323;}
	.st22{fill:#F9B03D;}
	.st23{fill:#C69C6C;}
	.st24{fill:#2FBAD7;}
	.st25{fill:#DAA405;}
	.st26{fill:#808181;}
	.st27{fill:#8E3089;}
	.st28{fill:#1861A9;}
	.st29{fill:#D4175B;}
	.st30{fill:#E3D65E;}
	.st31{fill:#C7B29A;}
	.st32{fill:#603914;}
	.st33{fill:#998675;}
	.st34{fill:#746458;}
	.st35{fill:#EAA35C;}
	.st36{fill:#A3282E;}
	.st37{fill:#DC7B18;}
	.st38{fill:#B88E5C;}
	.st39{fill:#C67B3E;}
	.st40{fill:#C74A54;}
	.st41{fill:#48AE4D;}
	.st42{fill:#9A9999;}
	.st43{fill:#6F1131;}
	.st44{fill:#EFAE5D;}
	.st45{fill:#BB7E28;}
	.st46{fill:#C8904C;}
	.st47{fill:#BB7926;}
	.st48{fill:#C68448;}
	.st49{fill:#D79A5D;}
	.st50{fill:#82171C;}
	.st51{fill:#754D24;}
	.st52{fill:#EAD797;}
	.st53{fill:#B4B4B4;}
	.st54{fill:#4E4D4D;}
	.st55{fill:#014837;}
	.st56{fill:#28285B;}
	.st57{fill:#8EC045;}
	.st58{fill:#6BC4CD;}
	.st59{fill:#699CBB;}
	.st60{fill:#6D8E5F;}
</style>
<g>
	<ellipse class="st51" cx="167.7" cy="343.3" rx="37.8" ry="23.9"/>
	<ellipse class="st51" cx="246.4" cy="343.3" rx="37.8" ry="23.9"/>
	<path class="st20" d="M265.4,168.3c-1.5-18.3-2.5-49.2-17.4-70.5c5.9-2.8,10-8.7,10-15.7c0-9.6-7.8-17.4-17.4-17.4
		c-8.4,0-15.5,6-17,14c-6.8-2.5-14.6-3.9-23.9-3.9c-9.6,0-17.7,1.5-24.5,4.2c-1.5-8.1-8.5-14.3-17.1-14.3c-9.6,0-17.4,7.8-17.4,17.4
		c0,7.2,4.4,13.5,10.8,16c-14.3,21.2-14.9,51.9-16.4,70.1c-2.4,29.8-27.8,139.8,19.9,164.2c34.4,17.6,43.8,18.6,50.9,17.4
		c2.7-0.2,5.2-0.6,8.4-1.7c0,0,0,0,0,0v0c6-2,14.6-6.4,31.2-15.7C292.1,306.3,267.8,198.1,265.4,168.3z"/>
	<path class="st51" d="M215.7,119c-8.9-12.8-7.6-27.8,4.6-41.3c-5.9-3.3-28.5-3.5-41.3,0c13.2,3.7,13.6,21.7,1.1,43.7
		c-12.5,22-14.6,31,1.2,32.5c2.2,0.2,4.1,0.2,5.8,0.1c3.4,5.5,9.2,9.3,16.5,8.8c6.5-0.5,9.7-4.8,11.5-8.8c1.2,0.1,2.5,0.2,3.9,0.1
		C244.9,152.8,223.9,130.7,215.7,119z"/>
	<g>
		<ellipse transform="matrix(0.2147 -0.9767 0.9767 0.2147 36.1151 258.9054)" class="st0" cx="179.1" cy="107" rx="4.4" ry="2.5"/>
		<ellipse transform="matrix(0.9767 -0.2147 0.2147 0.9767 -17.8597 49.54)" class="st0" cx="219.1" cy="107" rx="2.5" ry="4.4"/>
	</g>
	<g>
		<path class="st51" d="M234.5,220.7c-1.4,9.3-1.9,19.2-5.3,25c7.5,5.5,15.9,5.5,18.6,6.1c3.8-8.2,11-19.5,13-21.6
			C251.7,225.2,234.5,220.7,234.5,220.7z"/>
		<path class="st49" d="M248.7,310.5l-61.4-26.1c-0.7-0.3-1.1-1.2-0.8-1.9l18-42.5c0.3-0.7,1.2-1.1,1.9-0.8l61.4,26.1
			c0.7,0.3,1.1,1.2,0.8,1.9l-18,42.5C250.2,310.5,249.4,310.8,248.7,310.5z"/>
		<path class="st15" d="M304.8,75.1c-11.1,6.4-48,43.5-55.5,44.9s11.3,10.3,23,8.6c11.7-1.7-8.6,11-18.9,12.3
			c-10.3,1.4,12.3,4.8,17.5,4.1c5.1-0.7-41.8,24.7-50.4,25.4c-8.6,0.7,18.2,10.6,30.2,8.9c12-1.7-11,9.3-27.1,6.9s12,9.3,21.2,8.6
			c9.3-0.7-42.5,6.2-53.1,4.8c-10.6-1.4,29.1,26,48.7,25.7c13.7,10.6,79.5,49.4,55.9,20.9s-32.2-62.4-24.7-47.3s30.2,33.9,25.7,18.5
			c-4.5-15.4-26.4-42.8-17.1-35.6c9.3,7.2,35.6,43.5,31.2,30.5c-4.5-13-23-59.3-13.7-49s25,18.5,16.5,9.6s-16.5-50.4-12.3-39.8
			c4.1,10.6,25.7,18.5,17.1,8.9S311.3,71.3,304.8,75.1z"/>
		<path class="st48" d="M261.8,274.7L203.6,250c-3.4-1.5-5-5.4-3.6-8.9l2.6-6.2c1.5-3.4,5.4-5,8.9-3.6l58.2,24.7
			c3.4,1.5,5,5.4,3.6,8.9l-2.6,6.2C269.2,274.6,265.2,276.2,261.8,274.7z"/>
	</g>
	<path class="st0" d="M217.4,141.5c-4,2.6-8.1,5.4-12.8,6.4c-0.7,0.1-1.3,0.2-1.9,0.3c0-2.6-0.1-5.1-0.3-7.7c5.3-0.3,9.4-3.3,9.4-7
		c0-3.9-4.6-7.1-10.2-7.1s-10.2,3.2-10.2,7.1c0,3.5,3.7,6.4,8.6,7c0.2,2.6,0.3,5.2,0.3,7.8c-4.2-0.3-7.8-2.4-11.5-5
		c-1.2-0.9-2.4,1.2-1.2,2c4.7,3.3,9.5,6,15.5,5.3c5.8-0.7,10.8-3.9,15.5-7C219.9,142.7,218.7,140.7,217.4,141.5z"/>
	<g>
		<path class="st51" d="M125,190.7c13.2-12.3,108.3,20.8,98.1,45.6s-67.1,21.4-95.9,5S115.1,200,125,190.7z"/>
		<path class="st51" d="M294.3,232.4c-7.8-8-51.7,26.9-43.4,44.7s33.8,10.2,44.6-4.8C306.3,257.4,300.2,238.5,294.3,232.4z"/>
	</g>
</g>
</svg>
